<svg width="258" height="49" viewBox="0 0 258 49" fill="none" xmlns="http://www.w3.org/2000/svg">
<rect x="48.2285" y="-1.14441e-05" width="48.1872" height="48.1872" rx="10.118" transform="rotate(90 48.2285 -1.14441e-05)" fill="#7AE377"/>
<g clip-path="url(#clip0_565_1635)">
<path d="M8.39145 24.1906L7.08255 24.1906L7.08255 40.1346L8.39145 40.1346L8.39145 24.1906Z" fill="black"/>
<path d="M13.3727 18.341L13.3785 18.341L13.3785 8.24727L20.3004 8.24727L20.3004 24.1096L16.3112 24.1096L16.3112 40.26L13.3727 40.26L13.3727 18.341Z" fill="black"/>
<path d="M20.5661 24.1902L23.3024 24.1902L23.3024 8.24782L27.485 8.24782L27.485 24.1922L24.7487 24.1922L24.7487 40.1345L20.5661 40.1345L20.5661 24.1902Z" fill="black"/>
<path d="M27.7511 24.1902L31.5958 24.1902L31.5958 8.24684L34.7686 8.24684L34.7686 40.1345L27.7511 40.1345L27.7511 24.1902Z" fill="black"/>
<path d="M39.6604 24.1917L40.9693 24.1917L40.9693 8.2478L39.6604 8.2478L39.6604 24.1917Z" fill="black"/>
</g>
<path d="M254.959 30.9782H257.184C256.581 33.2791 256.09 34.2975 254.996 35.3536C253.563 36.7493 251.715 37.4282 249.301 37.4282C243.756 37.4282 240.173 33.694 240.173 27.9983C240.173 22.1895 243.718 18.4553 249.225 18.4553C252.092 18.4553 254.242 19.3605 255.713 21.2842C257.071 22.9816 257.561 24.6413 257.712 28.2624H243.794C243.869 30.865 244.171 32.0343 244.963 33.2036C245.868 34.5615 247.415 35.3159 249.301 35.3159C250.81 35.3159 252.205 34.8256 253.186 33.9957C253.978 33.3545 254.393 32.6378 254.959 30.9782ZM243.945 26.2632H254.016C253.903 23.9623 253.639 22.9439 252.884 21.9255C252.092 20.8693 250.772 20.3035 249.15 20.3035C247.415 20.3035 246.095 20.907 245.227 22.0764C244.435 23.1325 244.171 24.0755 243.945 26.2632Z" fill="black"/>
<path d="M228.052 13.4386V11.6281H234.917V32.8265C234.917 34.5993 235.257 34.9011 237.331 34.9765H238.274V36.787H231.711V33.7318C229.825 36.3721 228.128 37.3528 225.336 37.3528C220.546 37.3528 217.302 33.5432 217.302 27.9607C217.302 22.3027 220.546 18.493 225.412 18.493C228.241 18.493 229.825 19.3983 231.711 22.0387V15.5886C231.749 13.8535 231.334 13.5141 229.259 13.4386H228.052ZM226.015 20.6808C222.771 20.6808 220.923 23.3211 220.923 27.9607C220.923 32.5247 222.809 35.1651 226.053 35.1651C229.448 35.1651 231.711 32.2984 231.711 27.9607C231.711 23.5097 229.485 20.6808 226.015 20.6808Z" fill="black"/>
<path d="M205.113 18.4553C207.715 18.4553 210.092 19.3228 211.902 20.9825C213.864 22.7553 214.807 24.9808 214.807 27.9606C214.807 30.9027 213.864 33.1282 211.902 34.901C210.129 36.5229 207.715 37.4282 205.15 37.4282C202.51 37.4282 200.096 36.5229 198.323 34.901C196.286 33.0905 195.419 30.9027 195.419 27.8097C195.419 25.0185 196.437 22.6421 198.323 20.9825C200.171 19.3228 202.548 18.4553 205.113 18.4553ZM205.113 20.379C201.265 20.379 199.078 23.0948 199.078 27.8474C199.078 32.7887 201.19 35.5045 205.113 35.5045C208.998 35.5045 211.148 32.7887 211.148 27.9606C211.148 23.0948 208.96 20.379 205.113 20.379Z" fill="black"/>
<path d="M160.534 36.787V34.9765H161.59C163.665 34.901 164.004 34.5993 164.004 32.8265V23.0571C164.004 21.322 163.665 20.9825 161.59 20.9071H160.534V19.0965H167.173V21.7746C169.172 19.3983 170.643 18.6062 173.132 18.6062C174.604 18.6062 175.999 19.0588 176.904 19.8132C177.47 20.2658 177.847 20.9071 178.338 22.0764C180.714 19.3983 182.147 18.6062 184.675 18.6062C186.674 18.6062 188.333 19.3606 189.201 20.7185C190.031 21.9632 190.219 23.0571 190.219 26.6782V32.8265C190.219 34.5993 190.559 34.901 192.633 34.9765H193.539V36.787H183.958V34.9765H184.637C186.712 34.901 187.051 34.5993 187.051 32.8265V26.1878C187.051 21.9255 186.259 20.6053 183.732 20.6053C182.261 20.6053 180.978 21.2088 179.997 22.3404C178.979 23.5474 178.715 24.4527 178.715 26.6782V32.8265C178.715 34.5993 179.054 34.901 181.129 34.9765H181.808V36.787H172.416V34.9765H173.095C175.207 34.901 175.584 34.5993 175.547 32.8265V26.1878C175.547 21.9255 174.754 20.6053 172.189 20.6053C170.718 20.6053 169.474 21.2088 168.455 22.3404C167.437 23.5474 167.173 24.4527 167.173 26.6782V32.8265C167.173 34.5993 167.512 34.901 169.587 34.9765H170.266V36.787H160.534Z" fill="black"/>
<path d="M149.591 20.9448H146.121V19.0966H149.591V17.5878C149.591 14.9474 150.043 13.5141 151.175 12.4579C152.193 11.4772 153.627 10.9869 155.4 10.9869C158.606 10.9869 160.831 12.6088 160.831 14.9097C160.831 16.2676 160.039 17.1352 158.757 17.1352C157.663 17.1352 156.795 16.3431 156.795 15.3246C156.795 14.4571 157.286 13.8913 158.304 13.6272C157.323 12.8729 156.833 12.6843 155.852 12.6843C154.57 12.6843 153.589 13.2123 153.212 14.1553C152.91 14.9097 152.797 15.7395 152.797 17.701V19.0966H157.022V20.9448H152.797V32.8265C152.797 34.5993 153.136 34.9388 155.211 34.9765H157.022V36.7871H146.121V34.9765H147.177C149.251 34.9388 149.591 34.5993 149.591 32.8265V20.9448Z" fill="black"/>
<path d="M134.308 18.4553C136.911 18.4553 139.287 19.3228 141.098 20.9825C143.059 22.7553 144.002 24.9808 144.002 27.9606C144.002 30.9027 143.059 33.1282 141.098 34.901C139.325 36.5229 136.911 37.4282 134.346 37.4282C131.706 37.4282 129.291 36.5229 127.519 34.901C125.482 33.0905 124.614 30.9027 124.614 27.8097C124.614 25.0185 125.633 22.6421 127.519 20.9825C129.367 19.3228 131.743 18.4553 134.308 18.4553ZM134.308 20.379C130.461 20.379 128.273 23.0948 128.273 27.8474C128.273 32.7887 130.385 35.5045 134.308 35.5045C138.193 35.5045 140.343 32.7887 140.343 27.9606C140.343 23.0948 138.156 20.379 134.308 20.379Z" fill="black"/>
<path d="M112.574 18.4553C115.177 18.4553 117.553 19.3228 119.364 20.9825C121.325 22.7553 122.268 24.9808 122.268 27.9606C122.268 30.9027 121.325 33.1282 119.364 34.901C117.591 36.5229 115.177 37.4282 112.612 37.4282C109.972 37.4282 107.558 36.5229 105.785 34.901C103.748 33.0905 102.88 30.9027 102.88 27.8097C102.88 25.0185 103.899 22.6421 105.785 20.9825C107.633 19.3228 110.009 18.4553 112.574 18.4553ZM112.574 20.379C108.727 20.379 106.539 23.0948 106.539 27.8474C106.539 32.7887 108.651 35.5045 112.574 35.5045C116.459 35.5045 118.609 32.7887 118.609 27.9606C118.609 23.0948 116.422 20.379 112.574 20.379Z" fill="black"/>
<path d="M95.8424 34.9764V36.787H84.9037V34.9764H85.9599C88.0344 34.9387 88.3739 34.5992 88.3739 32.8264V23.057C88.3739 21.3219 88.0344 20.9825 85.9599 20.907H84.9037V19.0965H91.5801V22.7553C93.0134 19.8509 94.6731 18.5684 97.0494 18.5684C99.5389 18.5684 101.312 20.2658 101.312 22.6421C101.312 24.0377 100.293 25.1693 98.9731 25.1693C97.8038 25.1693 96.8985 24.3395 96.8985 23.2456C96.8985 22.0386 97.6529 21.3974 98.9731 21.3974C98.181 20.5298 97.7661 20.3412 96.8231 20.3412C95.1634 20.3412 93.7301 21.4351 92.6362 23.5097C91.9196 24.9053 91.5801 26.4895 91.5801 28.6018V32.8264C91.5801 34.5992 91.9196 34.9387 93.9941 34.9764H95.8424Z" fill="black"/>
<path d="M72.6111 34.7879V36.787H60.2391V34.7879H61.7856C64.1996 34.7125 64.4637 34.4107 64.4259 32.0344V16.3807C64.4637 14.0044 64.1996 13.7027 61.7856 13.6272H60.2391V11.6281H71.9321C76.4208 11.6281 78.5331 11.9676 80.419 12.9483C82.3427 14.0044 83.3989 15.9658 83.3989 18.493C83.3989 20.9825 82.2673 23.0571 80.3436 24.1133C78.5708 25.094 76.6471 25.3957 72.2339 25.3957H68.0847V32.0344C68.047 34.4107 68.311 34.7125 70.7628 34.7879H72.6111ZM68.0847 23.3966H72.2339C77.2883 23.3966 79.5892 21.8124 79.5892 18.3422C79.5892 16.1922 78.6085 14.7965 76.6848 14.1553C75.6286 13.7781 74.233 13.6272 72.0076 13.6272H68.0847V23.3966Z" fill="black"/>
<path d="M239.979 27.9985C239.979 25.0545 240.878 22.6172 242.493 20.9146C244.11 19.211 246.427 18.2609 249.226 18.2609C252.138 18.2609 254.352 19.1833 255.868 21.1661H255.868C257.261 22.9093 257.756 24.6179 257.907 28.2545L257.916 28.4567H243.996C244.075 30.7472 244.345 31.8538 244.987 32.8834L245.124 33.0948L245.125 33.0957L245.208 33.2157C246.081 34.4357 247.526 35.1216 249.301 35.1216V35.3159L249.125 35.3137C247.319 35.2681 245.841 34.5191 244.964 33.2036C244.171 32.0343 243.87 30.865 243.794 28.2624H257.713C257.562 24.6413 257.071 22.9816 255.713 21.2842C254.288 19.4207 252.226 18.513 249.492 18.458L249.226 18.4552C243.719 18.4552 240.173 22.1897 240.173 27.9985L240.176 28.264C240.284 33.7218 243.731 37.313 249.043 37.4256L249.301 37.4281C251.715 37.4281 253.564 36.7492 254.997 35.3535C256.091 34.2974 256.581 33.2789 257.185 30.9781H254.959C254.393 32.6377 253.978 33.3545 253.186 33.9957L253.064 33.8447C253.813 33.2382 254.213 32.5634 254.775 30.9154L254.82 30.7838H257.437L257.373 31.0275C256.765 33.3424 256.263 34.4008 255.132 35.4928L255.132 35.4931C253.656 36.9307 251.755 37.6227 249.301 37.6228C246.484 37.6228 244.149 36.6729 242.518 34.9843C240.888 33.2963 239.979 30.8873 239.979 27.9985ZM253.186 33.9957L253.093 34.0726C252.118 34.8558 250.763 35.3159 249.301 35.3159V35.1216C250.77 35.1216 252.119 34.6438 253.061 33.8473L253.064 33.8447L253.186 33.9957ZM249.302 20.3051C250.854 20.3393 252.117 20.9025 252.885 21.9256C253.639 22.944 253.903 23.9626 254.016 26.2634H243.945C244.157 24.2124 244.403 23.2552 245.085 22.2734L245.227 22.0766C246.095 20.9072 247.415 20.3035 249.15 20.3035L249.302 20.3051ZM249.15 20.4981C247.465 20.4981 246.208 21.0816 245.384 22.1924L245.383 22.193C244.649 23.1722 244.382 24.0456 244.162 26.0688H253.811C253.692 23.9249 253.426 22.9836 252.729 22.0421L252.658 21.9503C251.904 21.0134 250.679 20.4981 249.15 20.4981Z" fill="black"/>
<path d="M238.274 34.9764H237.331L236.962 34.9593C235.331 34.8643 234.963 34.5366 234.921 33.1419L234.917 32.8264V11.6279H228.052V13.4386H229.259C231.333 13.5141 231.748 13.8535 231.71 15.5885V22.0386C229.883 19.4808 228.34 18.5513 225.673 18.4957L225.411 18.4932C220.545 18.4932 217.302 22.3029 217.302 27.9608L217.304 28.2209C217.402 33.5748 220.519 37.2351 225.112 37.35L225.336 37.3528C228.127 37.3528 229.824 36.3721 231.71 33.7318V36.787H238.274V34.9764ZM231.516 27.9608C231.516 25.7655 230.967 23.9917 230.011 22.7715C229.058 21.5561 227.692 20.8753 226.015 20.8753C224.453 20.8753 223.241 21.5066 222.411 22.6924C221.575 23.8874 221.117 25.6627 221.117 27.9608C221.117 30.2199 221.584 31.9758 222.429 33.1616C223.268 34.3388 224.491 34.9706 226.052 34.9707V35.165L225.901 35.1631C222.8 35.0833 220.981 32.5362 220.924 28.1731L220.923 27.9608C220.923 23.3213 222.771 20.6807 226.015 20.6807L226.176 20.6829C229.554 20.7697 231.71 23.5794 231.71 27.9608L231.709 28.163C231.639 32.3873 229.394 35.165 226.052 35.165V34.9707C227.69 34.9707 229.048 34.2819 230.002 33.0695C230.958 31.853 231.516 30.0977 231.516 27.9608ZM235.111 32.8264C235.111 33.2667 235.133 33.5998 235.192 33.8561C235.25 34.1082 235.341 34.2739 235.475 34.3928C235.611 34.5143 235.811 34.6044 236.118 34.6675C236.424 34.7307 236.821 34.7633 237.338 34.7821H238.468V36.9813H231.516V34.3216C230.688 35.4022 229.873 36.1804 228.959 36.7013C227.913 37.2974 226.755 37.5471 225.336 37.5471C222.885 37.5471 220.822 36.5709 219.375 34.8764C217.929 33.1843 217.107 30.7887 217.107 27.9608C217.107 25.0957 217.929 22.6807 219.384 20.9788C220.842 19.2742 222.924 18.2985 225.411 18.2985C226.847 18.2986 227.986 18.5286 229.01 19.1064C229.903 19.6109 230.695 20.3725 231.516 21.4475V15.5844L231.518 15.4259C231.521 14.6594 231.414 14.2684 231.149 14.038C231.004 13.9124 230.795 13.8185 230.482 13.7525C230.247 13.703 229.963 13.6712 229.617 13.6503L229.252 13.6329H227.857V11.4336H235.111V32.8264Z" fill="black"/>
<path d="M195.224 27.8099C195.224 24.9698 196.261 22.5385 198.193 20.838L198.371 20.6814C200.231 19.0898 202.584 18.2609 205.112 18.2609C207.758 18.2609 210.182 19.1434 212.032 20.8383L212.217 21.0098C214.098 22.7954 215.001 25.027 215.001 27.9608C215.001 30.9519 214.038 33.2319 212.032 35.0453C210.221 36.7018 207.76 37.6227 205.15 37.6228C202.466 37.6228 200.005 36.7024 198.193 35.046V35.0463C196.108 33.1924 195.224 30.9477 195.224 27.8099ZM199.077 27.8475C199.077 23.0949 201.265 20.3792 205.112 20.3792L205.291 20.3811C209.027 20.4644 211.147 23.1709 211.147 27.9608L211.146 28.1855C211.08 32.873 208.936 35.5045 205.112 35.5045V35.3102C207.005 35.3102 208.454 34.651 209.435 33.422C210.42 32.1863 210.953 30.3495 210.953 27.9608C210.953 25.5536 210.411 23.7071 209.421 22.4664C208.435 21.2322 206.986 20.5734 205.112 20.5734C203.238 20.5735 201.789 21.2325 200.803 22.4531C199.813 23.6799 199.271 25.4978 199.271 27.8475C199.271 30.2945 199.795 32.1596 200.776 33.409C201.752 34.6508 203.2 35.3102 205.112 35.3102V35.5045L204.93 35.5026C201.184 35.4206 199.143 32.7969 199.079 28.0776L199.077 27.8475ZM195.421 28.0972C195.473 31.0392 196.35 33.1471 198.323 34.901C200.04 36.4723 202.359 37.371 204.903 37.4256L205.15 37.4281C207.715 37.4281 210.129 36.5229 211.902 34.901C213.802 33.1836 214.746 31.0415 214.803 28.2345L214.806 27.9608C214.806 25.0741 213.921 22.8951 212.083 21.15L211.902 20.9826C210.148 19.3748 207.863 18.5101 205.355 18.4577L205.112 18.4552C202.547 18.4552 200.171 19.323 198.323 20.9826L198.148 21.1402C196.374 22.7911 195.418 25.1058 195.418 27.8099L195.421 28.0972Z" fill="black"/>
<path d="M193.539 34.9763H192.634L192.265 34.9592C190.634 34.8642 190.266 34.5365 190.224 33.1419L190.219 32.8264V26.6782C190.219 23.1703 190.043 22.034 189.277 20.8348L189.201 20.7183C188.361 19.4029 186.777 18.6538 184.861 18.6083L184.675 18.6061C182.148 18.6061 180.714 19.3984 178.338 22.0765C177.848 20.9072 177.47 20.2659 176.904 19.8133C176.028 19.0825 174.691 18.6346 173.27 18.6073L173.132 18.6061C170.643 18.6061 169.172 19.3983 167.173 21.7746V19.0966H160.534V20.9069H161.591C163.665 20.9824 164.004 21.3221 164.004 23.0572V32.8264L164 33.1419C163.958 34.5364 163.59 34.8642 161.96 34.9592L161.591 34.9763H160.534V36.787H170.266V34.9763H169.587L169.218 34.9592C167.588 34.8642 167.219 34.5365 167.177 33.1419L167.173 32.8264V26.6782C167.173 24.4528 167.437 23.5474 168.455 22.3404C169.474 21.2089 170.718 20.6054 172.189 20.6054L172.425 20.6092C174.803 20.6906 175.547 22.0586 175.547 26.1877V32.8264C175.582 34.4884 175.253 34.8574 173.471 34.9592L173.095 34.9763H172.416V36.787H181.808V34.9763H181.129L180.76 34.9592C179.13 34.8642 178.761 34.5364 178.719 33.1419L178.715 32.8264V26.6782C178.715 24.4528 178.979 23.5474 179.998 22.3404C180.978 21.2089 182.261 20.6054 183.732 20.6054L183.964 20.6092C186.308 20.6906 187.051 22.0587 187.051 26.1877V32.8264L187.047 33.1419C187.005 34.5365 186.636 34.8642 185.006 34.9592L184.637 34.9763H183.958V36.787H193.539V34.9763ZM167.367 21.2518C168.236 20.2701 169.028 19.5806 169.878 19.1276C170.842 18.6136 171.866 18.4118 173.132 18.4118C174.637 18.4118 176.078 18.8733 177.026 19.6614L177.137 19.7548C177.634 20.1913 177.988 20.7847 178.396 21.7196C179.497 20.5022 180.413 19.684 181.356 19.1665C182.364 18.6139 183.388 18.4118 184.675 18.4118C186.718 18.4118 188.45 19.1838 189.364 20.6123C190.229 21.9106 190.414 23.0608 190.414 26.6782V32.8264C190.414 33.2666 190.435 33.5998 190.494 33.8561C190.553 34.1082 190.644 34.2738 190.778 34.3928C190.914 34.5143 191.114 34.6044 191.42 34.6674C191.727 34.7306 192.124 34.7632 192.641 34.782H193.733V36.9813H183.764V34.782H184.63C185.147 34.7632 185.543 34.7306 185.85 34.6674C186.157 34.6044 186.356 34.5143 186.493 34.3928C186.626 34.2738 186.718 34.1082 186.776 33.8561C186.835 33.5998 186.857 33.2666 186.857 32.8264V26.1877C186.857 24.0553 186.656 22.7098 186.172 21.8977C185.935 21.4996 185.629 21.2294 185.238 21.056C184.842 20.8806 184.348 20.7997 183.732 20.7997C182.319 20.7997 181.09 21.377 180.145 22.4676C179.648 23.0567 179.344 23.5611 179.161 24.1824C178.976 24.8102 178.909 25.5701 178.909 26.6782V32.8264C178.909 33.2666 178.931 33.5998 178.99 33.8561C179.048 34.1081 179.14 34.2738 179.273 34.3928C179.41 34.5143 179.61 34.6044 179.916 34.6674C180.223 34.7306 180.62 34.7632 181.136 34.782H182.003V36.9813H172.221V34.782H173.088C173.614 34.7632 174.021 34.7308 174.336 34.6674C174.652 34.6041 174.859 34.5131 175 34.3909C175.276 34.1511 175.371 33.7261 175.352 32.8305V26.1877C175.352 24.0551 175.151 22.7101 174.663 21.8983C174.424 21.5004 174.115 21.23 173.718 21.0563C173.317 20.8807 172.816 20.7997 172.189 20.7997C170.78 20.7997 169.587 21.3745 168.602 22.4676C168.106 23.0567 167.802 23.5611 167.619 24.1824C167.434 24.8102 167.367 25.5701 167.367 26.6782V32.8264C167.367 33.2666 167.389 33.5998 167.448 33.8561C167.506 34.1081 167.598 34.2738 167.731 34.3928C167.868 34.5143 168.067 34.6044 168.374 34.6674C168.681 34.7306 169.077 34.7632 169.594 34.782H170.46V36.9813H160.34V34.782H161.583C162.1 34.7632 162.497 34.7306 162.804 34.6674C163.11 34.6044 163.31 34.5143 163.446 34.3928C163.58 34.2738 163.672 34.1082 163.73 33.8561C163.789 33.5998 163.81 33.2666 163.81 32.8264V23.0572C163.81 22.1795 163.717 21.7499 163.445 21.5037C163.308 21.3798 163.107 21.2865 162.802 21.2208C162.497 21.1553 162.103 21.1204 161.59 21.1015H160.34V18.9019H167.367V21.2518Z" fill="black"/>
<path d="M160.83 14.9098C160.83 12.6807 158.742 11.0888 155.696 10.9916L155.399 10.9868C153.626 10.9868 152.193 11.4773 151.174 12.458C150.043 13.5141 149.59 14.9475 149.59 17.5878V19.0966H146.12V20.945H149.59V32.8265L149.586 33.1423C149.544 34.5406 149.175 34.8957 147.545 34.9656L147.176 34.9764H146.12V36.7871H157.021V34.9764H155.21L154.841 34.9656C153.211 34.8957 152.843 34.5407 152.801 33.1423L152.796 32.8265V20.945H157.021V19.0966H152.796V17.7008C152.796 15.862 152.896 15.0177 153.157 14.2978L153.211 14.1554C153.588 13.2124 154.569 12.6842 155.852 12.6842L156.03 12.6864C156.896 12.7099 157.384 12.92 158.303 13.6272C157.285 13.8913 156.795 14.4571 156.795 15.3246L156.797 15.4196C156.847 16.3605 157.643 17.087 158.654 17.1328L158.756 17.135C159.998 17.135 160.781 16.3209 160.828 15.0354L160.83 14.9098ZM161.025 14.9098C161.025 15.6259 160.816 16.2334 160.417 16.6638C160.016 17.0959 159.443 17.3296 158.756 17.3296C157.57 17.3295 156.6 16.4653 156.6 15.3246C156.6 14.8518 156.735 14.4451 157.021 14.1209C157.235 13.8788 157.525 13.6925 157.882 13.5563C157.545 13.3145 157.274 13.1565 157.008 13.0542C156.67 12.9244 156.329 12.8785 155.852 12.8785C154.657 12.8785 153.785 13.3519 153.425 14.1494L153.392 14.2275C153.105 14.9449 152.991 15.7423 152.991 17.7008V18.902H157.215V21.1393H152.991V32.8265C152.991 33.2666 153.012 33.6023 153.071 33.8619C153.13 34.1176 153.222 34.2869 153.356 34.408C153.492 34.5312 153.691 34.6222 153.996 34.6833C154.302 34.7446 154.698 34.7727 155.214 34.7821H157.215V36.9813H145.926V34.7821H147.172C147.688 34.7727 148.085 34.7446 148.39 34.6833C148.695 34.6222 148.894 34.5312 149.031 34.408C149.165 34.287 149.257 34.1176 149.315 33.8619C149.374 33.6023 149.396 33.2666 149.396 32.8265V21.1393H145.926V18.902H149.396V17.5878C149.396 14.9298 149.85 13.4288 151.039 12.3178L151.14 12.2235C152.197 11.2625 153.647 10.7925 155.399 10.7925C157.033 10.7925 158.433 11.2054 159.431 11.9279C160.432 12.653 161.025 13.6896 161.025 14.9098Z" fill="black"/>
<path d="M124.419 27.8099C124.419 24.9698 125.457 22.5385 127.388 20.838L127.567 20.6814C129.426 19.0898 131.779 18.2609 134.307 18.2609C136.954 18.2609 139.378 19.1434 141.227 20.8383L141.413 21.0098C143.293 22.7954 144.196 25.0271 144.196 27.9608C144.196 30.9519 143.234 33.2319 141.227 35.0453C139.416 36.7018 136.955 37.6228 134.345 37.6228C131.661 37.6227 129.2 36.7024 127.389 35.046V35.0463C125.303 33.1924 124.419 30.9477 124.419 27.8099ZM128.272 27.8475C128.272 23.0949 130.46 20.3792 134.307 20.3792L134.487 20.3811C138.223 20.4644 140.343 23.171 140.343 27.9608L140.341 28.1855C140.275 32.873 138.132 35.5045 134.307 35.5045V35.3102C136.201 35.3102 137.65 34.651 138.63 33.422C139.616 32.1863 140.148 30.3495 140.148 27.9608C140.148 25.5536 139.607 23.7071 138.616 22.4664C137.63 21.2323 136.181 20.5734 134.307 20.5734C132.433 20.5735 130.984 21.2324 129.998 22.4531C129.008 23.6799 128.467 25.4978 128.467 27.8475C128.467 30.2945 128.99 32.1596 129.972 33.409C130.947 34.6508 132.395 35.3102 134.307 35.3102V35.5045L134.125 35.5026C130.38 35.4204 128.338 32.7968 128.274 28.0776L128.272 27.8475ZM124.616 28.0972C124.669 31.0391 125.545 33.1471 127.518 34.901C129.235 36.4723 131.555 37.371 134.098 37.4256L134.345 37.4281C136.91 37.4281 139.324 36.523 141.097 34.901C142.997 33.1836 143.942 31.0415 143.999 28.2345L144.001 27.9608C144.001 25.0741 143.117 22.8951 141.278 21.15L141.097 20.9826C139.343 19.3748 137.058 18.5102 134.551 18.4577L134.307 18.4552C131.743 18.4552 129.366 19.323 127.518 20.9826L127.344 21.1402C125.569 22.7911 124.614 25.1058 124.614 27.8099L124.616 28.0972Z" fill="black"/>
<path d="M102.686 27.8099C102.686 24.9698 103.723 22.5385 105.655 20.838L105.833 20.6814C107.693 19.0898 110.046 18.2609 112.574 18.2609C115.22 18.2609 117.645 19.1434 119.494 20.8383L119.679 21.0098C121.56 22.7954 122.463 25.0271 122.463 27.9608C122.463 30.9519 121.501 33.2319 119.494 35.0453C117.683 36.7018 115.222 37.6228 112.612 37.6228C109.928 37.6227 107.467 36.7024 105.656 35.046V35.0463C103.57 33.1924 102.686 30.9477 102.686 27.8099ZM106.539 27.8475C106.539 23.0949 108.727 20.3792 112.574 20.3792L112.753 20.3811C116.49 20.4644 118.609 23.171 118.609 27.9608L118.608 28.1855C118.542 32.873 116.399 35.5045 112.574 35.5045V35.3102C114.468 35.3102 115.916 34.651 116.897 33.422C117.883 32.1863 118.415 30.3495 118.415 27.9608C118.415 25.5536 117.873 23.7071 116.883 22.4664C115.897 21.2323 114.448 20.5734 112.574 20.5734C110.7 20.5735 109.251 21.2324 108.265 22.4531C107.275 23.6799 106.734 25.4978 106.734 27.8475C106.734 30.2945 107.257 32.1596 108.239 33.409C109.214 34.6508 110.662 35.3102 112.574 35.3102V35.5045L112.392 35.5026C108.646 35.4204 106.605 32.7968 106.541 28.0776L106.539 27.8475ZM102.883 28.0972C102.936 31.0392 103.812 33.1471 105.785 34.901C107.502 36.4722 109.821 37.371 112.365 37.4256L112.612 37.4281C115.177 37.4281 117.591 36.523 119.364 34.901C121.264 33.1836 122.208 31.0415 122.266 28.2345L122.268 27.9608C122.268 25.0741 121.383 22.8951 119.545 21.15L119.364 20.9826C117.61 19.3748 115.325 18.5102 112.818 18.4577L112.574 18.4552C110.009 18.4552 107.633 19.323 105.785 20.9826L105.611 21.1402C103.836 22.7911 102.88 25.1058 102.88 27.8099L102.883 28.0972Z" fill="black"/>
<path d="M101.312 22.642C101.312 20.3029 99.5941 18.6217 97.1659 18.5697L97.0497 18.5685C94.6734 18.5685 93.0137 19.8509 91.5803 22.7553V19.0966H84.904V20.907H85.96C88.0346 20.9824 88.3741 21.3221 88.3741 23.0572V32.8264L88.3697 33.1422C88.3278 34.5407 87.9594 34.8957 86.329 34.9656L85.96 34.9763H84.904V36.787H95.8425V34.9763H93.9945L93.6255 34.9656C91.9951 34.8957 91.6266 34.5407 91.5848 33.1422L91.5803 32.8264V28.6019C91.5803 26.4896 91.9199 24.9053 92.6366 23.5097C93.7305 21.4352 95.1638 20.3412 96.8235 20.3412L96.994 20.3437C97.8196 20.3676 98.2307 20.5841 98.9734 21.3975C97.6532 21.3975 96.8988 22.0388 96.8988 23.2458L96.9013 23.3474C96.9537 24.3569 97.7843 25.1188 98.8645 25.1669L98.9734 25.1695C100.252 25.1694 101.248 24.1073 101.309 22.7721L101.312 22.642ZM91.7746 21.968C92.3975 20.8542 93.0734 20.0088 93.8429 19.4184C94.771 18.7064 95.8228 18.3742 97.0497 18.3742C99.6382 18.3742 101.506 20.1503 101.507 22.642C101.507 24.1289 100.416 25.3637 98.9734 25.3638C97.7115 25.3638 96.7045 24.4612 96.7045 23.2458C96.7045 22.6003 96.9077 22.0794 97.3127 21.7231C97.6264 21.447 98.0442 21.2848 98.5411 21.2272C98.2892 20.9794 98.0809 20.8214 97.8699 20.719C97.5879 20.5821 97.2827 20.5358 96.8235 20.5358C95.2652 20.5358 93.8849 21.5589 92.8084 23.6005C92.1101 24.9613 91.7746 26.5127 91.7746 28.6019V32.8264C91.7746 33.2666 91.7961 33.6023 91.8553 33.8618C91.9136 34.1175 92.0059 34.2869 92.1398 34.408C92.2761 34.5312 92.4752 34.6222 92.7803 34.6833C93.0861 34.7446 93.4821 34.7727 93.9979 34.782H96.0371V36.9813H84.7094V34.782H85.9565C86.4723 34.7727 86.8683 34.7446 87.1742 34.6833C87.4792 34.6222 87.6784 34.5312 87.8147 34.408C87.9486 34.2869 88.0408 34.1175 88.0991 33.8618C88.1583 33.6023 88.1798 33.2666 88.1798 32.8264V23.0572C88.1798 22.1796 88.0869 21.7499 87.8147 21.5038C87.6775 21.3798 87.4773 21.2866 87.1716 21.2209C86.8666 21.1553 86.4723 21.1204 85.9597 21.1016H84.7094V18.902H91.7746V21.968Z" fill="black"/>
<path d="M72.6105 34.7878H70.7622L70.3277 34.7707C68.2787 34.6666 68.0488 34.2622 68.0841 32.0344V25.3957H72.2333L73.0323 25.3922C76.8865 25.3555 78.6811 25.0326 80.3431 24.1132C82.2067 23.09 83.327 21.1111 83.3952 18.7251L83.3984 18.4932C83.3984 16.0449 82.4071 14.1277 80.5963 13.05L80.4184 12.9481C78.6504 12.0288 76.6833 11.6729 72.746 11.632L71.9317 11.6279V11.4336C76.2848 11.4336 78.4413 11.7512 80.3267 12.6836L80.5083 12.7757L80.5121 12.7779L80.6966 12.8833C82.5752 14.0015 83.5927 15.9886 83.5927 18.4932C83.5926 21.0423 82.4318 23.1884 80.4368 24.2837L80.4365 24.2834C78.6167 25.2899 76.6485 25.59 72.2333 25.59H68.2787V32.0375C68.2693 32.6314 68.2793 33.0808 68.3341 33.4261C68.3886 33.7694 68.4843 33.9881 68.6297 34.139C68.7754 34.2904 68.994 34.3977 69.3436 34.4697C69.6946 34.542 70.156 34.5746 70.7682 34.5935H72.8051V36.9813H60.0443V34.5935H61.779C62.3818 34.5746 62.836 34.5419 63.1815 34.4697C63.5253 34.3978 63.7401 34.291 63.8837 34.14C64.0272 33.989 64.122 33.7701 64.176 33.4264C64.2304 33.0809 64.2405 32.6313 64.2311 32.0375V16.3777L64.234 15.9588C64.2326 15.5656 64.2168 15.248 64.176 14.9889C64.122 14.6451 64.0272 14.426 63.8837 14.275C63.7401 14.124 63.5252 14.0174 63.1815 13.9456C62.9224 13.8914 62.6022 13.8592 62.204 13.8386L61.779 13.8215H60.0443V11.4336H71.9317V11.6279H60.2385V13.6272H61.785C64.1991 13.7027 64.4631 14.0046 64.4254 16.3809V32.0344C64.4608 34.2622 64.2309 34.6667 62.2128 34.7707L61.785 34.7878H60.2385V36.787H72.6105V34.7878ZM79.3941 18.3422C79.3941 17.2968 79.156 16.4517 78.6982 15.7939C78.241 15.1369 77.5528 14.6499 76.6227 14.3398L76.6189 14.3386V14.3383C75.596 13.973 74.2288 13.8215 72.0071 13.8215H68.2787V23.2021H72.2333V23.3964H68.0841V13.6272H72.0071C74.2325 13.6272 75.6283 13.7782 76.6844 14.1554C78.608 14.7966 79.5887 16.1923 79.5887 18.3422L79.5871 18.5036C79.5162 21.8615 77.2087 23.3964 72.2333 23.3964V23.2021C74.7476 23.2021 76.5383 22.8066 77.6964 22.0104C78.8389 21.2249 79.3941 20.0288 79.3941 18.3422Z" fill="black"/>
<defs>
<clipPath id="clip0_565_1635">
<rect width="31.8878" height="33.8869" fill="white" transform="translate(7.08246 40.1345) rotate(-90)"/>
</clipPath>
</defs>
</svg>
