<?xml version="1.0" encoding="UTF-8" standalone="no"?>
<!DOCTYPE svg PUBLIC "-//W3C//DTD SVG 1.1//EN" "http://www.w3.org/Graphics/SVG/1.1/DTD/svg11.dtd">
<svg width="100%" height="100%" viewBox="0 0 763 326" version="1.1" xmlns="http://www.w3.org/2000/svg" xmlns:xlink="http://www.w3.org/1999/xlink" xml:space="preserve" xmlns:serif="http://www.serif.com/" style="fill-rule:evenodd;clip-rule:evenodd;stroke-linejoin:round;stroke-miterlimit:2;">
    <g transform="matrix(0.607912,0,0,0.607912,-140.281139,-793.201542)">
        <g>
            <g transform="matrix(21.884921,0,0,21.884921,-3833.400128,-4557.421013)">
                <path d="M196.045,291.268L196.245,290.235C193.679,289.968 193.412,289.702 193.945,286.868L194.912,281.702L195.8,281.702L194.834,286.868C194.3,289.702 194.567,289.968 197.134,290.235L196.934,291.268L196.045,291.268ZM206.796,291.257C206.626,291.252 206.462,291.245 206.303,291.237C206.279,291.236 206.256,291.234 206.233,291.233L207.712,291.242L207.7,291.268L207.267,291.268C207.105,291.266 206.949,291.262 206.796,291.257ZM206.258,289.519C206.321,289.585 206.383,289.647 206.445,289.706C206.262,289.81 206.069,289.891 205.854,289.959C205.832,289.942 205.809,289.924 205.786,289.906C205.536,289.705 205.283,289.447 205.012,289.102C204.379,288.268 203.779,287.102 202.879,285.402C202.112,283.835 201.279,281.668 200.945,280.902C203.745,280.002 206.279,277.935 206.279,274.602C206.279,272.502 205.312,271.135 204.079,270.335C202.779,269.502 200.879,269.268 198.945,269.268L199.834,269.268C201.767,269.268 203.667,269.502 204.967,270.335C206.2,271.135 207.167,272.502 207.167,274.602C207.167,277.935 204.634,280.002 201.834,280.902C202.167,281.668 203,283.835 203.767,285.402C204.667,287.102 205.267,288.268 205.9,289.102C206.023,289.257 206.142,289.395 206.258,289.519ZM196.034,280.435L195.145,280.435L196.712,272.335C196.879,271.502 197.045,271.102 197.279,270.902C197.579,270.635 198.045,270.535 198.712,270.535C198.854,270.535 198.993,270.542 199.129,270.555C198.707,270.597 198.391,270.703 198.167,270.902C197.934,271.102 197.767,271.502 197.6,272.335L196.034,280.435Z" style="fill:rgb(103,79,34);fill-rule:nonzero;"/>
            </g>
            <g transform="matrix(21.884921,0,0,21.884921,-4079.06613,-4557.421013)">
                <path d="M230.633,268.997L231.567,268.768L232.334,273.435C233.034,278.002 233.9,282.468 234.6,286.802C234.988,289.127 235.192,289.751 236.624,290.068C236.463,290.099 236.288,290.126 236.095,290.151C234.257,289.854 234.053,289.348 233.629,286.802C232.929,282.468 232.062,278.002 231.362,273.435L230.633,268.997ZM223.5,283.702C222.9,284.868 222.134,286.468 221.434,287.835C220.6,289.568 220.7,289.902 223.367,290.235L223.1,291.268L222.13,291.262L222.395,290.235C221.443,290.116 220.819,289.997 220.446,289.814C219.776,289.485 219.926,288.949 220.462,287.835C221.162,286.468 221.929,284.868 222.529,283.702L223.5,283.702ZM216.387,291.141C216.713,291.181 217.069,291.212 217.458,291.233L216.439,291.227L216.387,291.141ZM224.367,282.102L223.395,282.102C224.795,279.368 226.362,276.702 227.829,273.968L227.895,273.968L228.093,275.27C226.839,277.553 225.544,279.804 224.367,282.102Z" style="fill:rgb(103,79,34);fill-rule:nonzero;"/>
            </g>
            <g transform="matrix(21.884921,0,0,21.884921,-4318.044084,-4557.421013)">
                <path d="M256.964,289.896C256.826,289.9 256.684,289.902 256.538,289.902C255.072,289.902 254.105,289.768 253.672,289.335C253.272,288.868 253.238,288.168 253.472,286.902L256.038,273.335C256.538,270.802 256.738,270.535 259.438,270.335L259.672,269.268L260.567,269.268L260.334,270.335C257.634,270.535 257.434,270.802 256.934,273.335L254.367,286.902C254.134,288.168 254.167,288.868 254.567,289.335C254.952,289.72 255.759,289.868 256.964,289.896ZM261.672,291.268C262.205,290.102 263.438,286.902 263.872,285.735L263.493,285.601C263.54,285.514 263.587,285.425 263.634,285.335L264.767,285.735C264.334,286.902 263.1,290.102 262.567,291.268L261.672,291.268Z" style="fill:rgb(103,79,34);fill-rule:nonzero;"/>
            </g>
            <path d="M632.848,1358.837C604.398,1340.599 562.816,1335.493 520.506,1335.493C562.816,1335.493 604.447,1340.523 632.848,1358.837ZM680.995,1452.213C680.995,1406.254 659.84,1376.345 632.848,1358.837C659.887,1376.272 680.995,1406.254 680.995,1452.213ZM788.037,1794.347C767.205,1791.743 753.53,1789.139 745.387,1785.141C753.6,1789.134 767.304,1791.755 788.037,1794.347ZM471.629,1402.607C475.277,1384.369 478.924,1375.615 484.031,1371.238C478.964,1375.661 475.277,1384.369 471.629,1402.607ZM484.031,1371.238C490.596,1365.402 500.809,1363.214 515.399,1363.214C500.809,1363.214 490.648,1365.462 484.031,1371.238Z" style="fill:rgb(196,159,88);"/>
            <path d="M457.039,1816.961L251.321,1816.961L256.427,1794.347C311.14,1788.511 318.435,1783.404 330.836,1721.397L387.008,1426.68C398.679,1366.861 394.302,1363.214 335.943,1358.837L341.779,1335.493L520.506,1335.493C562.816,1335.493 604.398,1340.599 632.848,1358.837C659.84,1376.345 680.995,1406.254 680.995,1452.213C680.995,1525.162 625.553,1570.391 564.275,1590.088C571.57,1606.866 589.265,1654.554 606.586,1688.57C625.689,1726.082 639.267,1751.419 653.274,1769.544C659.146,1777.142 664.741,1782.751 670.208,1787.14C670.707,1787.542 681.915,1780.129 680.538,1778.671C688.732,1768.472 695.328,1750.366 716.547,1714.102L934.666,1332.575L967.494,1324.55L984.272,1426.68C999.592,1526.621 1018.322,1624.412 1033.878,1719.209C1043.026,1774.957 1047.627,1786.016 1087.861,1792.505C1092.071,1791.966 1095.917,1791.371 1099.44,1790.686C1131.076,1784.536 1136.676,1771.087 1146.001,1725.045L1203.631,1424.492C1214.574,1369.05 1210.197,1363.214 1151.107,1358.837L1156.214,1335.493L1364.85,1335.493L1359.744,1358.837C1300.654,1363.214 1296.277,1369.05 1285.335,1424.492L1229.164,1721.397C1224.057,1749.118 1224.401,1764.781 1233.541,1774.65C1242.653,1784.491 1264.18,1787.052 1296.277,1787.052C1299.472,1787.052 1302.573,1787.016 1305.585,1786.939C1338.347,1786.104 1360.611,1780.471 1377.981,1764.437C1394.76,1749.118 1412.997,1723.586 1431.964,1687.111L1456.767,1695.865C1447.283,1721.397 1420.292,1791.429 1408.62,1816.961L902.568,1816.961L909.134,1794.347C958.74,1788.511 960.928,1779.027 955.822,1744.741C952.174,1717.02 946.338,1687.111 940.502,1651.365L790.955,1651.365C777.824,1676.898 760.668,1711.723 745.726,1741.823C733.661,1766.13 730.482,1777.894 745.387,1785.141C753.53,1789.139 767.205,1791.743 788.037,1794.347L782.236,1816.829L679.985,1816.191C671.476,1815.724 663.691,1815.062 656.538,1814.183L656.111,1814.13L657.161,1815.759L657.513,1815.782L657.678,1816.051C589.206,1811.924 568.986,1794.579 546.038,1751.306C529.26,1718.479 513.211,1679.086 499.35,1641.882C489.137,1616.349 480.383,1607.595 455.58,1607.595L432.236,1607.595L411.081,1720.668C399.409,1782.675 405.245,1788.511 461.416,1794.347L457.039,1816.961ZM462.875,1579.875C492.785,1579.875 516.858,1575.498 538.743,1562.367C573.029,1539.752 592.726,1500.359 592.726,1455.86C592.726,1397.562 563.75,1367.611 524.529,1363.664C521.542,1363.364 518.496,1363.214 515.399,1363.214C500.809,1363.214 490.596,1365.402 484.031,1371.238C478.924,1375.615 475.277,1384.369 471.629,1402.607L437.343,1579.875L462.875,1579.875ZM935.396,1616.349L908.404,1438.352L906.945,1438.352C874.848,1498.171 840.561,1556.531 809.922,1616.349L935.396,1616.349Z" style="fill:rgb(196,159,88);"/>
        </g>
        <g transform="matrix(21.884921,0,0,21.884921,-3852.84109,-4557.421013)">
            <path d="M207.694,291.237L207.679,291.268L207.246,291.268C206.834,291.261 206.454,291.248 206.102,291.227L206.094,291.214L206.078,291.213L206.03,291.139L206.05,291.141C206.376,291.181 206.732,291.212 207.121,291.233L207.694,291.237Z" style="fill:rgb(196,159,88);fill-rule:nonzero;"/>
        </g>
    </g>
</svg>
