<svg xmlns="http://www.w3.org/2000/svg" xmlns:xlink="http://www.w3.org/1999/xlink" id="Layer_1" x="0px" y="0px" viewBox="0 0 1176.6 874" style="enable-background:new 0 0 1176.6 874;" xml:space="preserve"><style type="text/css">	.st0{fill:#F2F2F2;}	.st1{fill:#D69A12;}	.st2{fill:#FBBF24;}	.st3{fill:#FFD67B;}	.st4{fill:#CACAC8;}	.st5{fill:#ADADAD;}	.st6{fill:#262626;}	.st7{fill:#1E1E1E;}	.st8{fill:#F4AC96;}	.st9{fill:none;stroke:#BE494F;stroke-linecap:round;stroke-miterlimit:10;}	.st10{fill:#DF776C;}	.st11{fill:#578EBC;}	.st12{fill:#2C2460;}	.st13{fill:none;stroke:#2C2460;stroke-linecap:round;stroke-miterlimit:10;}	.st14{fill:#BE494F;}	.st15{fill:#403A87;}	.st16{fill:#84BFEF;}	.st17{fill:#6EA0D3;}	.st18{fill:#5E9DD1;}	.st19{fill:#356E9E;}	.st20{fill:#3B9382;}	.st21{fill:#317C6D;}	.st22{fill:#4FB29F;}	.st23{fill:#67CEBB;}	.st24{fill:#96A3DA;}	.st25{fill:#149FBE;}	.st26{fill:#008B9A;}	.st27{fill:#FDC25E;}	.st28{fill:#22355D;}	.st29{fill:#2E4A79;}	.st30{fill:#DEDEDE;}	.st31{fill:#282D33;}	.st32{fill:#EA8F7A;}	.st33{fill:none;stroke:#282D33;stroke-linecap:round;stroke-miterlimit:10;}	.st34{fill:#505960;}	.st35{fill:#58110D;}	.st36{fill:none;stroke:#58110D;stroke-linecap:round;stroke-linejoin:round;stroke-miterlimit:10;}	.st37{fill:#264066;}	.st38{fill:#DDDDDD;}	.st39{fill:none;stroke:#BE494F;stroke-width:0.5;stroke-linecap:round;stroke-miterlimit:10;}	.st40{fill:#53A595;}	.st41{fill:#AFB6E0;}	.st42{fill:#716DAA;}	.st43{fill:#7E7AA5;}	.st44{fill:#ADAAD6;}	.st45{fill:#9893BC;}	.st46{fill:#F2819F;}	.st47{fill:#FFFFFF;}</style><title>connected world</title><g>	<g>		<path class="st0" d="M1139.4,711.2H63c-26.2-34.2-55.3-92-42.6-171.6c21.6-135.4,235.2-85.9,355.3-227   C495.9,171.5,690.4,18.9,902,120c211.7,101.1,12.4,337.5,177.8,417.6C1183.2,587.7,1166.5,662.3,1139.4,711.2z"></path>	</g>	<polygon class="st1" points="764.1,437.4 810.4,711.2 822.8,711.2 776.4,437.4  "></polygon>	<polygon class="st1" points="931.4,437.4 977.7,711.2 990.1,711.2 943.7,437.4  "></polygon>	<polygon class="st2" points="731.4,246.4 910.9,246.4 957.3,520.1 777.8,520.1  "></polygon>	<polygon class="st3" points="873.6,437.4 873.7,437.4 827.3,711.2 815,711.2 847.4,520.1 692.4,520.1 660.1,711.2 647.7,711.2   694.1,437.4 694.1,437.4 726.5,246.4 906,246.4  "></polygon>	<polygon class="st4" points="730.3,285.1 734.3,263.6 886.1,266 882,287.6  "></polygon>	<polygon class="st4" points="723.3,323.1 727.3,301.5 879.1,303.9 875,325.5  "></polygon>	<polygon class="st4" points="717.7,371.8 720.9,350.7 813.1,349.9 810.1,371.1  "></polygon>	<rect x="722.8" y="234.9" class="st2" width="193.2" height="11.4"></rect>	<g>		<g>			<polygon class="st5" points="935.9,473.2 904.1,687.5 873.5,687.5 879.5,466    "></polygon>			<path class="st6" d="M907.6,706.4c-0.9,2.7-3.5,4.8-6.7,4.8h-63.7c1.1-1.7,2.2-3.3,3.4-4.8c9.5-11.9,24-18.9,39.4-18.9h23.7    l4,14.8C908.1,703.7,908,705.1,907.6,706.4z"></path>			<path class="st7" d="M900.9,711.2h-63.7c1.1-1.7,2.2-3.3,3.4-4.8h67C906.6,709.2,904,711.2,900.9,711.2z"></path>		</g>		<g>			<path class="st4" d="M971.8,687.5L965.9,466l-55.4,7.1l-5.8-11.3l-26.7,8.6c0,0,4.9,11.5,14.1,14.8c5.4,2,13.8,3.5,19.8,4.4    l29.4,198L971.8,687.5L971.8,687.5z"></path>			<path class="st6" d="M937.6,706.4c0.9,2.7,3.5,4.8,6.7,4.8h63.7c-1.1-1.7-2.2-3.3-3.4-4.8c-9.5-11.9-24-18.9-39.4-18.9h-23.7    l-4,14.8C937,703.7,937.1,705.1,937.6,706.4z"></path>			<path class="st7" d="M937.6,706.4c0.9,2.7,3.5,4.8,6.7,4.8h63.7c-1.1-1.7-2.2-3.3-3.4-4.8H937.6z"></path>		</g>		<g>			<g>				<path class="st8" d="M832.5,344.9c0,0,2.9-3.7,1.9-14.9c-1.1-11.2-5.8-12.1-6.5-11.7c-0.6,0.3,0,11.7,0,11.7     s-15.5-17.6-20.6-19.9s-1.5,5.6,4.3,13c0,0-10.6-8.8-15.2-9.9c-4.6-1.1,1.7,7.6,9.9,14.1c0,0-8.7-5.9-13.6-7.5     c-4.9-1.5-0.8,5,9.1,13.2c0,0-6.3-4-9-4.4s-6.5-0.6,2.6,6.7c9.1,7.4,17.3,14,19.9,15.9C817.8,353.1,830.9,349.2,832.5,344.9z"></path>				<polygon class="st8" points="836.9,356 821.8,362.2 818.1,354.5 815.7,349.5 831.4,341.1 834.5,349.5     "></polygon>				<path class="st9" d="M820.9,342.8c0,0-0.6-6,4.2-10.6"></path>				<path class="st9" d="M821.4,329.7c0,0-4.8,7.2-13.2,8.1"></path>				<path class="st10" d="M836.9,356l-15.1,6.2l-3.7-7.7c5.1-1.6,13.4-4.2,16.4-5L836.9,356z"></path>			</g>			<path class="st11" d="M919.2,351.3l-45.9,78.8c-0.9,1.5-2.2,3.2-3.8,4.7c-6.8,6.9-18.1,7-24.5-0.4c-1-1.2-1.9-2.5-2.4-4l-20-55.5    l-6.1-17l21.3-8.7l3.2,6.8l17.8,38.1l21.8-37.3c6.6-11.5,21.4-15.5,32.9-8.8L919.2,351.3z"></path>			<g>				<path class="st10" d="M900.3,302.8c-1.1,3.5-5.9,5-10.8,3.5c-4.8-1.6-7.8-5.6-6.7-9.1s5.9-5,10.8-3.5     C898.4,295.3,901.4,299.3,900.3,302.8z"></path>				<path class="st12" d="M887.6,279.3c0,0-0.6,13.5,3,21.6c3.7,8.1,1.8-24,2.3-25.5C893.5,273.8,887.6,279.3,887.6,279.3z"></path>				<path class="st8" d="M900.7,362.6c10.6,7.9,45.3-9.7,45.3-9.7s-4.7-3.1-7.9-14c-1.2-3.9-1.5-8.4-1.4-12.4     c0.1-7,1.4-12.9,1.4-12.9s-29.6-1.5-30.1,9.7c-0.2,4.7-1,8.4-1.8,11.3c-1.1,4-2.4,6.2-2.4,6.2l-9.7,8.3     C894.1,349.2,890.1,354.7,900.7,362.6z"></path>				<path class="st10" d="M906.2,334.6c15.6,2.3,25.9-4.2,30.4-8.1c0.1-7,1.4-12.9,1.4-12.9s-29.6-1.5-30.1,9.7     C907.7,328,907,331.8,906.2,334.6z"></path>				<path class="st8" d="M890.5,296.4c0,0.4,0,0.8,0,1.3l0,0c0,0.5,0,1,0,1.4c0.6,16.9,6.2,31.3,20.8,30.6     c23.5-1.2,32.8-15.5,32.2-32.4c-0.2-5.9-2.5-11.4-6-16c-0.9-1.2-1.9-2.3-3-3.4c-6.5-6.5-15.6-10.5-23.7-10.3     c-4.2,0.1-7.7,1.4-10.5,3.5c-6.5,4.8-9.7,14.2-9.8,25C890.6,296.3,890.5,296.3,890.5,296.4z"></path>				<path class="st10" d="M890.6,296.2c0.3-4,2.5-7.6,2.5-7.6c19.4,3.8,34.8-3.2,34.8-3.2c0.1,1,3.1,4.5,5.9,6.8     c2.9,2.3,4.8,6.5,4.8,6.5s2.2-5.4,2.2-6.3c0-0.6-2-7.2-3.1-11.1c-0.9-1.2-1.9-2.3-3-3.4c-6-1.7-23.4-6.3-34.2-6.8     C893.8,276,890.7,285.4,890.6,296.2z"></path>				<path class="st12" d="M881.1,275.6c1.2,3.3,3.6,6.3,7,8c9.3,4.5,35,2.4,40.5-1.7c0,0,0.9,2.6,5.5,7.4c4.7,4.8,5.3,14.1,4.7,16.2     c-0.7,2.1,9.5,0,9.5,0s12.4-34.7-10.3-42.2c0,0,0.4-10.9-17-12.4s-24.9,7.8-31.2,8.3C881.3,259.7,878.5,268.4,881.1,275.6z"></path>				<path class="st9" d="M904.7,303.4c0,0-1.8,3.8-0.8,8.1"></path>				<path class="st13" d="M899.1,293.8c0,0-4.1-3.2-8.1,0.4"></path>				<path class="st13" d="M920,293.8c0,0-4.1-3.2-8.1,0.4"></path>				<path class="st14" d="M906.1,317.4l14.7-4.7c0,0,1.2,6.2-5.7,8.4C908.2,323.4,906.1,317.4,906.1,317.4z"></path>				<path class="st15" d="M881.1,275.6c-0.9-5.4,2.8-12.9,11.3-13.2c8.5-0.3,18.1-9.1,29.7-7.6c11.6,1.4,15.9,8.5,15.9,8.5     s0.4-10.9-17-12.4s-24.9,7.8-31.2,8.3C881.3,259.7,878.5,268.4,881.1,275.6z"></path>				<path class="st12" d="M912.9,300c0,1.3,0.5,2.3,1.1,2.3s1.1-1,1.1-2.3s-0.5-2.3-1.1-2.3S912.9,298.7,912.9,300z"></path>				<path class="st12" d="M893,300c0,1.3,0.5,2.3,1.1,2.3s1.1-1,1.1-2.3s-0.5-2.3-1.1-2.3S893,298.7,893,300z"></path>				<path class="st8" d="M935.8,310.9c1.1,3.5,5.9,5,10.8,3.5c4.8-1.6,7.8-5.6,6.7-9.1s-5.9-5-10.8-3.5     C937.7,303.3,934.7,307.4,935.8,310.9z"></path>			</g>			<polygon class="st16" points="841,356 820.7,377 816.5,358 837.9,349.2    "></polygon>			<g>				<path class="st17" d="M968.6,463.9c0,4.3-2.9,8-7,9.1c-36,9.6-67.9,2.9-80.1-0.5c-3.1-0.9-5.2-3.7-5.1-7l0.2-5.3l1.2-30.6     l2.4-61.9c0.4-10.3,7.5-20.3,17.5-23l3.4-1.5l8.1,10.9l2.8,3.7l4.7-3.4l21.5-15.6l18.7,8.5c5.1,2.3,8.4,7.3,8.6,13l1.6,50.7     l0.2,5.6L968.6,463.9z"></path>				<path class="st18" d="M968.6,463.9c0,4.3-2.9,8-7,9.1c-36,9.6-67.9,2.9-80.1-0.5c-3.1-0.9-5.2-3.7-5.1-7l0.2-5.3l1.2-30.6     c6.8,7.9,18.3,13.7,37.5,9.2c43.8-10.3,40.7-43.4,40.7-43.4s4.9,6.9,11,15.6l0.2,5.6L968.6,463.9z"></path>				<path class="st19" d="M915.2,438.9l-5.8,7.3c-1.5,1.9-4.6,1.7-5.7-0.5l-3.8-7c-1.6-2.9-2.2-6.2-1.7-9.4l8.6-64.7l3.7-0.3     l4.5,0.7l3.6,63.4C918.8,432.1,917.6,435.9,915.2,438.9z"></path>				<polygon class="st19" points="921.2,357.7 915,364.9 906.8,364.5 905,358.8 904.7,356.4 909.1,354.2 911.9,357.9 916.5,354.5          "></polygon>				<path class="st16" d="M911.9,357.9c0,0,7.2,0.6,12.7,8.3l19.1-24.8c0,0-1.8-3.7-5.8-3.1L911.9,357.9z"></path>				<path class="st16" d="M911.9,357.9c0,0-7.1-0.2-9.5,7.1l-4.8-20.7c0,0,2.2-3.6,5.1-2.2L911.9,357.9z"></path>			</g>			<g>				<g>					<path class="st8" d="M930.4,454.1l-4.1,3.9c0,0-12.8-6.4-17.5-6.1c0,0-8.9,1.9-11,6s-1.5,8.9,2.4,9.2c0,0,0.5,4,4.9,3.6      c0,0,0.4,5.2,5.6,3c0,0,0.1,3.2,3.9,3.2c3.8,0,5.9-3.2,5.9-3.2s5,2.7,11-2.4l7.4-4.9L930.4,454.1z"></path>					<path class="st9" d="M900.5,466.3c0,0,2.5-6.1,9.4-9.1"></path>					<path class="st9" d="M905.2,470c0,0,3.1-5.9,9-8.1"></path>					<path class="st9" d="M911.3,472.9c0,0,2.5-4.3,7.4-6.2"></path>					<path class="st9" d="M919.3,470.3c0,0-0.2,1.4,1.1,2.9"></path>					<path class="st9" d="M917.4,472.6c0,0,1.2,0.4,2.4-0.4"></path>				</g>				<path class="st11" d="M984.8,439.9l-33.5,21.8l-11.5,7.5l-11.9-17l4.4-3.8l27-23.8l-13.4-49.1c-1.9-8.6,0.9-25.6,9.5-27.4     c0,0,11-1.6,20.8,20.1l8.4,34.2l5.6,22.7C991.6,430.7,989.4,436.5,984.8,439.9z"></path>				<polygon class="st16" points="953.3,463.1 939.8,469.2 928,452.2 934.7,446.4     "></polygon>			</g>		</g>	</g>	<g>		<g>			<path class="st20" d="M1077.2,611.5c0,0-19.5-49.1-9.3-111.2s47.2-85.2,47.2-85.2s13,58.4-3.7,102.8c-16.7,44.5-19,93.6-19,93.6    L1077.2,611.5L1077.2,611.5z"></path>			<path class="st21" d="M1080,607.5c0,0-9-98.3,22-160.1c0,0-23.1,71-14.8,160.1H1080z"></path>			<path class="st22" d="M1087.3,616.1c0,0-2.1-69.8,24.2-98.1c26.3-28.3,55.5-31.7,55.5-31.7s-4.3,40.2-21.8,61.3    s-40.5,43.6-41.9,64L1087.3,616.1z"></path>			<path class="st22" d="M1080,616.1c0,0,2.1-69.8-24.2-98.1c-26.3-28.3-55.5-31.7-55.5-31.7s4.3,40.2,21.8,61.3    c17.5,21.1,40.5,43.6,41.9,64L1080,616.1z"></path>			<path class="st23" d="M1089,619.3c1.4-2.9-1.1-59.3,42.7-99.1c0,0-32,38.9-36.3,96L1089,619.3z"></path>			<path class="st23" d="M1077.9,619.3c-1.4-2.9,1.1-59.3-42.7-99.1c0,0,32,38.9,36.3,96L1077.9,619.3z"></path>		</g>		<path class="st2" d="M1142.3,605.6l-3,16.5l-3.8,20.8l-8.9,49c-2.3,12.8-13.5,22.1-26.5,22.1h-31.6c-13,0-24.2-9.3-26.5-22.1   l-8.9-49l-3.8-20.8l-3-16.5H1142.3z"></path>		<polygon class="st1" points="1139.3,622.1 1135.5,643 1033.2,643 1029.4,622.1   "></polygon>	</g>	<rect x="575.9" y="544.8" class="st24" width="9" height="166.4"></rect>	<g>		<g>			<polygon class="st25" points="456.7,612.3 441.9,711.2 432,711.2 447,612.3    "></polygon>			<polygon class="st25" points="449.2,606.4 439.5,606.4 435.1,577.4 433.5,566.7 443.2,566.7 444.8,577.4    "></polygon>			<polygon class="st25" points="494.2,606.4 484.5,606.4 480.1,577.4 478.5,566.7 488.2,566.7 489.8,577.4    "></polygon>			<polygon class="st26" points="485.6,612.3 470.9,711.2 460.9,711.2 476,612.3    "></polygon>			<polygon class="st26" points="548.3,612.3 563.1,711.2 573.1,711.2 558,612.3    "></polygon>			<polygon class="st25" points="507,612.3 521.8,711.2 531.8,711.2 516.7,612.3    "></polygon>			<polygon class="st26" points="443.2,566.7 444.8,577.4 435.1,577.4 433.5,566.7    "></polygon>			<polygon class="st27" points="489.8,577.4 480.1,577.4 478.5,566.7 488.2,566.7    "></polygon>			<polygon class="st26" points="479.5,504.9 412,504.9 422.9,568.2 490.5,568.2    "></polygon>			<polygon class="st25" points="487.1,504.9 419.5,504.9 430.4,568.2 498,568.2    "></polygon>			<path class="st25" d="M564,616.2H432.6c-4,0-7.2-3.2-7.2-7.2l0,0c0-4,3.2-7.2,7.2-7.2H564c4,0,7.2,3.2,7.2,7.2l0,0    C571.3,612.9,568,616.2,564,616.2z"></path>		</g>		<g>			<g>				<g>					<g>						<g>							<path class="st5" d="M660.2,711.2h-53c-0.1-1.1-0.2-2.1-0.2-3c-0.2-9.7,3.2-13.3,3.2-13.3l20.2-2.5        c17.3,1.7,25.3,11,28.3,15.8C659.8,710,660.2,711.2,660.2,711.2z"></path>						</g>						<g>							<path class="st4" d="M660.2,711.2h-53c-0.1-1.1-0.2-2.1-0.2-3h51.6C659.8,710,660.2,711.2,660.2,711.2z"></path>						</g>						<g>							<path class="st4" d="M632.9,698c-0.3,0-0.5-0.1-0.7-0.3c-0.5-0.4-0.6-1.2-0.2-1.7c0.1-0.1,2.6-3.2,7.5-4.3        c0.6-0.1,1.3,0.3,1.4,0.9c0.1,0.6-0.3,1.3-0.9,1.4c-4.1,0.9-6.2,3.4-6.2,3.5C633.6,697.8,633.2,698,632.9,698z"></path>						</g>						<g>							<path class="st4" d="M637.2,700.5c-0.3,0-0.5-0.1-0.8-0.3c-0.5-0.4-0.6-1.2-0.1-1.7c0.1-0.1,2.7-3.1,7.7-4        c0.6-0.1,1.3,0.3,1.4,0.9c0.1,0.6-0.3,1.3-0.9,1.4c-4.1,0.8-6.3,3.2-6.3,3.3C637.9,700.3,637.5,700.5,637.2,700.5z"></path>						</g>						<g>							<path class="st4" d="M641.3,702.7c-0.3,0-0.6-0.1-0.8-0.3c-0.5-0.4-0.5-1.2-0.1-1.7c0.1-0.1,2.7-3,7.7-3.9        c0.7-0.1,1.3,0.3,1.4,1c0.1,0.6-0.3,1.3-1,1.4c-4.1,0.7-6.4,3.1-6.4,3.1C641.9,702.6,641.6,702.7,641.3,702.7z"></path>						</g>					</g>					<path class="st28" d="M538.6,539.5c0,0,50.9,8.2,80,23.2c0,0,12.2,46.7,16.5,129.3l-27.4,6.2l-20.9-94.1l-53-16.8l-16.5-8.6      L538.6,539.5z"></path>				</g>				<g>					<g>						<g>							<path class="st5" d="M572.4,720.1l-48.6-21.2c0.3-1,0.7-1.9,1-2.8c3.7-9,8.2-10.9,8.2-10.9l19.5,5.7        c15.2,8.4,18.8,20.2,19.6,25.8C572.4,718.8,572.4,720.1,572.4,720.1z"></path>						</g>						<g>							<path class="st4" d="M572.4,720.1l-48.6-21.2c0.3-1,0.7-1.9,1-2.8l47.3,20.7C572.4,718.8,572.4,720.1,572.4,720.1z"></path>						</g>						<g>							<path class="st4" d="M552.6,697.1c-0.2-0.1-0.4-0.3-0.6-0.5c-0.3-0.6-0.1-1.3,0.5-1.6c0.1-0.1,3.6-1.9,8.6-0.9        c0.6,0.1,1.1,0.7,0.9,1.4c-0.1,0.6-0.7,1.1-1.4,0.9c-4.1-0.8-7,0.7-7.1,0.7C553.3,697.2,552.9,697.2,552.6,697.1z"></path>						</g>						<g>							<path class="st4" d="M555.6,701.1c-0.3-0.1-0.5-0.3-0.6-0.6c-0.3-0.6,0-1.3,0.5-1.6c0.1-0.1,3.7-1.8,8.6-0.6        c0.6,0.1,1,0.8,0.9,1.4c-0.1,0.6-0.8,1-1.4,0.9c-4.1-0.9-7.1,0.5-7.1,0.5C556.3,701.2,555.9,701.2,555.6,701.1z"></path>						</g>						<g>							<path class="st4" d="M558.4,704.8c-0.3-0.1-0.5-0.3-0.6-0.6c-0.3-0.6,0-1.3,0.6-1.6c0.2-0.1,3.7-1.7,8.6-0.5        c0.6,0.2,1,0.8,0.9,1.4c-0.2,0.6-0.8,1-1.4,0.9c-4.1-1-7.1,0.3-7.1,0.3C559,704.9,558.7,704.9,558.4,704.8z"></path>						</g>					</g>					<path class="st29" d="M538.9,537.7l-3.7,21.8c0,0,50.1,6.7,59.7,19.2c9.6,12.5-34.1,116.2-34.1,116.2l-33.1-10.2l24.3-81      c0,0-21.5-0.9-37.2-0.2c-15.7,0.6-45.1,0.6-51.3-16.7c-6.2-17.3,5.3-50.9,5.3-50.9L538.9,537.7z"></path>				</g>			</g>			<g>				<g>					<path class="st10" d="M578.9,527.6L576,538h-13l-7-31l-1.8-8l20.3-7.4l1.3,4l2.6,8.2C580.9,511.5,581.1,519.7,578.9,527.6z"></path>					<polygon class="st10" points="575.9,495.6 556,507 554.3,499 574.6,491.6      "></polygon>					<path class="st5" d="M553.2,441.6c0,0,12.2,6.3,17.2,23.3s9,27.2,9,27.2l-29.4,8.7c0,0,2.7-53.6,2.7-55      C552.6,444.3,553.2,441.6,553.2,441.6z"></path>				</g>				<g>					<path class="st4" d="M557.7,479.9l-15.9,63.3h-78.3c0,0,15.2-80.8,23.2-89.6c4.7-5.2,12.7-9.5,21.3-12.3c6-2,12.4-3.3,18.1-3.6      c2.8-0.2,5.5-0.1,8.1,0c10.6,0.8,19,4,19,4C566.9,447.2,557.7,479.9,557.7,479.9z"></path>					<path class="st30" d="M548.9,456.3c-0.2,6.4-5.5,11.7-18.8,6.5c-13.6-5.3-19.5-13.5-22.1-21.6c6-1.9,12.4-3.2,18.1-3.6      c2.8-0.2,5.5-0.1,8.1,0c5,1.4,9.3,3.5,11.2,6.3C545.4,444,549.1,449.9,548.9,456.3z"></path>				</g>				<g>					<path class="st10" d="M553.3,408c1.1,3.5,5.9,5,10.8,3.5c4.8-1.6,7.8-5.6,6.7-9.1s-5.9-5-10.8-3.5      C555.2,400.4,552.2,404.5,553.3,408z"></path>					<path class="st31" d="M563,382.4c0,0,3.5,14.9-0.1,22.8c-3.5,7.8-7.2-13.9-7.1-14c0.1,0,0.9-8.3,1.3-7.9      C557.5,383.6,563,382.4,563,382.4z"></path>					<path class="st32" d="M546,431.9c-0.7,4.6-0.8,8.4-0.6,11.4c0.3,4.2-0.2,12.1-0.2,12.1s-1.1,5.9-7.8,5.5      c-10.1-0.5-20.7-11.9-25.2-17.3c0.1-0.1,0.1-0.2,0.2-0.3c2-3.6,4.2-10.3,5-14.3c1.3-6.9,1.2-12.9,1.2-12.9      S547.8,420.8,546,431.9z"></path>					<path class="st10" d="M545.4,443.3c-15.8-0.9-24.4-9.5-28-14.2c1.3-6.9,1.2-12.9,1.2-12.9s29.2,4.6,27.4,15.7      C545.2,436.5,545.2,440.3,545.4,443.3z"></path>					<path class="st32" d="M563,401.6c0,0.4,0,0.8,0,1.3l0,0c0,0.5,0,1,0,1.4c-0.6,16.9-6.2,31.3-20.8,30.5      c-23.5-1.2-32.8-15.5-32.2-32.4c0.2-5.9,2.5-11.4,6-16c0.9-1.2,1.9-2.3,3-3.4c6.5-6.5,15.6-10.5,23.7-10.3      c4.2,0.1,7.7,1.4,10.5,3.5c2.4,1.8,4.3,4.1,5.8,7c2.1,4,3.4,8.8,3.8,14.2c0.1,1.3,0.2,2.6,0.2,3.9      C563,401.4,563,401.5,563,401.6z"></path>					<path class="st9" d="M548.9,408.6c0,0,1.8,3.8,0.8,8.1"></path>					<path class="st33" d="M542.5,398.1c0,0-3.7-3-8.1,0.7"></path>					<path class="st33" d="M562.1,398.1c0,0-3.7-3-8.1,0.7"></path>					<path class="st31" d="M561.4,404.1c0,1.1-0.7,2.1-1.5,2.1s-1.5-0.9-1.5-2.1c0-1.1,0.7-2.1,1.5-2.1      C560.7,402.1,561.4,403,561.4,404.1z"></path>					<path class="st31" d="M541.4,403.8c0,1.1-0.7,2.1-1.5,2.1s-1.5-0.9-1.5-2.1c0-1.1,0.7-2.1,1.5-2.1      C540.7,401.8,541.4,402.7,541.4,403.8z"></path>					<path class="st9" d="M535.2,418.1c0,0,3.6,5.4,11.6,5.5"></path>					<path class="st10" d="M562.8,397.5c-0.6-2.5-2.6-5.7-2.6-5.7c-16.1,5-36.5,3.5-36.5,3.5c-1.7,5.8-6.6,10.6-6.6,10.6l-4.1-3.8      l7.4-14.7c0,0,25-6.2,27.5-6.2c2.1,0,7,0.1,11.2,2.2C561.1,387.3,562.4,392.1,562.8,397.5z"></path>					<path class="st31" d="M563.6,385.1c-0.5,0.5-1,1-1.5,1.4c-9,7.4-42.2,5.8-42.2,5.8c-0.2,16.3-7.3,17.4-7.3,17.4s-2.2,1.2-7.2,0      s-10.3-21.6-8.9-26.8c1.4-5.2,9.4-4.9,7.7-10.2c-1.7-5.2,4.3-9.2,11.3-8.7c3.4,0.2,5.3-0.2,7-1.3l0,0c0.2-0.1,0.5-0.3,0.7-0.5      c0,0,0.1,0,0.1-0.1c0.2-0.1,0.3-0.2,0.5-0.4c1.3-1.1,2.7-2.4,4.9-4.1c5.7-4.4,13,1.8,20.3,1.1c7.3-0.7,9.2-2.9,14.2,2.4      C567.6,366.2,570.7,377.6,563.6,385.1z"></path>					<path class="st32" d="M517.7,416c-1.1,3.5-5.9,5-10.8,3.5c-4.8-1.6-7.8-5.6-6.7-9.1c1.1-3.5,5.9-5,10.8-3.5      C515.9,408.5,518.9,412.6,517.7,416z"></path>					<path class="st34" d="M563.6,385.1c5-13.1-3-24.7-9.1-23.3c-6.1,1.4-13.1,0.5-18-1.9c-4.5-2.2-10-0.1-12.9,2      c1.3-1.1,2.7-2.4,4.9-4.1c5.7-4.4,13,1.8,20.3,1.1c7.3-0.7,9.2-2.9,14.2,2.4C567.6,366.2,570.7,377.6,563.6,385.1z"></path>				</g>				<g>					<polygon class="st10" points="580,512.5 526.3,522.5 526.3,538 566.2,538      "></polygon>					<path class="st10" d="M503.7,531.2c0,0-3.5,5.2-5.5,6.9c-2,1.6-3-1.4-2.6-3c0,0-1.2,2.3-2.9,2.4c-1.7,0.2-1.8-3.5-1.4-5      c0,0-2.1,2.9-3.7,3c-1.6,0,0.1-7.1,2.8-10.7c2.8-3.6,5.7-4.4,5.7-4.4s-3.8-0.1-6.2,2.5c-2.4,2.6-3.2,4.6-5.2,4.7      c-1.9,0.1,0-3.8,0.5-5.1s3.1-5.1,10.3-7.2c7.2-2.1,23.5,8.1,23.5,8.1l12.8-1.3l-3.1,16.1h-13.8      C515.1,538,508.5,535.9,503.7,531.2z"></path>				</g>				<g>					<g>						<path class="st32" d="M578.9,523.3l-2.2,14.7h-65.9c-5.5,0-10.4-3.6-12-8.8l-2.9-9.1l-5-15.7l21.9-8.9l5,12.2l2.7,6.6       L578.9,523.3z"></path>						<path class="st10" d="M517.8,507.7c-4.9,2.7-15.3,8.7-21.9,12.5l-5-15.7l21.9-8.9L517.8,507.7z"></path>						<path class="st5" d="M484.7,512.5c0.1,0.8,36.3-8.6,36.3-8.6s-8.5-32.2-15.2-44.6c-6.7-12.5-16.9-8.9-18.5-7       S476.8,461.1,484.7,512.5z"></path>					</g>					<g>						<path class="st32" d="M592.9,531.2c0,0,3.5,5.2,5.5,6.9c2,1.6,3-1.4,2.6-3c0,0,1.2,2.3,2.9,2.4c1.7,0.2,1.8-3.5,1.4-5       c0,0,2.1,2.9,3.7,3c1.6,0-0.1-7.1-2.8-10.7c-2.8-3.6-5.7-4.4-5.7-4.4s3.8-0.1,6.2,2.5s3.2,4.6,5.2,4.7c1.9,0.1,0-3.8-0.5-5.1       s-3.1-5.1-10.3-7.2c-7.2-2.1-23.5,8.1-23.5,8.1l-12.8-1.3l3.1,16.1h13.8C581.5,538,588.1,535.9,592.9,531.2z"></path>						<path class="st9" d="M600.1,533.2c0,0-1.5-3.3-4.7-5.8"></path>						<path class="st9" d="M604.9,531.1c0,0-2.2-4.9-5.4-7.3"></path>					</g>				</g>			</g>		</g>	</g>	<g>		<polygon class="st25" points="259.2,612.3 244.4,711.2 234.5,711.2 249.5,612.3   "></polygon>		<polygon class="st25" points="251.7,606.4 242,606.4 237.6,577.4 236,566.7 245.7,566.7 247.3,577.4   "></polygon>		<polygon class="st25" points="296.7,606.4 287,606.4 282.6,577.4 281,566.7 290.7,566.7 292.3,577.4   "></polygon>		<polygon class="st26" points="288.1,612.3 273.3,711.2 263.4,711.2 278.5,612.3   "></polygon>		<polygon class="st26" points="350.8,612.3 365.6,711.2 375.6,711.2 360.5,612.3   "></polygon>		<polygon class="st25" points="309.5,612.3 324.3,711.2 334.3,711.2 319.2,612.3   "></polygon>		<polygon class="st26" points="245.7,566.7 247.3,577.4 237.6,577.4 236,566.7   "></polygon>		<polygon class="st27" points="292.3,577.4 282.6,577.4 281,566.7 290.7,566.7   "></polygon>		<polygon class="st26" points="282,504.9 214.5,504.9 225.4,568.2 293,568.2   "></polygon>		<polygon class="st25" points="289.6,504.9 222,504.9 232.9,568.2 300.5,568.2   "></polygon>		<path class="st25" d="M366.5,616.2H235.1c-4,0-7.2-3.2-7.2-7.2l0,0c0-4,3.2-7.2,7.2-7.2h131.5c4,0,7.2,3.2,7.2,7.2l0,0   C373.8,612.9,370.5,616.2,366.5,616.2z"></path>	</g>	<g>		<path class="st31" d="M300.8,366.6l-4.6-2.2c0,0-13.8-0.6-17,16.1c-3,15.6-2.4,33.6,0.8,45.8c1.6,6.1,7,10.3,13.3,10.3h42.3   c2.8,0,3-3.5,2.6-6.3c-1.2-8.8,7.1-24.5-0.7-47.4c-0.6-1.8-1.1-1.5-1.1-1.5L300.8,366.6z"></path>		<path class="st8" d="M318.8,461.7c8.1-4.4,9.4-14.8,9.4-14.8l-1.7-5.2c0,0-0.2-0.3-0.5-0.8c-1.1-2.1-4-8.5-3-18.4   c1.2-12.3-20-3.9-20-3.9s-0.9,5.5-1.9,11.2c-0.8,4.3-1.7,8.8-2.5,11C296.9,446,310.7,466.2,318.8,461.7z"></path>		<path class="st10" d="M301.1,429.8c3.7,4.6,11.5,11.5,24.9,11.2c-1.1-2.1-4-8.5-3-18.4c1.2-12.3-20-3.9-20-3.9   S302.2,424.1,301.1,429.8z"></path>		<path class="st10" d="M345.5,403.8c0.3,3.2-3,6.2-7.5,6.7s-8.3-1.8-8.6-5.1c-0.3-3.2,3-6.2,7.5-6.7   C341.3,398.2,345.2,400.5,345.5,403.8z"></path>		<path class="st8" d="M320.8,432.7c6.7-0.5,14.8-9.7,17.3-23c0.4-2.2,0.7-4.3,0.8-6.4l0,0c0.2-3.5-0.1-6.7-0.7-9.6   c-1.2-5.6-3.9-9.6-7.6-10.4c-17.3-3.8-27.9-1.7-34.1,3.4c-4.4,3.6-6.7,8.7-7.7,14.1C286.4,414.3,303.5,434,320.8,432.7z"></path>		<path class="st10" d="M293.4,403.3c1.5-8.5,14-11,26.1-11.2c12.1-0.3,15-2,15-2c1.4,0.8,2.6,2.2,3.6,3.6   c-1.2-5.6-3.9-9.6-7.6-10.4c-17.3-3.8-27.9-1.7-34.1,3.4C291.3,396.6,292.4,409.1,293.4,403.3z"></path>		<path class="st35" d="M291.8,411.8l0.1,0.1C291.9,411.9,291.8,412.1,291.8,411.8z"></path>		<path class="st31" d="M332.2,387.5L332.2,387.5c-1,0.3-2.1,0.5-3.3,0.6c-19,1.6-32.5,2.5-35.2,14c-1.7,7.3-1.9,9.3-1.9,9.8   l-7.9-3.9c0,0-5.3-9-3-27.4s15.3-16.1,15.3-16.1l0,0c0.5-0.3,10.3-5.7,26.6-2.8C338.5,364.4,346.9,383.7,332.2,387.5z"></path>		<path class="st8" d="M280.3,409.7c-0.3,3.2,3,6.2,7.5,6.7c4.4,0.4,8.3-1.8,8.6-5.1c0.3-3.2-3-6.2-7.5-6.7   C284.5,404.2,280.6,406.4,280.3,409.7z"></path>		<path class="st9" d="M322.7,408.4c0,0,1.8,3.8,0.8,8.1"></path>		<path class="st36" d="M328.3,398.7c0,0,4.1-3.2,8.1,0.4"></path>		<path class="st36" d="M307.4,398.7c0,0,4.1-3.2,8.1,0.4"></path>		<path class="st31" d="M314.5,404.9c0,1.3-0.5,2.3-1.1,2.3s-1.1-1-1.1-2.3s0.5-2.3,1.1-2.3C314,402.7,314.5,403.7,314.5,404.9z"></path>		<path class="st31" d="M334.4,404.9c0,1.3-0.5,2.3-1.1,2.3s-1.1-1-1.1-2.3s0.5-2.3,1.1-2.3C333.9,402.7,334.4,403.7,334.4,404.9z"></path>		<path class="st9" d="M314,421.1c2.1,1.1,5.5,2.2,10,1.4"></path>		<path class="st34" d="M332.2,387.5c0.6-0.3,7.7-3.8,0.1-15.8c-7.9-12.6-36.2-7.2-36.2-7.2l0,0c0.5-0.3,10.3-5.7,26.6-2.8   C338.5,364.4,346.9,383.7,332.2,387.5z"></path>	</g>	<g>		<path class="st10" d="M361.8,583.7l17.2,2.7l13.1,106.9l18.2-1.5l-8-123.7c-0.2-5.3-3.8-9.8-8.9-11.2l-20.7-7.7L361.8,583.7z"></path>		<path class="st10" d="M409.8,688l0.5,4.3c0,0,27.9,4.8,28.8,18.8h-33.4l-3.7-2.5l-1.2,2.5h-11.6c0,0-0.2-9.9,3.2-14.9l-0.5-4.1   L409.8,688z"></path>		<path class="st37" d="M439.1,711.2h-33.4l-3.7-2.5l-1.2,2.5h-11.6c0,0-0.2-6.2,1.5-11.3c2,1.1,8.5,3.8,21.2,3   c10.8-0.6,14.6-3.2,15.9-4.8C433.7,701.1,438.7,705.3,439.1,711.2z"></path>	</g>	<g>		<path class="st8" d="M350.9,603.8h3.9l6,89.9l18.2-1.4l10.2-107.9c0.2-5.7-3.8-10.7-9.4-11.8l-22.1-4.5L350.9,603.8z"></path>		<path class="st8" d="M407.8,711.2h-33.4l-3.7-2.5l-1.2,2.5h-11.6c0,0-0.2-6.2,1.5-11.3c0.4-1.3,1-2.5,1.6-3.5l-0.3-4.2l18.7-4.3   l-0.4,4.5c0,0,9.5,1.6,17.6,5.8C402.3,701.1,407.4,705.3,407.8,711.2z"></path>		<path class="st29" d="M407.8,711.2h-33.4l-3.7-2.5l-1.2,2.5h-11.6c0,0-0.2-6.2,1.5-11.3c2,1.1,8.5,3.8,21.2,3   c10.8-0.6,14.6-3.2,15.9-4.8C402.3,701.1,407.4,705.3,407.8,711.2z"></path>	</g>	<g>		<path class="st38" d="M340.2,450.3c0,0,5.9,3.9,10.3,17.6s10.3,26,12.5,27.2s29.1-26.8,29.1-26.8l8,13.9c0,0-14,20.4-25.3,32.2   c-11.3,11.8-14.7,10.8-17.9,9.6c-3.2-1.2-20.4-29.7-20.4-29.7v-44.1h3.7L340.2,450.3L340.2,450.3z"></path>		<path class="st8" d="M392.4,469.9c-0.8-1.3-1-2.8-0.7-4.2c1-4.1,3.1-12.6,5.1-17.1c2.7-6.1,4.1-6.4,4.8-6.3   c0.7,0.1,2.3,1.2-2.6,13c0,0,3.5-3.4,5.2,0.6c0,0,3.3-0.7,4.1,3.1c0,0,3.9,2.4,3,7.1s-3.9,2.1-3.9,2.1s1.5,5.4-3.2,8.6   s-5.7,3.1-5.7,3.1L392.4,469.9z"></path>		<path class="st39" d="M393.3,466.4c0,0,5.4-7.4,7.3-8.5s2.3,0.6,0.9,3.5c-1.4,3-1.5,4.1-1.5,4.1s2.6,5.2-1.2,9"></path>		<path class="st39" d="M404.9,456.8c0,0,0.2,6.7-1.8,8.7c-2,2.1-2.7-0.5-2.6-1.5"></path>		<path class="st39" d="M408.4,459.4c0,0-0.1,5.6-1.9,7c-1.9,1.4-3.1-0.5-3-1.5"></path>	</g>	<g>		<g>			<path class="st40" d="M339.8,468.1c-1.2-17.9,1-18.8,0-18.8c-0.1-0.4-3.2-2.9-3.4-3c-2.3-2.1-6.5-4-6.5-4    c-1.4,7-11.3,13.5-11.3,13.5c-9.4-2.3-20.1-16.7-20.1-16.7s-19.5,3.5-24.5,8.5c-4.9,5-5.4,83.8,11.2,89.7s54.7,1,54.7,1    c0-8.6-6.8-14-6.6-23.8c0-0.3,1.1-8.9,1.1-9.2C341.5,502.3,341.1,486.1,339.8,468.1z"></path>		</g>		<path class="st40" d="M274.7,514.4c0,0-1.6,18.5-5.4,27.8s-11.9,51.5,11.6,58.2c23.5,6.6,74.5,4.2,74.5,4.2s1.4,80.5,2.8,94.9   c0,0,37.1-8.5,53.8-12.9c1.5-0.4-3.8-92.5-5.9-117.6c-0.4-5.2-3.9-9.6-8.8-11.2L340.4,539l-6.5-21.1L274.7,514.4z"></path>		<path class="st38" d="M324,435.8c0,0-8.6,31.9-24.1,41.8h13.5c0,0,12.3-11.2,16.6-35.4L324,435.8z"></path>		<path class="st38" d="M300.3,433.8l-5.9,6.6c0,0,10.5,17.2,18.5,24.4l4.4-10.1C317.3,454.6,307.1,443.6,300.3,433.8z"></path>	</g>	<g>		<path class="st38" d="M307.7,538L307.7,538c-0.3,0-0.6,0-1,0l-10.9-0.8c-7.2-0.6-15.1-1.5-17.1-1.7c-3.3-0.5-24.2-3-25.6-7.2   c-1.4-4.1,0.6-22.6,5.3-42.8c4.6-20.2,11.3-32.8,14.2-36c2.9-3.2,10-3.5,14.5,7.5s-2,28.8-5.8,36.6c-3.8,7.8-6.5,22.5-6.5,22.5   l27.4,9l2.9,0.4L307.7,538z"></path>		<path class="st8" d="M337.9,528.4c-1.8-0.1-2.5-1.9-4.7-4.3c-2.2-2.4-5.6-2.3-5.6-2.3s2.7,0.7,5.2,4s4.1,9.8,2.6,9.8   s-3.4-2.7-3.4-2.7c0.4,1.4,0.3,4.7-1.3,4.5c-1.6-0.2-2.7-2.2-2.7-2.2c0.4,1.5-0.5,4.2-2.3,2.8c-1.8-1.5-5-6.3-5-6.3   c-4.3,4.2-10.4,6.2-10.4,6.2h-2.7l-9.9-0.7l1.9-6c0.8-2.6,2.8-4.8,5.3-6l1.6-0.7h0.1c0,0,14.8-9.3,21.4-7.4c6.6,2,8.9,5.4,9.4,6.6   C338,525,339.7,528.5,337.9,528.4z"></path>		<path class="st39" d="M327.5,533.5c0,0-1.5-3.3-4.7-5.8"></path>		<path class="st39" d="M332.2,531.4c0,0-2.2-4.9-5.4-7.3"></path>	</g>	<g>		<g>			<rect x="677.4" y="544.8" class="st41" width="9" height="166.4"></rect>			<rect x="191.3" y="544.8" class="st24" width="9" height="166.4"></rect>			<rect x="317.3" y="537" class="st41" width="402.3" height="12.3"></rect>			<rect x="180" y="537" class="st24" width="137.3" height="12.3"></rect>			<rect x="292.9" y="544.8" class="st24" width="9" height="166.4"></rect>		</g>		<g>			<rect x="349" y="532.3" class="st42" width="105.3" height="4.9"></rect>			<rect x="383.5" y="532.3" class="st43" width="70.8" height="4.9"></rect>			<polygon class="st44" points="468,489.6 458.2,531.4 454.5,531.4 383.5,532.3 394,486.4 464.8,486.4    "></polygon>			<polygon class="st45" points="468,489.6 397.2,489.6 387.5,532.3 458.2,532.3    "></polygon>			<path class="st44" d="M436,510.9c0,3.2-2.6,5.7-5.7,5.7c-3.2,0-5.7-2.6-5.7-5.7c0-3.2,2.6-5.7,5.7-5.7    C433.4,505.2,436,507.8,436,510.9z"></path>		</g>	</g>	<g>		<g>			<path class="st46" d="M444.9,317.1v17.3c0,9.7-7.9,17.6-17.6,17.6h-34.7c-9.7,5.7-25.6,15-26.6,16c-0.9,0.9,3.4-8.5,6.7-16.2    c-8.2-1.5-14.4-8.7-14.4-17.4v-17.3c0-9.7,7.9-17.6,17.6-17.6h51.3C437,299.5,444.9,307.4,444.9,317.1z"></path>			<rect x="397.3" y="320" class="st47" width="10.4" height="10.4"></rect>			<rect x="418.2" y="320" class="st47" width="10.4" height="10.4"></rect>			<rect x="376.4" y="320" class="st47" width="10.4" height="10.4"></rect>		</g>		<g>			<path class="st4" d="M658.7,317.1v17.3c0,9.7-7.9,17.6-17.6,17.6h-34.7c-9.6,5.6-25.5,14.9-26.5,15.9c-0.9,0.9,3.4-8.5,6.7-16.2    c-8.2-1.5-14.4-8.7-14.4-17.4V317c0-9.7,7.9-17.6,17.6-17.6H641C650.8,299.5,658.7,307.4,658.7,317.1z"></path>			<g>				<rect x="611.1" y="320" class="st47" width="10.4" height="10.4"></rect>				<rect x="632" y="320" class="st47" width="10.4" height="10.4"></rect>				<rect x="590.3" y="320" class="st47" width="10.4" height="10.4"></rect>			</g>		</g>	</g></g></svg>