<svg xmlns="http://www.w3.org/2000/svg" xmlns:xlink="http://www.w3.org/1999/xlink" id="Layer_1" x="0px" y="0px" viewBox="0 0 1176.6 874" style="enable-background:new 0 0 1176.6 874;" xml:space="preserve"><style type="text/css">	.st0{display:none;fill:#F2F2F2;}	.st1{fill:#9BC1F9;}	.st2{fill:#FBBF24;}	.st3{fill:#337166;}	.st4{fill:#DD513A;}	.st5{fill:#F47458;}	.st6{fill:#ADAEB5;}	.st7{fill:#F7CC7F;}	.st8{fill:#544C60;}	.st9{opacity:0.3;fill:#EAB054;}	.st10{fill:#FFFFFF;}	.st11{fill:#C1C1C1;}	.st12{fill:#13375B;}	.st13{opacity:0.2;fill:#3CB4C5;}	.st14{fill:#757575;}	.st15{opacity:0.6;fill:#CAE1F9;}	.st16{fill:#466EB6;}	.st17{fill:#07345A;}	.st18{fill:#3C8F7C;}	.st19{fill:#F48C7F;}	.st20{fill:#F7A491;}	.st21{fill:#86B1F2;}	.st22{fill:#B75742;}	.st23{fill:#232323;}	.st24{fill:#F27A6A;}	.st25{fill:#4F4F4F;}	.st26{fill:#96D9C9;}	.st27{fill:#93C020;}	.st28{fill:#FEFEFE;}</style><title>connected world</title><path class="st0" d="M1084,212.4C950.5,26.6,668.4-48.8,390.9,32.4C244.3,75.4,102.8,161.3,32.7,327.9 c-125.3,297.7,137.8,392.7,309.8,423c83.2,14.7,161.5,39.3,233.1,72.8c128.8,60.3,356.7,113.7,528.6-137.4 C1228.8,504.3,1173,336.2,1084,212.4L1084,212.4z"></path><g>	<g>		<path class="st1" d="M516.5,519.3l0-1.1c2.8,0,5.6-0.1,8.3-0.4l0.1,1.1C522.2,519.2,519.3,519.3,516.5,519.3z M508.1,518.9   c-2.8-0.3-5.6-0.6-8.4-1.2l0.2-1.1c2.7,0.5,5.5,0.9,8.3,1.1L508.1,518.9z M533.3,517.8l-0.2-1.1c2.7-0.5,5.5-1.2,8.1-1.9l0.3,1   C538.9,516.6,536.1,517.3,533.3,517.8z M491.5,515.9c-2.7-0.8-5.4-1.7-8-2.7l0.4-1c2.6,1,5.3,1.9,7.9,2.6L491.5,515.9z    M549.6,513.1l-0.4-1c2.6-1,5.2-2.1,7.6-3.4l0.5,1C554.8,511,552.2,512.1,549.6,513.1z M475.7,509.8c-2.5-1.3-5-2.6-7.4-4.1   l0.6-0.9c2.4,1.5,4.8,2.8,7.3,4.1L475.7,509.8z M564.7,505.6l-0.6-0.9c2.4-1.5,4.7-3.1,6.9-4.7l0.7,0.9   C569.4,502.5,567.1,504.1,564.7,505.6z M461.4,500.9c-2.2-1.7-4.4-3.5-6.5-5.4l0.7-0.8c2.1,1.9,4.2,3.7,6.4,5.3L461.4,500.9z    M578.2,495.4l-0.7-0.8c2.1-1.9,4-3.9,5.9-5.9l0.8,0.7C582.3,491.5,580.2,493.5,578.2,495.4z M448.9,489.5   c-1.9-2.1-3.7-4.3-5.4-6.5l0.9-0.7c1.7,2.2,3.5,4.4,5.3,6.4L448.9,489.5z M589.5,482.9l-0.9-0.7c1.7-2.2,3.3-4.5,4.7-6.9l0.9,0.6   C592.9,478.3,591.2,480.7,589.5,482.9z M438.7,476c-1.5-2.4-2.9-4.9-4.1-7.4l1-0.5c1.2,2.5,2.6,4.9,4.1,7.3L438.7,476z    M598.5,468.6l-1-0.5c1.2-2.5,2.4-5.1,3.4-7.6l1,0.4C600.9,463.5,599.7,466.1,598.5,468.6z M431.1,460.9c-1-2.6-1.9-5.3-2.7-8   l1-0.3c0.8,2.7,1.7,5.3,2.7,7.9L431.1,460.9z M604.6,452.8l-1-0.3c0.8-2.7,1.4-5.4,1.9-8.1l1.1,0.2   C606,447.3,605.3,450.1,604.6,452.8z M426.5,444.7c-0.5-2.8-0.9-5.6-1.2-8.4l1.1-0.1c0.3,2.8,0.6,5.6,1.2,8.3L426.5,444.7z    M607.6,436.2l-1.1-0.1c0.3-2.8,0.4-5.6,0.4-8.3l0-0.2l1.1,0l0,0.2C608,430.6,607.9,433.4,607.6,436.2z M426,427.9h-1.1v-0.1   c0-2.8,0.1-5.6,0.4-8.3l1.1,0.1c-0.2,2.7-0.4,5.5-0.4,8.2V427.9z M606.5,419.2c-0.3-2.8-0.7-5.5-1.2-8.3l1.1-0.2   c0.5,2.8,0.9,5.6,1.2,8.4L606.5,419.2z M427.5,411.3l-1.1-0.2c0.5-2.8,1.2-5.5,1.9-8.2l1,0.3C428.6,405.8,428,408.5,427.5,411.3z    M603.5,402.8c-0.8-2.7-1.7-5.3-2.7-7.9l1-0.4c1,2.6,1.9,5.3,2.7,8L603.5,402.8z M432,395.2l-1-0.4c1-2.6,2.2-5.2,3.4-7.7l1,0.5   C434.2,390,433,392.6,432,395.2z M597.4,387.3c-1.2-2.5-2.6-4.9-4.1-7.3l0.9-0.6c1.5,2.4,2.9,4.9,4.1,7.4L597.4,387.3z    M439.5,380.2l-0.9-0.6c1.5-2.4,3.1-4.7,4.8-7l0.9,0.6C442.5,375.6,440.9,377.9,439.5,380.2z M588.6,373.1   c-1.7-2.2-3.5-4.4-5.4-6.4l0.8-0.7c1.9,2.1,3.7,4.3,5.4,6.5L588.6,373.1z M449.5,366.9l-0.8-0.7c1.9-2.1,3.9-4.1,6-6l0.7,0.8   C453.4,362.9,451.4,364.9,449.5,366.9z M577.3,360.8c-2.1-1.9-4.2-3.7-6.4-5.3l0.6-0.9c2.2,1.7,4.4,3.5,6.5,5.4L577.3,360.8z    M461.8,355.6l-0.7-0.9c2.2-1.7,4.6-3.3,7-4.8l0.6,0.9C466.4,352.4,464.1,354,461.8,355.6z M564,350.7c-2.4-1.5-4.8-2.8-7.3-4.1   l0.5-1c2.5,1.2,5,2.6,7.4,4.1L564,350.7z M476,346.8l-0.5-1c2.5-1.3,5.1-2.4,7.7-3.4l0.4,1C481.1,344.4,478.5,345.6,476,346.8z    M549,343.3c-2.6-1-5.3-1.9-7.9-2.6l0.3-1c2.7,0.8,5.4,1.7,8,2.7L549,343.3z M491.6,340.8l-0.3-1c2.7-0.8,5.5-1.4,8.2-1.9l0.2,1.1   C497,339.4,494.2,340,491.6,340.8z M532.9,338.8c-2.7-0.5-5.5-0.9-8.3-1.1l0.1-1.1c2.8,0.3,5.6,0.6,8.4,1.1L532.9,338.8z    M508,337.7l-0.1-1.1c2.8-0.3,5.6-0.4,8.4-0.4l0,1.1C513.5,337.3,510.7,337.4,508,337.7z"></path>	</g>	<g>		<path class="st1" d="M759.3,430.8l0-1.1c2.8,0,5.6-0.1,8.3-0.4l0.1,1.1C765,430.7,762.1,430.8,759.3,430.8z M750.8,430.4   c-2.8-0.3-5.6-0.6-8.4-1.2l0.2-1.1c2.7,0.5,5.5,0.9,8.3,1.1L750.8,430.4z M776.1,429.3l-0.2-1.1c2.7-0.5,5.5-1.2,8.1-1.9l0.3,1   C781.6,428.1,778.9,428.8,776.1,429.3z M734.2,427.4c-2.7-0.8-5.4-1.7-8-2.7l0.4-1c2.6,1,5.3,1.9,7.9,2.6L734.2,427.4z    M792.4,424.7l-0.4-1c2.6-1,5.2-2.1,7.6-3.4l0.5,1C797.6,422.5,795,423.6,792.4,424.7z M718.5,421.3c-2.5-1.3-5-2.6-7.4-4.1   l0.6-0.9c2.4,1.5,4.8,2.8,7.3,4.1L718.5,421.3z M807.5,417.1l-0.6-0.9c2.4-1.5,4.7-3.1,6.9-4.7l0.7,0.9   C812.2,414,809.9,415.6,807.5,417.1z M704.1,412.4c-2.2-1.7-4.4-3.5-6.5-5.4l0.7-0.8c2.1,1.9,4.2,3.7,6.4,5.3L704.1,412.4z    M820.9,406.9l-0.7-0.8c2.1-1.9,4-3.9,5.9-5.9l0.8,0.7C825,403,823,405,820.9,406.9z M691.6,401c-1.9-2.1-3.7-4.3-5.4-6.5l0.9-0.7   c1.7,2.2,3.5,4.4,5.3,6.4L691.6,401z M681.4,387.5c-1.5-2.4-2.9-4.9-4.1-7.4l1-0.5c1.2,2.5,2.6,4.9,4.1,7.3L681.4,387.5z    M841.2,380.1l-1-0.5c1.2-2.5,2.4-5.1,3.4-7.6l1,0.4C843.6,375,842.5,377.6,841.2,380.1z M673.9,372.4c-1-2.6-1.9-5.3-2.7-8l1-0.3   c0.8,2.7,1.7,5.3,2.7,7.9L673.9,372.4z M847.3,364.3l-1-0.3c0.8-2.7,1.4-5.4,1.9-8.1l1.1,0.2C848.7,358.9,848.1,361.6,847.3,364.3   z M669.2,356.2c-0.5-2.8-0.9-5.6-1.2-8.4l1.1-0.1c0.3,2.8,0.6,5.6,1.2,8.3L669.2,356.2z M850.4,347.7l-1.1-0.1   c0.3-2.8,0.4-5.6,0.4-8.3l0-0.2l1.1,0l0,0.2C850.8,342.1,850.7,344.9,850.4,347.7z M668.8,339.4h-1.1v-0.1c0-2.8,0.1-5.6,0.4-8.3   l1.1,0.1c-0.2,2.7-0.4,5.5-0.4,8.2V339.4z M849.3,330.7c-0.3-2.8-0.7-5.5-1.2-8.3l1.1-0.2c0.5,2.8,0.9,5.6,1.2,8.4L849.3,330.7z    M670.3,322.8l-1.1-0.2c0.5-2.8,1.2-5.5,1.9-8.2l1,0.3C671.4,317.3,670.8,320,670.3,322.8z M846.2,314.3c-0.8-2.7-1.7-5.3-2.7-7.9   l1-0.4c1,2.6,1.9,5.3,2.7,8L846.2,314.3z M674.8,306.7l-1-0.4c1-2.6,2.2-5.2,3.4-7.7l1,0.5C676.9,301.5,675.8,304.1,674.8,306.7z    M682.2,291.7l-0.9-0.6c1.5-2.4,3.1-4.7,4.8-7l0.9,0.6C685.3,287.1,683.7,289.4,682.2,291.7z M831.3,284.6   c-1.7-2.2-3.5-4.4-5.4-6.4l0.8-0.7c1.9,2.1,3.7,4.3,5.4,6.5L831.3,284.6z M692.3,278.4l-0.8-0.7c1.9-2.1,3.9-4.1,6-6l0.7,0.8   C696.1,274.4,694.2,276.4,692.3,278.4z M820.1,272.3c-2.1-1.9-4.2-3.7-6.4-5.3l0.6-0.9c2.2,1.7,4.4,3.5,6.5,5.4L820.1,272.3z    M704.6,267.1l-0.7-0.9c2.2-1.7,4.6-3.3,7-4.8l0.6,0.9C709.1,263.9,706.8,265.5,704.6,267.1z M806.7,262.2   c-2.4-1.5-4.8-2.8-7.3-4.1l0.5-1c2.5,1.2,5,2.6,7.4,4.1L806.7,262.2z M718.8,258.3l-0.5-1c2.5-1.3,5.1-2.4,7.7-3.4l0.4,1   C723.8,255.9,721.3,257.1,718.8,258.3z M791.8,254.8c-2.6-1-5.3-1.9-7.9-2.6l0.3-1c2.7,0.8,5.4,1.7,8,2.7L791.8,254.8z    M734.3,252.3l-0.3-1c2.7-0.8,5.5-1.4,8.2-1.9l0.2,1.1C739.7,250.9,737,251.5,734.3,252.3z M775.7,250.3c-2.7-0.5-5.5-0.9-8.3-1.1   l0.1-1.1c2.8,0.3,5.6,0.6,8.4,1.1L775.7,250.3z M750.7,249.2l-0.1-1.1c2.8-0.3,5.6-0.4,8.4-0.4l0,1.1   C756.3,248.8,753.5,248.9,750.7,249.2z"></path>	</g>	<g>		<path class="st1" d="M286.3,681.4l0-1.8c4.7,0,9.5-0.2,14.1-0.7l0.2,1.8C295.9,681.2,291.1,681.4,286.3,681.4z M272,680.7   c-4.7-0.4-9.5-1.1-14.2-2l0.3-1.8c4.6,0.9,9.3,1.5,14,1.9L272,680.7z M314.8,678.8l-0.3-1.8c4.6-0.9,9.3-1.9,13.8-3.2l0.5,1.8   C324.2,676.8,319.5,677.9,314.8,678.8z M243.9,675.5c-4.6-1.3-9.1-2.8-13.6-4.5l0.7-1.7c4.4,1.7,8.9,3.2,13.4,4.5L243.9,675.5z    M342.3,670.9l-0.7-1.7c4.4-1.7,8.7-3.6,12.9-5.7l0.8,1.6C351.1,667.3,346.7,669.2,342.3,670.9z M217.2,665.2   c-4.3-2.1-8.5-4.5-12.5-7l1-1.6c4,2.5,8.2,4.8,12.4,6.9L217.2,665.2z M367.9,658.2l-1-1.6c4-2.5,7.9-5.2,11.7-8l1.1,1.5   C375.9,652.9,371.9,655.7,367.9,658.2z M192.9,650.2c-3.8-2.9-7.5-5.9-11-9.1l1.2-1.4c3.5,3.2,7.1,6.2,10.9,9L192.9,650.2z    M390.7,640.9l-1.2-1.4c3.5-3.2,6.8-6.5,10-10l1.4,1.2C397.6,634.3,394.2,637.7,390.7,640.9z M171.8,630.9   c-3.2-3.5-6.3-7.2-9.2-11l1.5-1.1c2.8,3.7,5.9,7.4,9.1,10.9L171.8,630.9z M410,619.8l-1.5-1.1c2.8-3.8,5.5-7.7,8-11.7l1.6,1   C415.6,612,412.8,616,410,619.8z M154.5,608.1c-2.5-4-4.9-8.2-7-12.5l1.6-0.8c2.1,4.2,4.4,8.4,6.9,12.3L154.5,608.1z M425,595.5   l-1.6-0.8c2.1-4.2,4-8.6,5.7-12.9l1.7,0.7C429.1,586.8,427.2,591.2,425,595.5z M141.7,582.5c-1.7-4.4-3.3-9-4.6-13.6l1.8-0.5   c1.3,4.5,2.8,9,4.5,13.4L141.7,582.5z M435.4,568.8l-1.8-0.5c1.3-4.5,2.4-9.2,3.2-13.8l1.8,0.3   C437.8,559.5,436.7,564.2,435.4,568.8z M133.8,555c-0.9-4.7-1.5-9.4-2-14.2l1.8-0.2c0.4,4.7,1.1,9.4,2,14L133.8,555z M440.6,540.7   l-1.8-0.2c0.4-4.7,0.6-9.4,0.6-14.1l0-0.4l1.8,0l0,0.4C441.3,531.1,441,535.9,440.6,540.7z M133,526.5h-1.8v-0.2   c0-4.7,0.2-9.5,0.6-14.1l1.8,0.2c-0.4,4.6-0.6,9.3-0.6,14V526.5z M438.8,511.9c-0.4-4.7-1.1-9.4-2-14l1.8-0.3   c0.9,4.7,1.5,9.4,2,14.2L438.8,511.9z M135.6,498.4l-1.8-0.3c0.9-4.7,2-9.4,3.2-13.9l1.8,0.5C137.5,489.1,136.4,493.8,135.6,498.4   z M433.5,484.1c-1.3-4.5-2.8-9-4.5-13.4l1.7-0.7c1.7,4.4,3.3,9,4.6,13.6L433.5,484.1z M143.3,471.2l-1.7-0.7   c1.7-4.4,3.7-8.8,5.8-13.1l1.6,0.8C146.9,462.5,145,466.8,143.3,471.2z M423.3,457.8c-2.1-4.2-4.4-8.3-6.9-12.3l1.6-1   c2.5,4,4.9,8.2,7,12.5L423.3,457.8z M155.8,445.9l-1.6-1c2.5-4,5.2-8,8.1-11.8l1.5,1.1C161,438,158.3,441.9,155.8,445.9z    M408.3,433.8c-2.8-3.7-5.9-7.4-9.1-10.9l1.3-1.2c3.2,3.5,6.3,7.2,9.2,11L408.3,433.8z M172.9,423.3l-1.4-1.2   c3.2-3.5,6.6-6.9,10.1-10.1l1.2,1.3C179.4,416.5,176,419.8,172.9,423.3z M389.2,412.9c-3.5-3.2-7.1-6.2-10.9-9l1.1-1.5   c3.8,2.9,7.5,5.9,11,9.1L389.2,412.9z M193.7,404.2l-1.1-1.5c3.8-2.9,7.8-5.6,11.8-8.1l1,1.6C201.4,398.7,197.5,401.4,193.7,404.2   z M366.6,395.9c-4-2.5-8.2-4.8-12.4-6.9l0.8-1.6c4.3,2.1,8.5,4.5,12.5,7L366.6,395.9z M217.7,389.3l-0.8-1.6   c4.3-2.1,8.7-4.1,13.1-5.8l0.7,1.7C226.3,385.3,221.9,387.2,217.7,389.3z M341.3,383.4c-4.4-1.7-8.9-3.2-13.4-4.5l0.5-1.8   c4.6,1.3,9.1,2.8,13.6,4.5L341.3,383.4z M244.1,379l-0.5-1.8c4.6-1.3,9.3-2.4,13.9-3.3l0.3,1.8C253.2,376.7,248.6,377.8,244.1,379   z M314.1,375.7c-4.6-0.8-9.3-1.5-14-1.9l0.2-1.8c4.7,0.4,9.5,1.1,14.2,1.9L314.1,375.7z M271.8,373.8l-0.2-1.8   c4.7-0.4,9.5-0.7,14.3-0.7l0,1.8C281.3,373.2,276.5,373.4,271.8,373.8z"></path>	</g>	<g>		<path class="st1" d="M820.9,761.2l0-1.8c4.7,0,9.5-0.2,14.1-0.7l0.2,1.8C830.5,761,825.6,761.2,820.9,761.2z M806.6,760.5   c-4.7-0.4-9.5-1.1-14.2-2l0.3-1.8c4.6,0.9,9.3,1.5,14,1.9L806.6,760.5z M849.3,758.6l-0.3-1.8c4.6-0.9,9.2-1.9,13.8-3.2l0.5,1.8   C858.7,756.6,854,757.7,849.3,758.6z M778.5,755.3c-4.6-1.3-9.1-2.8-13.6-4.5l0.7-1.7c4.4,1.7,8.9,3.2,13.4,4.5L778.5,755.3z    M876.8,750.7l-0.7-1.7c4.4-1.7,8.7-3.6,12.9-5.7l0.8,1.6C885.7,747.1,881.3,749,876.8,750.7z M751.8,745c-4.3-2.1-8.5-4.5-12.5-7   l1-1.6c4,2.5,8.2,4.8,12.4,6.9L751.8,745z M902.4,738l-1-1.6c4-2.5,7.9-5.2,11.7-8l1.1,1.5C910.4,732.7,906.4,735.5,902.4,738z    M727.5,730c-3.8-2.9-7.5-5.9-11-9.1l1.2-1.4c3.5,3.2,7.1,6.2,10.9,9L727.5,730z M925.2,720.7l-1.2-1.3c3.5-3.2,6.8-6.5,10-10   l1.4,1.2C932.1,714.1,928.7,717.5,925.2,720.7z M706.4,710.7c-3.2-3.5-6.3-7.2-9.2-11l1.5-1.1c2.8,3.7,5.9,7.4,9,10.9L706.4,710.7   z M944.5,699.6l-1.5-1.1c2.8-3.7,5.5-7.7,8-11.7l1.6,1C950.1,691.8,947.3,695.8,944.5,699.6z M689.1,687.9c-2.5-4-4.9-8.2-7-12.5   l1.6-0.8c2.1,4.2,4.4,8.3,6.9,12.3L689.1,687.9z M959.5,675.3l-1.6-0.8c2.1-4.2,4-8.6,5.7-12.9l1.7,0.7   C963.6,666.6,961.6,671,959.5,675.3z M676.3,662.4c-1.7-4.4-3.3-9-4.6-13.6l1.8-0.5c1.3,4.5,2.8,9,4.5,13.4L676.3,662.4z    M969.9,648.6l-1.8-0.5c1.3-4.5,2.4-9.1,3.2-13.8l1.8,0.3C972.2,639.4,971.2,644.1,969.9,648.6z M668.5,634.9   c-0.9-4.7-1.5-9.4-2-14.2l1.8-0.2c0.4,4.7,1.1,9.4,2,14L668.5,634.9z M667.7,606.4h-1.8v-0.2c0-4.7,0.2-9.5,0.6-14.1l1.8,0.2   c-0.4,4.6-0.6,9.3-0.6,13.9V606.4z M973.2,591.8c-0.4-4.7-1.1-9.4-2-14l1.8-0.3c0.9,4.7,1.5,9.4,2,14.2L973.2,591.8z M670.2,578.3   l-1.8-0.3c0.9-4.7,2-9.4,3.2-13.9l1.8,0.5C672.1,569,671.1,573.7,670.2,578.3z M968,564c-1.3-4.5-2.8-9-4.5-13.4l1.7-0.7   c1.7,4.4,3.3,9,4.6,13.6L968,564z M677.9,551.1l-1.7-0.7c1.7-4.4,3.7-8.8,5.8-13.1l1.6,0.8C681.5,542.4,679.6,546.7,677.9,551.1z    M957.7,537.7c-2.1-4.2-4.4-8.3-6.9-12.3l1.6-1c2.5,4,4.9,8.2,7,12.5L957.7,537.7z M690.5,525.8l-1.6-1c2.5-4,5.2-8,8.1-11.8   l1.5,1.1C695.6,517.9,692.9,521.8,690.5,525.8z M942.8,513.7c-2.8-3.7-5.9-7.4-9.1-10.9l1.3-1.2c3.2,3.5,6.3,7.2,9.2,11   L942.8,513.7z M707.5,503.3l-1.4-1.2c3.2-3.5,6.6-6.9,10.1-10.1l1.2,1.3C714,496.4,710.6,499.8,707.5,503.3z M728.3,484.2   l-1.1-1.5c3.8-2.9,7.8-5.6,11.8-8.1l1,1.6C736,478.6,732.1,481.3,728.3,484.2z M901.1,475.9c-4-2.5-8.2-4.8-12.4-6.9l0.8-1.6   c4.3,2.1,8.5,4.5,12.5,7L901.1,475.9z M752.3,469.3l-0.8-1.6c4.3-2.1,8.6-4.1,13.1-5.8l0.7,1.7   C760.9,465.2,756.5,467.2,752.3,469.3z M875.8,463.3c-4.4-1.7-8.9-3.2-13.4-4.5l0.5-1.8c4.6,1.3,9.1,2.8,13.6,4.5L875.8,463.3z    M778.6,459l-0.5-1.8c4.6-1.3,9.3-2.4,13.9-3.3l0.3,1.8C787.8,456.6,783.1,457.7,778.6,459z M848.7,455.7c-4.6-0.8-9.3-1.5-14-1.9   l0.2-1.8c4.7,0.4,9.5,1.1,14.2,1.9L848.7,455.7z M806.4,453.8l-0.2-1.8c4.7-0.4,9.5-0.7,14.3-0.7l0,1.8   C815.8,453.1,811.1,453.4,806.4,453.8z"></path>	</g>	<g>		<path class="st2" d="M472.7,472.2l0-1.4c3.7,0,7.5-0.2,11.2-0.5l0.1,1.4C480.2,472,476.4,472.2,472.7,472.2z M461.3,471.6   c-3.8-0.3-7.5-0.9-11.2-1.5l0.3-1.4c3.7,0.7,7.4,1.2,11.1,1.5L461.3,471.6z M495.2,470.1l-0.3-1.4c3.7-0.7,7.3-1.5,10.9-2.6   l0.4,1.4C502.6,468.5,498.9,469.4,495.2,470.1z M439.1,467.5c-3.6-1-7.2-2.2-10.8-3.6l0.5-1.4c3.5,1.3,7,2.5,10.6,3.6L439.1,467.5   z M517,463.9l-0.5-1.3c3.5-1.3,6.9-2.9,10.2-4.5l0.6,1.3C524,461,520.5,462.5,517,463.9z M417.9,459.4c-3.4-1.7-6.7-3.5-9.9-5.5   l0.8-1.2c3.2,2,6.5,3.8,9.8,5.5L417.9,459.4z M537.3,453.8l-0.8-1.2c3.2-2,6.3-4.1,9.2-6.3l0.9,1.2   C543.6,449.6,540.5,451.8,537.3,453.8z M398.7,447.4c-3-2.3-5.9-4.7-8.7-7.2l1-1.1c2.8,2.5,5.7,4.9,8.6,7.2L398.7,447.4z    M555.3,440.1l-1-1.1c2.7-2.5,5.4-5.2,7.9-7.9l1.1,1C560.8,434.9,558.1,437.6,555.3,440.1z M381.9,432.2c-2.5-2.8-5-5.7-7.3-8.7   l1.2-0.9c2.2,3,4.7,5.9,7.2,8.6L381.9,432.2z M570.6,423.3l-1.2-0.9c2.2-3,4.4-6.1,6.3-9.2l1.2,0.8   C575,417.2,572.9,420.3,570.6,423.3z M368.2,414.1c-2-3.2-3.9-6.5-5.5-9.9l1.3-0.6c1.7,3.3,3.5,6.6,5.5,9.8L368.2,414.1z    M582.5,404.1l-1.3-0.6c1.7-3.3,3.2-6.8,4.5-10.3l1.3,0.5C585.8,397.2,584.2,400.7,582.5,404.1z M358.1,393.9   c-1.4-3.5-2.6-7.1-3.6-10.7l1.4-0.4c1,3.6,2.2,7.2,3.6,10.6L358.1,393.9z M590.7,383l-1.4-0.4c1-3.6,1.9-7.2,2.6-10.9l1.4,0.3   C592.6,375.6,591.7,379.3,590.7,383z M351.9,372.1c-0.7-3.7-1.2-7.5-1.6-11.2l1.4-0.1c0.3,3.7,0.9,7.4,1.5,11.1L351.9,372.1z    M594.9,360.7l-1.4-0.1c0.3-3.7,0.5-7.5,0.5-11.2l0-0.3l1.4,0l0,0.3C595.4,353.1,595.2,357,594.9,360.7z M351.2,349.5h-1.4v-0.1   c0-3.7,0.2-7.5,0.5-11.2l1.4,0.1c-0.3,3.7-0.5,7.4-0.5,11.1V349.5z M593.4,337.9c-0.3-3.7-0.9-7.4-1.6-11.1l1.4-0.3   c0.7,3.7,1.2,7.5,1.6,11.2L593.4,337.9z M353.3,327.2l-1.4-0.3c0.7-3.7,1.5-7.4,2.6-11l1.4,0.4   C354.8,319.9,353.9,323.6,353.3,327.2z M589.2,315.9c-1-3.6-2.2-7.1-3.6-10.6l1.3-0.5c1.4,3.5,2.6,7.1,3.6,10.7L589.2,315.9z    M359.3,305.7l-1.4-0.5c1.4-3.5,2.9-7,4.6-10.4l1.3,0.6C362.2,298.8,360.7,302.2,359.3,305.7z M581.1,295   c-1.7-3.3-3.5-6.6-5.5-9.8l1.2-0.8c2,3.2,3.9,6.5,5.5,9.9L581.1,295z M369.3,285.6l-1.2-0.8c2-3.2,4.1-6.4,6.4-9.4l1.2,0.9   C373.4,279.4,371.3,282.5,369.3,285.6z M569.3,276.1c-2.3-3-4.7-5.9-7.2-8.6l1.1-1c2.5,2.8,5,5.7,7.3,8.7L569.3,276.1z    M382.8,267.8l-1.1-1c2.5-2.8,5.2-5.5,8-8l1,1.1C388,262.3,385.3,265,382.8,267.8z M554.1,259.5c-2.8-2.5-5.7-4.9-8.6-7.1l0.9-1.2   c3,2.3,5.9,4.7,8.7,7.2L554.1,259.5z M399.3,252.6l-0.9-1.2c3-2.3,6.1-4.4,9.3-6.4l0.8,1.2C405.4,248.3,402.3,250.4,399.3,252.6z    M536.3,246.1c-3.2-2-6.5-3.8-9.8-5.4l0.6-1.3c3.4,1.7,6.7,3.5,9.9,5.5L536.3,246.1z M418.3,240.8l-0.6-1.3   c3.4-1.7,6.9-3.2,10.4-4.6l0.5,1.3C425.1,237.6,421.6,239.1,418.3,240.8z M516.2,236.1c-3.5-1.3-7-2.5-10.6-3.5l0.4-1.4   c3.6,1,7.2,2.2,10.8,3.6L516.2,236.1z M439.2,232.7l-0.4-1.4c3.6-1,7.3-1.9,11-2.6l0.3,1.4C446.4,230.8,442.8,231.7,439.2,232.7z    M494.7,230c-3.7-0.7-7.4-1.2-11.1-1.5l0.1-1.4c3.8,0.3,7.5,0.9,11.2,1.5L494.7,230z M461.2,228.6l-0.1-1.4   c3.7-0.3,7.5-0.5,11.3-0.5l0,1.4C468.6,228,464.9,228.2,461.2,228.6z"></path>	</g>	<g>		<path class="st3" d="M906,271.1c-57.6-1.2-105.5,44.6-106.7,102.2C798.1,430.9,844,478.8,901.5,480   c57.6,1.2,105.5-44.6,106.7-102.2C1009.4,320.2,963.6,272.3,906,271.1z M905.5,454.3L905.5,454.3c-43.5,1-79.6-33.5-80.5-77v0   c-1-43.5,33.5-79.6,77-80.5h0c43.5-1,79.6,33.5,80.5,77v0C983.5,417.3,949,453.4,905.5,454.3z"></path>		<path class="st3" d="M1076.9,348.6c-1.7-3.1-4.6-3.3-12.4-3.9c-9.6-0.8-19.3-1.2-28.9-2.1c-1.8-0.2-4.1-1.8-4.9-3.4   c-4.6-10.2-8.6-20.7-13.3-30.9c-1.4-3-1.6-4.8,0.6-7.4c7.4-9.1,14.6-18.5,21.9-27.7c1.2-1.5,2.3-3,4.3-5.7   c-12.8-12-25.4-23.8-38.3-36c-10.8,9.3-20.8,17.7-30.4,26.4c-3.4,3.1-5.8,3.8-10.3,1.6c-9.3-4.5-19.2-7.6-28.7-11.6   c-1.5-0.6-3.1-2.6-3.3-4.2c-1.7-11.8-3.5-23.7-4.5-35.6c-0.5-5.7-2.9-7.6-8.2-7.4c-2,0.1-4.1-0.6-6.1-0.9   c-9.1,0.2-18.3,0.4-27.4,0.6c-1,0.3-1.9,0.8-2.9,0.9c-10.5,1.3-8.8,0.5-9.7,10.4c-1,12-1.8,24.1-2.5,34.6c-13.8,6.2-26.7,12-40,18   c-11.4-8.9-23.3-18.2-35.2-27.6c-14.3,10.8-25.7,23.7-35.9,38.2c9.2,10.6,18.1,21,27.2,31.3c1.6,1.9,2.2,3.2,1,5.9   c-4.6,10.6-9,21.3-12.9,32.2c-1.1,3.1-2.5,3.9-5.4,4.3c-12,1.4-24.1,3.1-36.1,4.6c-3,0.4-4.5,1.3-5,4.7c-2,15.2-0.8,30.2,1.8,45.1   c0.5,3,2.3,3.4,4.8,3.5c11.8,0.7,23.5,1.7,35.3,2.4c3.4,0.2,4.9,1.1,6.3,4.6c4.6,12.1,9.9,23.9,15.3,36.8   c-8.1,10.3-17.3,22.1-26.5,33.8c11,14.6,23.4,26.7,38.3,36.7c11.6-10.1,22.8-19.9,33-28.8c11.9,4.2,22.8,8.4,34,11.9   c4.2,1.3,5.9,3.2,6.3,7.5c1.1,11.5,2.7,23.1,4.2,34.6c0.3,2.3,0,5.3,3.8,5.2c15.3-0.5,30.5-0.9,45.8-1.4c3.2-0.1,4.3-1.8,4.5-5   c0.7-11.9,1.8-23.8,2.3-35.8c0.2-4.6,2.4-6,6.2-7.6c9.4-3.8,18.8-7.8,27.7-12.6c3.8-2.1,5.8-1.9,9,0.8   c10.3,8.5,20.9,16.6,31.1,24.7c9.4-5.3,30.5-27.9,36.5-38.8c-9-10.2-17.9-20.6-27.1-30.7c-2.3-2.5-2.2-4.3-0.9-7.3   c4-9.7,7.3-19.7,11.1-29.5c0.7-1.6,2.8-3.6,4.5-3.8c10.6-1.5,21.3-2.7,31.9-3.8c6-0.6,8.4-0.9,9.5-3.2L1076.9,348.6z M978.6,453.7   c-20.9,20-48.3,30.7-77.2,30.1s-55.8-12.4-75.8-33.3c-20-20.9-30.7-48.3-30.1-77.2c0.6-28.9,12.4-55.8,33.3-75.8   c20.9-20,48.3-30.7,77.2-30.1s55.8,12.4,75.8,33.3c20,20.9,30.7,48.3,30.1,77.2C1011.3,406.7,999.5,433.7,978.6,453.7z"></path>	</g>	<g>		<path class="st4" d="M743.6,193.3l-3,19.5l14.1-9.8l43-20.8l-33,2.3c0,0-16.8,3.7-17.8,4.5C746,189.8,743.6,193.3,743.6,193.3z"></path>		<polygon class="st5" points="729.3,181.2 797.7,182.2 743.6,193.3   "></polygon>		<polygon class="st5" points="765.1,213.5 747.5,198.7 797.7,182.2   "></polygon>	</g>	<g>		<g>			<path class="st1" d="M646.7,261.5c0.2-1.6,0.6-3.1,1-4.7c0.4-1.4,0.8-2.8,1.4-4.2l1.5,0.6c-0.5,1.3-1,2.7-1.3,4.1    c-0.4,1.5-0.7,3-1,4.5c-0.1,0.4-0.1,0.9-0.2,1.3l-1.6-0.2C646.6,262.4,646.7,261.9,646.7,261.5z M653.9,243.2    c1.8-2.9,4-5.6,6.5-8.3l1.2,1.1c-2.4,2.6-4.5,5.3-6.3,8.1L653.9,243.2z M705,241.1c-0.1-0.1-0.2-0.1-0.3-0.2l0.9-1.3    c0.1,0.1,0.2,0.1,0.2,0.2c0,0,0,0,0.2,0.1c0.9,0.2,3.2,0.3,4.5-0.5c1.1-0.6,2-1.6,2.7-2.9l1.4,0.7c-0.8,1.6-2,2.8-3.3,3.6    c-1.8,1-4.6,0.9-5.7,0.6C705.4,241.3,705.2,241.2,705,241.1z M668,227.7c2.7-2.2,5.5-4.2,8.5-6.1l0.9,1.4c-3,1.8-5.8,3.8-8.4,6    L668,227.7z M698.8,228.4c0-1.5,0.3-3.1,0.7-4.7c0.2-0.9,0.5-1.7,0.9-2.6l1.5,0.6c-0.3,0.8-0.6,1.6-0.8,2.4    c-0.4,1.5-0.6,2.9-0.6,4.3c0,1,0.1,2,0.2,3l-1.6,0.3C698.9,230.7,698.8,229.5,698.8,228.4z M706.8,220.4l-0.2-0.1l0.7-1.4    l0.2,0.1c3.3,1.7,6,4.4,7.4,7.5l-1.5,0.7C712.1,224.4,709.7,221.9,706.8,220.4z M686.4,217.8c1.8-0.5,5.1-1.4,6.8-1.4    c1.3,0,2.5,0,3.7,0l-0.1,1.6c-1.1-0.1-2.3-0.1-3.6,0c-1.1,0-3.5,0.5-6.4,1.3L686.4,217.8z M706.1,212.2c2.4-2.6,5.1-4.9,8.1-6.8    l0.8,1.4c-2.9,1.8-5.5,3.9-7.8,6.5L706.1,212.2z"></path>		</g>		<g>			<path class="st1" d="M724.4,202.9c1.7-0.4,3.4-0.7,5.1-0.8l-0.1-1.6c-1.8,0.1-3.6,0.4-5.4,0.9L724.4,202.9z"></path>		</g>	</g>	<path class="st3" d="M1087.2,618.5c-4.3-1.5-8.6-2.9-12.9-4.5c-0.8-0.3-1.7-1.3-1.8-2.1c-0.8-5.2-1.4-10.5-2.2-15.7  c-0.3-1.5-0.1-2.4,1.2-3.3c4.5-3.2,8.9-6.6,13.4-9.9c0.7-0.5,1.4-1.1,2.7-2.1c-4.3-7-8.6-14-13-21.1c-6.1,2.9-11.6,5.5-17.1,8.3  c-1.9,1-3.1,1-4.9-0.5c-3.7-3.2-7.8-5.8-11.6-8.8c-0.6-0.5-1.1-1.6-1-2.3c0.7-5.6,1.3-11.2,2.3-16.7c0.5-2.7-0.4-3.8-2.8-4.4  c-0.9-0.2-1.8-0.8-2.7-1.2c-4.2-1-8.4-2.1-12.6-3.1c-0.5,0-1,0.1-1.5,0.1c-5-0.7-4.1-0.9-5.7,3.5c-1.9,5.4-3.8,10.7-5.4,15.4  c-7,1.1-13.6,2.2-20.4,3.3c-4.1-5.4-8.3-11.1-12.6-16.9c-7.8,3.2-14.6,7.6-21,13c2.9,6,5.7,11.8,8.5,17.6c0.5,1,0.6,1.7-0.3,2.8  c-3.4,4.2-6.7,8.6-9.8,13c-0.9,1.3-1.6,1.5-3,1.3c-5.7-0.8-11.3-1.5-17-2.4c-1.4-0.2-2.2,0-2.8,1.5c-2.8,6.7-4.1,13.6-4.7,20.7  c-0.1,1.4,0.6,1.8,1.8,2.2c5.3,1.8,10.5,3.7,15.8,5.4c1.5,0.5,2.1,1.1,2.3,2.9c0.6,6.1,1.5,12.1,2.4,18.6  c-5,3.7-10.6,7.9-16.2,12.1c3.2,8,7.4,15,12.9,21.4c6.5-3.2,12.8-6.3,18.5-9c4.9,3.4,9.3,6.6,14,9.6c1.8,1.1,2.3,2.2,1.9,4.2  c-0.9,5.4-1.6,10.8-2.3,16.2c-0.1,1.1-0.6,2.4,1.1,2.8c7,1.7,14,3.3,21,5c1.5,0.4,2.2-0.3,2.7-1.7c1.8-5.3,3.8-10.6,5.5-16  c0.6-2.1,1.8-2.4,3.7-2.7c4.7-0.6,9.5-1.2,14.1-2.3c2-0.5,2.9-0.1,4,1.5c3.6,5.1,7.4,10.1,11.1,15.1c4.9-1.3,17.3-8.9,21.4-13.2  c-2.8-5.7-5.6-11.6-8.6-17.3c-0.7-1.4-0.5-2.2,0.5-3.4c3-3.9,5.7-8.1,8.7-12c0.5-0.7,1.7-1.3,2.5-1.2c5,0.6,10,1.4,15,2.2  c2.8,0.4,3.9,0.6,4.7-0.3l5.5-22.3C1092,620.3,1090.7,619.8,1087.2,618.5z M1046.3,621.7c-4.9,19.9-25,32.1-44.9,27.2h0  c-19.9-4.9-32.1-25-27.2-44.9l0,0c4.9-19.9,25-32.1,44.9-27.2h0C1039.1,581.7,1051.2,601.8,1046.3,621.7L1046.3,621.7z"></path>	<g>		<ellipse class="st6" cx="310" cy="516" rx="27" ry="16.7"></ellipse>		<path class="st7" d="M310,160.7c-67.2,0-121.7,54.5-121.7,121.7c0,36.7,16.3,69.7,42,92c0.1,0.1,19,20.6,22.1,42l0.6,13.1   c0.2,4.3,1.9,8.4,4.8,11.6c0.3,0.3,0.5,0.6,0.8,0.8h102.9c0.3-0.3,0.5-0.5,0.8-0.8c2.9-3.2,4.6-7.3,4.8-11.6l0.6-13.1   c3.1-21.4,22-41.9,22.1-42c25.7-22.3,42-55.2,42-92C431.7,215.2,377.2,160.7,310,160.7z"></path>		<path class="st8" d="M310,517.8L310,517.8c-28.6,0-51.7-23.2-51.7-51.7v-24.2h103.4v24.2C361.7,494.7,338.6,517.8,310,517.8z"></path>		<path class="st9" d="M340.5,375.5c-67.3,0-121.8-54.5-121.8-121.8c0-27.3,9-52.5,24.2-72.8c-32.9,21.8-54.6,59.1-54.6,101.6   c0,36.7,16.3,69.7,42,92c0.1,0.1,19,20.6,22.1,42l0.6,13.1c0.2,4.3,1.9,8.4,4.8,11.6c0.3,0.3,0.5,0.6,0.8,0.8h102.9   c0.3-0.3,0.5-0.5,0.8-0.8c2.9-3.2,4.6-7.3,4.8-11.6l0.6-13.1c3.1-21.4,22-41.9,22.1-42c6.5-5.6,12.4-12,17.6-18.9   C388.1,368.2,365.2,375.5,340.5,375.5z"></path>		<g>			<polygon class="st10" points="309.1,341.5 285,236 263.7,297.3 257.5,295.2 286.2,212.1 310.9,319.7 336.2,258 359.6,297.6     353.9,300.9 337.3,272.8    "></polygon>		</g>		<g>			<path class="st8" d="M278.7,457.8l-0.6,0.1c-3.1,0.3-5.8-1.9-6.1-5l-16.9-163.3c-0.3-3.1,1.9-5.8,5-6.1l0.6-0.1    c3.1-0.3,5.8,1.9,6.1,5l16.9,163.3C283.9,454.7,281.7,457.4,278.7,457.8z"></path>			<path class="st8" d="M341.7,457.8L341.7,457.8c3.2,0.3,6.1-2,6.4-5.2L365,289.8c0.3-3.2-2-6.1-5.2-6.4l0,0    c-3.2-0.3-6.1,2-6.4,5.2l-16.9,162.8C336.1,454.6,338.5,457.5,341.7,457.8z"></path>		</g>		<path class="st6" d="M360.4,453.3H259.6c-3.2,0-5.7-2.6-5.7-5.7v0c0-3.2,2.6-5.7,5.7-5.7h100.8c3.2,0,5.7,2.6,5.7,5.7v0   C366.1,450.8,363.6,453.3,360.4,453.3z"></path>		<path class="st6" d="M360.4,476.3H259.6c-3.2,0-5.7-2.6-5.7-5.7l0,0c0-3.2,2.6-5.7,5.7-5.7h100.8c3.2,0,5.7,2.6,5.7,5.7v0   C366.1,473.7,363.6,476.3,360.4,476.3z"></path>		<path class="st6" d="M360.4,502H259.6c-3.2,0-5.7-2.6-5.7-5.7l0,0c0-3.2,2.6-5.7,5.7-5.7h100.8c3.2,0,5.7,2.6,5.7,5.7v0   C366.1,499.4,363.6,502,360.4,502z"></path>	</g>	<path class="st7" d="M469.6,351.3l4.2-7.7l-3.9-7.8c-0.4-0.9,0.3-1.9,1.3-1.7l8.6,1.6l6.2-6.2c0.7-0.7,1.9-0.3,2,0.7l1.1,8.7l7.8,4  c0.9,0.5,0.9,1.7,0,2.2l-7.9,3.8l-1.4,8.7c-0.2,1-1.4,1.4-2.1,0.6l-6-6.4l-8.6,1.3C469.8,353.3,469.1,352.2,469.6,351.3z"></path>	<path class="st7" d="M132,472.5l4.2-7.7l-3.9-7.8c-0.4-0.9,0.3-1.9,1.3-1.7l8.6,1.6l6.2-6.2c0.7-0.7,1.9-0.3,2,0.7l1.1,8.7l7.8,4  c0.9,0.5,0.9,1.7,0,2.2l-7.9,3.8l-1.4,8.7c-0.2,1-1.4,1.4-2.1,0.6l-6-6.4l-8.6,1.3C132.3,474.5,131.5,473.4,132,472.5z"></path>	<path class="st5" d="M680.1,297.1l0-5.4l-4.4-3c-0.5-0.3-0.4-1.1,0.2-1.3l5.1-1.7l1.5-5.2c0.2-0.6,0.9-0.7,1.3-0.2l3.2,4.3l5.4-0.2  c0.6,0,1,0.7,0.6,1.2l-3.1,4.4l1.8,5.1c0.2,0.6-0.3,1.1-0.9,1l-5.1-1.6l-4.2,3.3C680.8,298.1,680.1,297.7,680.1,297.1z"></path>	<path class="st5" d="M937.2,699.8l3.5-6.7l-3.5-6.7c-0.4-0.8,0.3-1.6,1.1-1.5l7.4,1.3l5.3-5.4c0.6-0.6,1.6-0.3,1.8,0.6l1,7.5  l6.7,3.4c0.8,0.4,0.8,1.5,0,1.9l-6.8,3.3l-1.1,7.4c-0.1,0.8-1.2,1.2-1.8,0.6l-5.2-5.4l-7.4,1.2  C937.4,701.5,936.8,700.6,937.2,699.8z"></path>	<path class="st11" d="M874.8,768.2H338.9c-16,0-28.9-12.9-28.9-28.9V416.6c0-16,12.9-28.9,28.9-28.9h535.9  c16,0,28.9,12.9,28.9,28.9v322.7C903.7,755.3,890.8,768.2,874.8,768.2z"></path>	<rect x="324.6" y="409.2" class="st12" width="564.6" height="324.5"></rect>	<rect x="324.6" y="409.2" class="st13" width="564.6" height="34.5"></rect>	<path class="st11" d="M914.4,768.2H299.3c-15.3,0-27.6-12.4-27.6-27.6l0,0h670.4l0,0C942.1,755.9,929.7,768.2,914.4,768.2z"></path>	<path class="st14" d="M940.9,748.3c0.7-2.4,1.2-5,1.2-7.7l0,0H271.6l0,0c0,2.7,0.4,5.2,1.2,7.7H940.9z"></path>	<rect x="364.7" y="466.1" class="st15" width="4.4" height="250.4"></rect>	<rect x="384" y="464.6" class="st16" width="73.1" height="5.3"></rect>	<rect x="384" y="483.7" class="st5" width="73.1" height="5.3"></rect>	<rect x="381.3" y="640.3" class="st16" width="73.1" height="5.3"></rect>	<rect x="381.3" y="659.4" class="st5" width="73.1" height="5.3"></rect>	<rect x="389.3" y="693.1" class="st15" width="65.1" height="5.3"></rect>	<rect x="465.3" y="483.7" class="st15" width="27.7" height="5.3"></rect>	<rect x="465.3" y="693.1" class="st15" width="27.7" height="5.3"></rect>	<rect x="501.1" y="693.1" class="st16" width="167.5" height="5.3"></rect>	<rect x="465.3" y="502.8" class="st15" width="57.4" height="5.3"></rect>	<rect x="532.8" y="502.8" class="st16" width="162.1" height="5.3"></rect>	<rect x="702.6" y="502.8" class="st5" width="136.8" height="5.3"></rect>	<rect x="505.9" y="483.7" class="st7" width="333.5" height="5.3"></rect>	<rect x="384" y="502.8" class="st5" width="73.1" height="5.3"></rect>	<rect x="384" y="524.2" class="st15" width="177.4" height="5.3"></rect>	<rect x="384" y="543.3" class="st5" width="247" height="5.3"></rect>	<rect x="475.1" y="562.4" class="st15" width="247" height="5.3"></rect>	<rect x="475.1" y="640.3" class="st15" width="131.7" height="5.3"></rect>	<rect x="475.1" y="662.1" class="st15" width="222" height="5.3"></rect>	<rect x="475.1" y="581.5" class="st16" width="107.3" height="5.3"></rect>	<rect x="595.3" y="581.5" class="st15" width="65" height="5.3"></rect>	<rect x="475.1" y="600.6" class="st15" width="145.9" height="5.3"></rect>	<rect x="475.1" y="619.7" class="st7" width="226.4" height="5.3"></rect>	<path class="st17" d="M476.8,275.9l2.2-3.5l-1.7-0.7c-0.4-0.2-0.6-0.6-0.4-1l0,0c0.2-0.4,0.6-0.6,1-0.4l2,0.8l1.9-3.1l-1.8-0.7  c-0.4-0.2-0.6-0.6-0.4-1l0,0c0.2-0.4,0.6-0.6,1-0.4l2.1,0.9l2.2-3.6c0.2-0.3,0.6-0.4,0.9-0.3l0.3,0.1c0.4,0.2,0.6,0.7,0.4,1.1  l-2.1,3.4l3.1,1.2l2.2-3.6c0.2-0.3,0.6-0.4,0.9-0.3l0.4,0.1c0.4,0.2,0.6,0.7,0.4,1.1l-2.1,3.4l1.7,0.7c0.4,0.2,0.6,0.6,0.4,1l0,0  c-0.2,0.4-0.6,0.6-1,0.4l-2-0.8l-1.9,3.2l1.8,0.7c0.4,0.2,0.6,0.6,0.4,1l0,0c-0.2,0.4-0.6,0.6-1,0.4l-2.1-0.9l-2.3,3.7  c-0.2,0.3-0.6,0.4-0.9,0.3l-0.4-0.2c-0.4-0.2-0.6-0.7-0.4-1.1l2.2-3.5l-3.1-1.2l-2.3,3.7c-0.2,0.3-0.6,0.4-0.9,0.3l-0.4-0.2  C476.7,276.8,476.6,276.3,476.8,275.9z M484.6,273.1l1.9-3.1l-3.1-1.2l-1.9,3.1L484.6,273.1z"></path>	<path class="st5" d="M1085.2,478.2l-0.4,0.2c-0.3,0.1-0.7,0-0.9-0.3l-2.3-3.7l-3.1,1.2l2.2,3.5c0.2,0.4,0.1,0.9-0.4,1.1l-0.4,0.2  c-0.3,0.1-0.7,0-0.9-0.3l-2.3-3.7l-2.1,0.9c-0.4,0.2-0.8,0-1-0.4l0,0c-0.2-0.4,0-0.8,0.4-1l1.8-0.7l-1.9-3.2l-2,0.8  c-0.4,0.2-0.8,0-1-0.4l0,0c-0.2-0.4,0-0.8,0.4-1l1.7-0.7l-2.1-3.4c-0.2-0.4-0.1-0.9,0.4-1.1l0.4-0.1c0.3-0.1,0.7,0,0.9,0.3l2.2,3.6  l3.1-1.2l-2.1-3.4c-0.2-0.4-0.1-0.9,0.4-1.1l0.3-0.1c0.3-0.1,0.7,0,0.9,0.3l2.2,3.6l2.1-0.9c0.4-0.2,0.8,0,1,0.4l0,0  c0.2,0.4,0,0.8-0.4,1l-1.8,0.7l1.9,3.1l2-0.8c0.4-0.2,0.8,0,1,0.4l0,0c0.2,0.4,0,0.8-0.4,1l-1.7,0.7l2.2,3.5  C1085.8,477.5,1085.6,478,1085.2,478.2z M1080.8,473.1l-1.9-3.1l-3.1,1.2l1.9,3.1L1080.8,473.1z"></path>	<path class="st7" d="M757.5,332.5l-0.4,0.2c-0.3,0.1-0.7,0-0.9-0.3l-2.3-3.7l-3.1,1.2l2.2,3.5c0.2,0.4,0.1,0.9-0.4,1.1l-0.4,0.2  c-0.3,0.1-0.7,0-0.9-0.3l-2.3-3.7l-2.1,0.9c-0.4,0.2-0.8,0-1-0.4l0,0c-0.2-0.4,0-0.8,0.4-1l1.8-0.7l-1.9-3.2l-2,0.8  c-0.4,0.2-0.8,0-1-0.4l0,0c-0.2-0.4,0-0.8,0.4-1l1.7-0.7l-2.1-3.4c-0.2-0.4-0.1-0.9,0.4-1.1l0.4-0.1c0.3-0.1,0.7,0,0.9,0.3l2.2,3.6  l3.1-1.2l-2.1-3.4c-0.2-0.4-0.1-0.9,0.4-1.1l0.3-0.1c0.3-0.1,0.7,0,0.9,0.3l2.2,3.6l2.1-0.9c0.4-0.2,0.8,0,1,0.4l0,0  c0.2,0.4,0,0.8-0.4,1l-1.8,0.7l1.9,3.1l2-0.8c0.4-0.2,0.8,0,1,0.4l0,0c0.2,0.4,0,0.8-0.4,1l-1.7,0.7l2.2,3.5  C758.1,331.9,757.9,332.4,757.5,332.5z M753.1,327.4l-1.9-3.1l-3.1,1.2l1.9,3.1L753.1,327.4z"></path>	<path class="st18" d="M277.4,576.1c7.5,6.6,2.6,11.4-0.4,9.7c-1.3-0.7-1.6-2.4-0.5-3.5c0.5-0.5,1.6-0.1,1.5,0.7  c-0.1,0.6,0.6,0.7,0.8,0c0.2-0.9-0.6-1.8-1.1-2.5c-1.2-1.6-2.7-3.6-4.9-3.5c-3.3,0.1-6.1,4-3.4,8.4c3.9,6.5,15.1,4.2,15.8-3.5  c0.3-4.2-2.1-8.2-5.8-10.1c-0.7-0.4-0.1-1.4,0.6-1.2c5.2,1.1,8.1,7.1,7.3,12.1c-0.9,5.2-5.6,8.5-10.6,8.6  c-5.3,0.1-10.4-3.6-10.7-9.1C265.4,576.1,272.1,571.5,277.4,576.1z"></path>	<path class="st18" d="M592.7,207.4c7.5,6.5,2.6,11.4-0.4,9.7c-1.3-0.7-1.6-2.4-0.5-3.5c0.5-0.5,1.6-0.1,1.5,0.7  c-0.1,0.6,0.6,0.7,0.8,0c0.2-0.9-0.6-1.8-1.1-2.5c-1.2-1.6-2.7-3.6-4.9-3.5c-3.3,0.1-6.1,3.9-3.4,8.4c3.9,6.5,15.1,4.2,15.8-3.5  c0.3-4.2-2.1-8.2-5.8-10.1c-0.7-0.4-0.1-1.4,0.6-1.2c5.2,1.1,8.1,7,7.3,12.1c-0.9,5.2-5.6,8.5-10.6,8.6c-5.3,0.1-10.4-3.6-10.7-9.1  C580.7,207.5,587.4,202.9,592.7,207.4z"></path>	<g>		<polygon class="st18" points="1066.8,553.3 1059.8,552.1 1059.5,556.9 1057.2,556.7 1057.7,549.5 1064.7,550.6 1065,545.1    1071.4,546 1072.5,540.3 1074.7,540.7 1073.2,548.6 1067.1,547.7   "></polygon>	</g>	<g>		<polygon class="st18" points="217.2,453.3 224.2,452.1 224.5,456.9 226.8,456.7 226.3,449.5 219.3,450.6 219,445.1 212.6,446    211.5,440.3 209.3,440.7 210.8,448.6 216.9,447.7   "></polygon>	</g>	<g>		<path class="st12" d="M175.4,770.1L175.4,770.1c0,1.1,1.5,2,3.4,2h853c1.9,0,3.4-0.9,3.4-2l0,0c0-1.1-1.5-2-3.4-2h-853   C177,768.1,175.4,769,175.4,770.1z"></path>	</g>	<path class="st10" d="M190.4,520.5l-3.9,2.5c0,0,1,1.4,2.8,0.4C191.4,522.1,190.4,520.5,190.4,520.5z"></path>	<g>		<g>			<g>				<path class="st19" d="M375.9,574.8c0,0,8.5-0.8,13.7,8.4c5.2,9.2,12.8,31.9,15.6,33.7c2.9,1.8,20.2,13.2,22.7,12     c2.5-1.1,7.1-12.9,8.9-13.4c1.8-0.5,2.1,1.4,1.4,2.6c-0.6,1.2-1.5,2.7-0.8,3.1c0.7,0.4,0.7,0.4,0.7,0.4s5.7-3.5,7.3-3     c1.6,0.5-2.6,6.9-2.3,8.6c0.3,1.7-2.7,5-3.2,5.9c-0.5,1-0.8,2.5-10,3.6c-9.2,1.1-23.9-2.8-32-9.1c-10.8-8.4-22.8-40.1-23.5-43.5     C372.8,575.6,375.9,574.8,375.9,574.8z"></path>				<path class="st5" d="M390.9,581.3c-5.4-9.1-15.2-6.1-15.2-6.1s-3.8,0.6-2,9.1c0.4,2,4.9,14.5,10.7,25.4     c3.4-4.3,10.1-9,15.2-11.4C397,592.4,393.2,585.1,390.9,581.3z"></path>				<path class="st20" d="M410.2,730.7c0,0,5.5,22.3,9.6,25.9c4.1,3.5,17.4,10.2,13.9,10.9c-3.5,0.7-29.3,1.3-28.6-3     c0.7-4.3,1.4-7,1.4-7l-6.8-16L410.2,730.7z"></path>				<path class="st16" d="M435.4,768.4c-6.3,0.6-24.6,1.3-30,0.6c0,0-1-0.2-0.3-4.5c0.2-1.1,0.3-2,0.5-2.9c4.9,1.3,15.4-1.4,19.6-2     c4.5,2.2,9.7,5.4,11.3,5.7C438.9,765.7,438.9,768,435.4,768.4z"></path>				<path class="st20" d="M350.9,746.4c0,0,1,9,1,11.5s-2.3,9.5-1.2,10.6c1.1,1.1,31.8,0.9,31.8-0.1c0-1-5.4-4.1-12.8-6.2     c-7.4-2.1-5.6-10.9-6.5-15.9H350.9z"></path>				<path class="st16" d="M383,769.3c0-2.4-5-4.6-11.6-6.6c-7,2.3-16.6,0.4-20.2-0.3c-1.1,2.9-1.6,6.8-0.8,7     C351.3,769.7,383,769.7,383,769.3z"></path>				<polygon class="st16" points="392.5,637.3 418.6,745.2 402.1,748.9 362.6,643.5     "></polygon>				<path class="st21" d="M386.4,642.4l-8.5,25.1l-10.8,83l-16.5-1.1c0,0-5.6-82.7-3.6-105.3L386.4,642.4z"></path>				<path class="st22" d="M398.9,642.8c-3.5-13.3-8.1-31.2-9.3-39c-2.1-13-9.2-28.9-9.2-28.9s-7.8-1.2-13.6-0.9     c-11.2,0.6-27.4,4.2-27.4,4.2l5.7,72.4C362.7,650.2,382.1,648.7,398.9,642.8z"></path>				<path class="st23" d="M341.4,539c-0.1,6.8,2.1,9.7,6.3,15c4.2,5.3,11.7,11.6,11.7,11.6l20.9-13.4c0,0-0.1-2.9-0.9-11.4     C376.4,506.2,341.5,533.7,341.4,539z"></path>				<path class="st20" d="M346.7,553.2c0.8,2.6,3,4.3,4.8,3.8c1.8-0.6,2.6-3.2,1.7-5.8c-0.8-2.6-3-4.3-4.8-3.8     C346.7,547.9,345.9,550.5,346.7,553.2z"></path>				<path class="st20" d="M375.5,548.3c-0.8,2.7,0,5.3,1.8,5.8c1.8,0.5,3.9-1.2,4.7-3.9c0.8-2.7,0-5.3-1.8-5.8     C378.4,544,376.3,545.7,375.5,548.3z"></path>				<path class="st20" d="M356.5,561.4l-0.8,14.2c0,0,1.7,4.8,9.5,4.8c5.7,0,5.1-12.8,5.1-12.8l-0.5-6.2H356.5z"></path>				<path class="st24" d="M370,572.1c0,0,0.1,0,0.1,0c0.2-2.4,0.1-4.5,0.1-4.5l-0.5-6.2h-13.3l-0.1,1.9     C358,566.2,362.9,572.1,370,572.1z"></path>				<path class="st20" d="M362.1,529c-4.5,0.7-7.8,3.8-10.2,7.7c-4.7,7.7-0.9,19,0.4,21.6c1.3,2.6,6.5,9.3,14.2,9.3     s12.3-9,12.9-15.8c0.9-9.2-0.8-18.7-9.5-21.9C367.6,529,364.8,528.6,362.1,529z"></path>				<path class="st25" d="M349.7,547.3c0,0,2.2-12.2,9.1-15c6.9-2.7,17.2-2,20.4,9.9c0,0-2-14.4-5.7-18.2     c-3.8-3.8-11.4-4.2-11.4-4.2l2.5,2.5c0,0-2.8-0.9-6.9-0.9c-4.1,0-4.9,1-4.9,1s2.8,0.5,2.8,1.4c0,0.9-7.5,1.2-7.5,1.2     s-0.6,6.1-3,8.5C342.7,536,349.7,547.3,349.7,547.3z"></path>				<path class="st26" d="M458.3,606c-2.7-1.6-8.4-4.2-11.8-4c-0.7,0-1.4-0.3-1.7-0.9l-6.5-11.4c-0.4-0.6-0.3-1.4,0-2     c1.9-2.9,2.4-9.2,2.4-12.4l-14.2-8.4c-2.7,1.6-7.6,5.3-9.1,8.5c-0.3,0.6-0.9,1.1-1.6,1.1l-12.8,0c-0.7,0-1.3-0.4-1.7-1.1     c-1.6-3.2-6.6-6.9-9.3-8.4l-14,8.4c0,3.2,0.7,9.5,2.6,12.4c0.4,0.6,0.4,1.4,0.1,2l-6.3,11.4c-0.3,0.6-1,1-1.7,0.9     c-3.4-0.2-9,2.3-11.7,4l0.2,16.8c2.7,1.6,8.4,4.2,11.8,4c0.7,0,1.4,0.3,1.7,0.9l6.5,11.4c0.4,0.6,0.3,1.4,0,2     c-1.9,2.9-2.4,9.2-2.4,12.4L393,662c2.7-1.6,7.6-5.3,9.1-8.5c0.3-0.6,0.9-1.1,1.6-1.1l12.8,0c0.7,0,1.3,0.4,1.7,1.1     c1.6,3.2,6.6,6.9,9.3,8.4l14-8.4c0-3.2-0.7-9.5-2.6-12.4c-0.4-0.6-0.4-1.4-0.1-2l6.3-11.4c0.3-0.6,1-1,1.7-0.9     c3.4,0.2,9-2.3,11.7-4L458.3,606z M409.7,637.7c-12.8,0-23.3-10.4-23.3-23.3c0-12.8,10.4-23.3,23.3-23.3s23.3,10.4,23.3,23.3     C433,627.3,422.6,637.7,409.7,637.7z"></path>			</g>		</g>		<path class="st20" d="M370.7,622.9c3.3,3.4,17.3,10.9,21.3,13.4c0.4,0,2.8-0.1,6.2,1.9c2.4,1.4,7.4,2,6.2,3.3   c-1.2,1.3-5.5-0.9-5.3,0.4c0.2,1.3,8.8,6.5,7.8,7.7c-1.1,1.2-8.9-4.2-8.7-3.1c0.2,1.1,7.9,5.3,6.4,7c-1.5,1.7-8.6-5.7-9.4-4.8   c-0.8,0.9,3.8,5.5,2.6,6.8c-1.2,1.4-5.9-6.5-5.8-5.8c0.1,0.7,1.1,5.5,0.1,5.6c-1.1,0.2-5-11.7-7.2-13l0,0c-6-2.4-20-9.5-23.3-12.9   c-5.2-5.5-13.8-15.9-16.8-21.4c-5.5-10.2-1.8-13.2-1.8-13.2s4.2-7.5,9.7,0.3C357.5,601.8,366.8,618.8,370.7,622.9z"></path>		<path class="st5" d="M337.2,578.8c-1.9,0.7-4.2,4.7-3.6,10c0.9,7.4,6.5,19.6,10.8,25.3c0,0,12.1-4.1,16.6-9.9   c-0.5-1.4-7.7-15.4-13.4-21.4C342.6,577.5,339.8,577.8,337.2,578.8z"></path>	</g></g><path class="st3" d="M-232-124.2c-0.3-2.3-0.9-4.5-1.7-6.6c-0.2-0.8-0.8-1.5-1.5-1.9c-0.5-0.1-1-0.1-1.5,0l-7.8,1.2 c-0.6,0-1.3,0.3-1.8,0.7c-1,1.1,0,2.8,0,4.2c0,1.7-1.5,3-3.1,3.4c-1.6,0.3-3.3,0.3-4.9-0.1l-10.9-1.7c3.2-1,6-2.9,8.2-5.5 c1.4-1.7,2.2-4.8,0.1-5.7c-0.6-0.2-1.3-0.2-1.9-0.2c-4.9,0-8.8-4.1-13.4-5.8c-6-2.1-12.8-0.1-16.7,5l5.8,0.3c0.5,0,1.1,0.1,1.5,0.4 c1.3,1-0.3,3.1-0.1,4.7c0.2,2.1,3.1,2.6,5.2,2.8s4.8,1.9,3.8,3.8c-10.7,3.7-21.5-7.2-32.7-5.8c-2.8,0.3-5.5,1.4-8.3,2.1 c-16.9,4.3-34.4-7.1-51.6-4.7c-3.8,0.6-7.6,1.6-11.2,2.9c-2.3,0.8-4.8,1.6-6.5,3.4c-1.7,1.8-2.4,4.8-0.8,6.7 c-4.5,0.4-8.9-0.1-13.3-1.3c2.4,1.3,3.9,3.8,3.8,6.5c-7,1.1-13.7,3.2-20.1,6.2c1.2,2,2.6,3.9,4.2,5.6l-8.8,5.7 c3,0.8,4.5,4.8,2.8,7.3c3.1-1.4,5-4.9,8.3-5.6c2.2-0.5,4.4,0.4,6.4,1.2s4.3,1.6,6.4,1c2.1-0.6,3.7-3.4,2.3-5.1 c9.1-2.6,18.5-4.1,27.9-4.4c0.7-0.1,1.5,0,2.1,0.4c1.2,0.9,0.9,2.7,0.8,4.2s1.1,3.5,2.4,2.8c-1.5,1.4-0.2,3.9,1.3,5.4 s3.3,3.4,2.4,5.3c-0.2,0.5-0.6,0.9-0.9,1.4c-0.7,1.4,0.4,3.1,1.7,4.1c1.3,1,2.8,1.6,3.7,3c0.9,1.3,0.5,3.7-1.1,3.8l-4.5-5.7 c-1.6,1.6-2.6,3.6-3.1,5.8c4.8,3.9,5.5,11.9,1.5,16.6c-2.1,2.4-5,3.8-7.5,5.8c-2.6,1.9-4.9,4.6-4.9,7.7c0,5.5-0.4,10.6,1.6,15.6 c3.8,9.4,8.2,18.5,13.1,27.3c1.3,2.3,3,4.8,5.6,5.3c-3.3-8.1-6.3-16.3-8.9-24.6c1.7,0,3.7,0.1,4.7,1.5c0.8,1.2,0.7,2.7,0.9,4.1 c0.3,1.4,0.9,2.7,1.6,3.8l15.8,28.2c1.3,2.3,2.8,4.8,5.3,5.8c1.6,0.6,3.5,0.5,4.9,1.4c1.2,0.7,1.9,1.9,3.1,2.5 c3.3,1.8,8-1.7,11.1,0.5c0.9,0.6,1.5,1.6,2.3,2.3c2.9,2.5,7.6,0.8,10.9,2.7c2.1,1.2,3.2,3.6,4.4,5.8c2.9,5.4,7.5,10.8,13.6,11.2 c1.9,0.1,3.8-0.2,5.8,0.2s3.7,2.1,3.4,4c-0.5,3.3,1.1,6.8,0.7,10.1c-0.8,6-9.2,8.6-10,14.6c-0.2,1.3,0.1,2.7-0.2,3.9 c-0.4,1.5-1.5,2.9-2,4.4c-0.8,3,1.3,5.9,3.6,7.9s5.1,3.7,6.4,6.5c1.3,2.9,0.7,6.4,1.1,9.6c1,7,7,12.2,13.2,15.5c1.9,1,3.9,2,5.2,3.8 c1.6,2.3,1.4,5.4,2,8.1c1.3,6.8,7,12.3,7.2,19.2c0.1,4.9-2.6,9.3-4.2,13.9c-3.1,8.9-2.1,18.8,2.7,26.9c1.2,2,2.7,4,3.5,6.2 c1.5,4,1,8.5,2.5,12.5c1.9,5.3,7,9.7,6.5,15.3c2.3,4.8,7.5,7.2,12.7,8.7l9.3,2.6c1.8,0.5,3.6,1,5.5,0.6c1.8-0.4,3.5-1.9,3.5-3.7 c-4.5-1-9.2-2.1-13-4.9c-3.8-2.8-6.3-7.7-4.9-12.2c0.7-2.1,2.1-4.4,0.7-6.2c-0.8-1-2.2-1.2-3-2.1c-1.3-1.4-0.9-3.7,0.1-5.4 c1-1.7,2.4-3.2,2.8-5.1c0.4-2.2-0.6-4.4-2.5-5.5c1.7-0.6,3.3-1.6,4.6-2.9c1.2-1.4,1.8-3.5,0.8-5.1c2.8,0.4,6.2,0.5,8-1.6 c1.5-1.7,1.4-4.3,0.8-6.5s-1.6-4.3-1.6-6.6c6.5,0.3,13,0.1,19.5-0.7c-0.9-3.2-3.1-5.8-5.9-7.4c2.9-0.5,5.6-4,6.5-6.8 c0.9-2.8,0.7-5.9,0.1-8.8c-0.2-0.8-0.3-1.5-0.1-2.3c0.3-1.1,1.4-1.7,2.3-2.2l14.6-8.3c0.9-0.4,1.6-1,2.3-1.7 c1.5-1.8,1.3-4.5,0.5-6.7c-0.8-2.2-2-4.3-2.3-6.6c-0.9-7,6.6-12,9.1-18.6c1-2.6,1.2-5.4,1.4-8.1c0.2-3,0.2-6.4-2.1-8.3 c-2.3-1.9-5.6-1.4-7.9-3.1c-2.1-1.5-2.8-4.6-5.1-5.8c-2.1-1.1-4.7-0.4-7-1c-4.1-0.9-6.6-5.6-10.8-6.1c-2.3-0.2-5,0.9-6.9-0.5 c-1.7-1.2-1.8-3.6-2.1-5.7c-1.2-6.5-6.2-11.6-12.8-12.8c-2.4-0.4-5-0.2-7.1-1.5c-2.1-1.3-3-3.8-4.7-5.7c-2.6-3-6.8-4.1-10.7-5 l-15.8-3.7c-2.8-0.7-6.4-1-7.9,1.4c-0.4,0.9-0.8,1.9-0.9,2.9c-1.2,3.8-4.6,6.4-8.6,6.5c-1.3-2.3-3.5-3.9-6-4.6 c-1.6-0.4-3.3-0.5-4.8-1.1c-3.4-1.7-4.8-5.7-3.1-9.1c0.1-0.1,0.1-0.2,0.2-0.3c1.9-3.3,1.3-7.5-1.4-10.2c-2.7-2.4-6.6-3-10.2-2.8 c-0.9-2.1,0.6-4.4,2.3-5.9s3.8-3,4.1-5.2c0.6-3.5-3.9-6.2-7.3-5.1s-5.6,4.3-7,7.6c-0.8,1.9-1.5,3.8-2.8,5.4 c-1.3,1.5-3.4,2.7-5.4,2.2c-2.8-0.7-3.8-4-4.5-6.9c-0.8-3.8-1.7-7.6-1.5-11.5c0.2-3.9,1.5-7.9,4.3-10.5c4.7-4.3,11.8-3.8,18.1-3.2 c-1.5-1.7-1.1-4.5,0.5-6.1c1.7-1.5,4-2.1,6.3-1.5c1.9,0.4,3.6,1.4,4.8,2.9c1.8,2.2,2.3,5.1,3.6,7.6s4.4,4.6,6.9,3.3 c2.1-1.1,2.5-4.1,1.9-6.5s-1.7-4.7-1.5-7.1c0.4-4.6,5.2-7.4,9.4-9.3c4.2-1.9,9.1-4.5,9.7-9.1c0-0.9,0.2-1.8,0.5-2.6 c0.5-0.7,1.1-1.4,1.9-1.8c12.3-8.2,24.9-16.4,39-20.9c0.7-0.2,0.8,0,1.5-0.2c1-0.6,0.4-2.3-0.7-2.9s-2.3-1.2-2.6-2.4 c-0.2-0.9,0.3-1.7,0.5-2.6c0.3-2.2-2.3-4.2-4.3-3.3c-1.1-1.5,1.1-3.2,2.9-3.7c5.4-1.5,11-2.4,16.7-2.7c0.6-0.1,1.3,0,1.9,0.3 c0.9,0.7,0.8,2.2,0.2,3.1c-0.7,0.9-1.7,1.5-2.5,2.3c-1.9,1.8-2.6,4.5-1.8,7c2.9,1.5,6.2,3.1,9.4,2.5c3.2-0.6,6.2-4.2,4.6-7.1 c-1.4-2.7-5.7-3.3-6.5-6.3c-0.9-3.5,4.1-6.6,3-10c-0.5-1.5-2-2.4-3.1-3.5c-2.8-2.7-3.5-6.9-2-10.4c-3.8,0.7-7.7-0.5-10.4-3.3 c-2.5-2.5-4.5-6.5-8-6.4c-3.2,0.1-6,3.8-9.1,2.7c-0.8-0.3-1.5-0.9-2.3-0.5c-0.5,0.3-0.8,0.8-0.8,1.4c-0.8,3.7,0.6,7.9-1.5,11.1 c-2.2,3.5-7.2,3.9-9.9,7.1c-1.4,1.7-2,4-3.3,5.8c-1.3,1.8-4.1,2.9-5.7,1.4c1.6-3.3,0.7-7.3-2.1-9.6c-1.5-1-3.1-1.7-4.7-2.3 c-1.9-0.8-3.6-1.8-5.3-2.9c-0.8-0.5-1.5-1.2-1.9-2.1c-0.3-1.1-0.3-2.2,0.1-3.3c1.6-4.7,5.7-8.1,10.7-8.8c2.1-0.3,4.6-0.2,6-1.8 c0.8-0.8,1.1-2.1,2.2-2.5c0.7-0.1,1.4,0,2,0.3l7.9,2.8c0.9,0.4,1.8,0.6,2.8,0.5c1-0.1,1.7-1,1.6-2c-0.3-1.3-2.3-1.9-2.1-3.3 c0.1-0.4,0.3-0.8,0.7-1.1c5.8-6.1,14-9.4,22.3-8.8c1,1.6-0.6,3.6-1.9,5c-1.3,1.4-2.4,3.8-0.8,5c0.6,0.3,1.4,0.5,2.1,0.5 c1.9,0.3,3.8,0.8,5.6,1.7c2.7,1.2,5.4,2.5,8,3.9c-0.2-1.7-0.5-3.5,0.2-5.2c0.7-1.6,2.5-2.9,4.1-2.3c1.6,0.6,2.4,2.7,4,2.9 c2.2,0.3,3.1-3,2.2-5.1c-0.9-2-2.8-3.7-2.9-6c-0.1-1.5,0.5-3.4-0.8-4.3c-0.4-0.3-0.9-0.4-1.4-0.5l-30-5.5c-1.8-0.3-4.4-0.1-4.4,1.7 c0,1,0.9,2,0.5,2.9c-0.4,0.9-1.8,0.9-2.9,1.3c-1.6,0.5-2.4,2.4-2.2,4.1c0.3,1.7,0.9,3.2,1.9,4.6C-227-123.2-230-123.4-232-124.2 L-232-124.2z"></path><circle class="st2" cx="-305.6" cy="-76.9" r="9.2"></circle><circle class="st2" cx="-222.4" cy="120.1" r="9.2"></circle><path class="st8" d="M872.3,552c0,6.4,0,12.9,0,19.3c0,1.1,0.3,1.5,1.4,1.6c8.8,0.6,17.5,1.3,26.3,2c2.2,0.2,4.4,0.3,6.7,0.4 c1.2,0,1.5,0.4,1.5,1.6c-0.2,9.3-0.3,18.6-0.6,28c-0.2,6.7-0.4,13.5-0.6,20.2c0,1.4-0.4,2.4-1.5,3.4c-4.6,4.4-7.4,10-9.7,15.9 c-3.7,9.5-5.5,19.5-6.5,29.7c-0.7,6.8-0.7,13.7-0.9,20.5c-0.5,13.1-5.6,24.5-13.5,34.7c-8.4,11-18.9,19.7-30.3,27.3 c-11.6,7.7-23.9,14.2-36.7,19.4c-0.8,0.3-1.6,0.7-2.6,0.3c-21-8.7-40.5-19.7-57.2-35.4c-8.5-8-15.6-17-20-27.9 c-2.7-6.7-4.1-13.7-4.1-20.9c0-13.6-1.1-27-4.8-40.2c-2-7.3-4.8-14.2-9.5-20.3c-0.6-0.8-1.1-1.6-1.9-2.2c-2.1-1.4-2.4-3.4-2.4-5.7 c-0.4-15.4-0.9-30.8-1.1-46.2c0-1.7,0.5-2,2.1-2.1c11.2-0.5,22.4-1.4,33.7-2.4c1.4-0.1,1.3-0.8,1.3-1.8c0-11.6-0.1-23.2,0-34.8 c0.2-20.1,7.8-37,23.2-49.8c19.1-15.9,41-20,64.3-11.6c23.5,8.5,37.5,25.8,42.4,50.4c0.7,3.7,1,7.4,1,11.1 C872.3,541.5,872.3,546.7,872.3,552z M892.2,599c0-2.1-0.1-4.6,0-7.1c0.1-1.5-0.5-1.9-1.9-1.9c-2.9,0-5.8-0.2-8.6-0.4 c-12.5-1-25-2-37.5-3.5c-10.3-1.2-20.6-2.5-30.9-3.9c-2.8-0.4-5.7-1.3-8.6-0.8c-14.5,2.2-29,3.9-43.6,5.5c-13,1.4-26.1,2.5-39.1,3.1 c-1.4,0.1-1.7,0.5-1.7,1.8c0.2,9.3,0.3,18.5,0.5,27.8c0.1,4.4,0.4,8.8,0.5,13.2c0,0.6,0,1.2,0.6,1.6c5.8,5.4,8.6,12.5,10.8,19.9 c3.4,11.5,4.2,23.4,4.3,35.3c0,3,0.3,6,1,8.9c2.5,11.3,8.6,20.6,16.6,28.7c14.5,14.7,32,24.6,50.9,32.5c0.8,0.3,1.4,0.2,2-0.1 c8.2-3.3,16-7.2,23.6-11.7c12-7.1,23.2-15.3,32-26.3c5.5-6.8,9.6-14.3,11.6-23c1.4-5.8,0.9-11.7,1.2-17.6c0.5-8.7,1.4-17.4,3.8-25.8 c2-7.1,4.5-14,9.7-19.5c1.5-1.5,2-3.1,2.1-5.1C891.7,620.3,891.9,609.8,892.2,599z M848.9,551.2c0-1.9,0-3.9,0-5.8 c-0.1-5.6,0.3-11.2-0.7-16.7c-3.7-20.5-22.8-36.4-45.7-34.3c-20.4,1.8-37.3,19.8-37.7,40.7c-0.2,11.2,0,22.5-0.1,33.8 c0,1.1,0.3,1.4,1.4,1.3c11.6-1.4,23.2-2.9,34.7-4.5c2.3-0.3,4.6-0.9,7-0.6c13,2,26.1,3.6,39.2,5.2c1.4,0.2,2,0,1.9-1.7 C848.8,562.8,848.9,557,848.9,551.2z"></path><path class="st27" d="M892.2,599c-0.3,10.8-0.6,21.3-0.8,31.7c-0.1,2-0.6,3.5-2.1,5.1c-5.2,5.5-7.8,12.4-9.7,19.5 c-2.3,8.4-3.3,17.1-3.8,25.8c-0.3,5.9,0.2,11.8-1.2,17.6c-2,8.6-6.1,16.1-11.6,23c-8.9,11-20,19.2-32,26.3 c-7.6,4.5-15.4,8.4-23.6,11.7c-0.7,0.3-1.3,0.4-2,0.1c-18.8-7.9-36.4-17.8-50.9-32.5c-8-8.1-14.1-17.3-16.6-28.7 c-0.6-2.9-1-5.9-1-8.9c-0.1-11.9-0.9-23.8-4.3-35.3c-2.2-7.4-5-14.5-10.8-19.9c-0.5-0.5-0.5-1-0.6-1.6c-0.2-4.4-0.4-8.8-0.5-13.2 c-0.2-9.3-0.3-18.5-0.5-27.8c0-1.3,0.3-1.7,1.7-1.8c13.1-0.6,26.1-1.8,39.1-3.1c14.6-1.5,29.1-3.3,43.6-5.5c2.9-0.4,5.7,0.4,8.6,0.8 c10.3,1.4,20.6,2.7,30.9,3.9c12.5,1.4,25,2.5,37.5,3.5c2.9,0.2,5.8,0.4,8.6,0.4c1.5,0,2,0.4,1.9,1.9 C892.1,594.4,892.2,596.9,892.2,599z M797,708.5c3.5-0.1,6.7-1.4,9.4-4.1c11.9-12.1,23.9-24.3,35.8-36.4c9-9.2,18-18.4,27-27.6 c2.3-2.4,2.7-5.3,1.2-7.9c-2-3.2-5.8-3.8-9.4-1.5c-20.9,13.7-41.8,27.5-62.7,41.2c-1.2,0.8-1.9,0.7-3,0c-7.3-4.9-14.7-9.8-22.1-14.6 c-4.1-2.7-9.3-2-12.6,1.6c-3.1,3.4-3.5,8.8-0.5,12.4c8.8,10.8,17.7,21.5,26.7,32.3C789.3,707.1,792.8,708.5,797,708.5z"></path><path class="st28" d="M797,708.5c-4.3-0.1-7.8-1.5-10.4-4.6c-8.9-10.7-17.8-21.5-26.7-32.3c-2.9-3.6-2.6-9,0.5-12.4 c3.3-3.6,8.5-4.3,12.6-1.6c7.4,4.9,14.8,9.7,22.1,14.6c1.1,0.7,1.8,0.8,3,0c20.9-13.8,41.8-27.5,62.7-41.2c3.6-2.4,7.5-1.8,9.4,1.5 c1.6,2.6,1.2,5.5-1.2,7.9c-9,9.2-18,18.4-27,27.6c-11.9,12.1-23.8,24.3-35.8,36.4C803.8,707.2,800.6,708.4,797,708.5z"></path><g>	<path class="st2" d="M654.8,318c3.5-2.1,5.9-5.9,5.9-10.3v-12.8c0-6.6-5.4-12-12-12H500.2c-6.6,0-12,5.4-12,12v12.8  c0,6.6,5.4,12,12,12h138.1c6.4,6.2,20.1,9.5,25.4,10.6C656.4,328.3,655.1,321.1,654.8,318z M502.5,306.7c-2.8,0-5-2.2-5-5  c0-2.8,2.2-5,5-5s5,2.2,5,5C507.5,304.5,505.2,306.7,502.5,306.7z M520.7,306.7c-2.8,0-5-2.2-5-5c0-2.8,2.2-5,5-5c2.8,0,5,2.2,5,5  C525.7,304.5,523.5,306.7,520.7,306.7z M537.4,306.7c-2.8,0-5-2.2-5-5c0-2.8,2.2-5,5-5s5,2.2,5,5  C542.3,304.5,540.1,306.7,537.4,306.7z M554.3,306.7c-2.8,0-5-2.2-5-5c0-2.8,2.2-5,5-5c2.8,0,5,2.2,5,5  C559.3,304.5,557.1,306.7,554.3,306.7z M570.9,306.7c-2.8,0-5-2.2-5-5c0-2.8,2.2-5,5-5c2.8,0,5,2.2,5,5  C575.8,304.5,573.6,306.7,570.9,306.7z"></path>	<path class="st2" d="M663.7,330.3c0.7,0.2,1.4,0.3,2.2,0.4C665.8,330.7,665,330.6,663.7,330.3z"></path></g><g>	<path class="st3" d="M250.9,648.5c3.5-2.1,5.9-5.9,5.9-10.3v-12.8c0-6.6-5.4-12-12-12H96.3c-6.6,0-12,5.4-12,12v12.8  c0,6.6,5.4,12,12,12h138.1c6.4,6.2,20.1,9.5,25.4,10.6C252.5,658.8,251.2,651.6,250.9,648.5z M98.6,637.2c-2.8,0-5-2.2-5-5  c0-2.8,2.2-5,5-5s5,2.2,5,5C103.5,634.9,101.3,637.2,98.6,637.2z M116.8,637.2c-2.8,0-5-2.2-5-5c0-2.8,2.2-5,5-5c2.8,0,5,2.2,5,5  C121.8,634.9,119.6,637.2,116.8,637.2z M133.4,637.2c-2.8,0-5-2.2-5-5c0-2.8,2.2-5,5-5s5,2.2,5,5  C138.4,634.9,136.2,637.2,133.4,637.2z M150.4,637.2c-2.8,0-5-2.2-5-5c0-2.8,2.2-5,5-5c2.8,0,5,2.2,5,5  C155.4,634.9,153.2,637.2,150.4,637.2z M166.9,637.2c-2.8,0-5-2.2-5-5c0-2.8,2.2-5,5-5c2.8,0,5,2.2,5,5  C171.9,634.9,169.7,637.2,166.9,637.2z"></path>	<path class="st3" d="M259.8,660.8c0.7,0.2,1.4,0.3,2.2,0.4C261.9,661.2,261.1,661.1,259.8,660.8z"></path></g></svg>