<svg xmlns="http://www.w3.org/2000/svg" xmlns:xlink="http://www.w3.org/1999/xlink" id="Layer_1" x="0px" y="0px" viewBox="0 0 800 528.7" style="enable-background:new 0 0 800 528.7;" xml:space="preserve"><style type="text/css">	.st0{fill:#337166;}	.st1{opacity:0.8;fill:none;stroke:#FBBF24;stroke-width:1.5396;stroke-miterlimit:7.698;enable-background:new    ;}	.st2{fill:#FBBF24;}	.st3{fill:none;stroke:#FBBF24;stroke-width:1.5396;stroke-miterlimit:7.698;}</style><title>outreach</title><path class="st0" d="M186,98.2c-0.3-2.3-0.9-4.5-1.7-6.6c-0.2-0.8-0.8-1.5-1.5-1.9c-0.5-0.1-1-0.1-1.5,0l-7.8,1.2 c-0.6,0-1.3,0.3-1.8,0.7c-1,1.1,0,2.8,0,4.2c0,1.7-1.5,3-3.1,3.4c-1.6,0.3-3.3,0.3-4.9-0.1l-10.9-1.7c3.2-1,6-2.9,8.2-5.5 c1.4-1.7,2.2-4.8,0.1-5.7c-0.6-0.2-1.3-0.2-1.9-0.2c-4.9,0-8.8-4.1-13.4-5.8c-6-2.1-12.8-0.1-16.7,5l5.8,0.3c0.5,0,1.1,0.1,1.5,0.4 c1.3,1-0.3,3.1-0.1,4.7c0.2,2.1,3.1,2.6,5.2,2.8c2.1,0.2,4.8,1.9,3.8,3.8c-10.7,3.7-21.5-7.2-32.7-5.8c-2.8,0.3-5.5,1.4-8.3,2.1 c-16.9,4.3-34.4-7.1-51.6-4.7c-3.8,0.6-7.6,1.6-11.2,2.9c-2.3,0.8-4.8,1.6-6.5,3.4s-2.4,4.8-0.8,6.7c-4.5,0.4-8.9-0.1-13.3-1.3 c2.4,1.3,3.9,3.8,3.8,6.5c-7,1.1-13.7,3.2-20.1,6.2c1.2,2,2.6,3.9,4.2,5.6L0,124.6c3,0.8,4.5,4.8,2.8,7.3c3.1-1.4,5-4.9,8.3-5.6 c2.2-0.5,4.4,0.4,6.4,1.2s4.3,1.6,6.4,1c2.1-0.6,3.7-3.4,2.3-5.1c9.1-2.6,18.5-4.1,27.9-4.4c0.7-0.1,1.5,0,2.1,0.4 c1.2,0.9,0.9,2.7,0.8,4.2s1.1,3.5,2.4,2.8c-1.5,1.4-0.2,3.9,1.3,5.4s3.3,3.4,2.4,5.3c-0.2,0.5-0.6,0.9-0.9,1.4 c-0.7,1.4,0.4,3.1,1.7,4.1s2.8,1.6,3.7,3c0.9,1.3,0.5,3.7-1.1,3.8l-4.5-5.7c-1.6,1.6-2.6,3.6-3.1,5.8c4.8,3.9,5.5,11.9,1.5,16.6 c-2.1,2.4-5,3.8-7.5,5.8s-4.9,4.6-4.9,7.7c0,5.5-0.4,10.6,1.6,15.6c3.8,9.4,8.2,18.5,13.1,27.3c1.3,2.3,3,4.8,5.6,5.3 c-3.3-8.1-6.3-16.3-8.9-24.6c1.7,0,3.7,0.1,4.7,1.5c0.8,1.2,0.7,2.7,0.9,4.1c0.3,1.4,0.9,2.7,1.6,3.8l15.8,28.2 c1.3,2.3,2.8,4.8,5.3,5.8c1.6,0.6,3.5,0.5,4.9,1.4c1.2,0.7,1.9,1.9,3.1,2.5c3.3,1.8,8-1.7,11.1,0.5c0.9,0.6,1.5,1.6,2.3,2.3 c2.9,2.5,7.6,0.8,10.9,2.7c2.1,1.2,3.2,3.6,4.4,5.8c2.9,5.4,7.5,10.8,13.6,11.2c1.9,0.1,3.8-0.2,5.8,0.2s3.7,2.1,3.4,4 c-0.5,3.3,1.1,6.8,0.7,10.1c-0.8,6-9.2,8.6-10,14.6c-0.2,1.3,0.1,2.7-0.2,3.9c-0.4,1.5-1.5,2.9-2,4.4c-0.8,3,1.3,5.9,3.6,7.9 s5.1,3.7,6.4,6.5c1.3,2.9,0.7,6.4,1.1,9.6c1,7,7,12.2,13.2,15.5c1.9,1,3.9,2,5.2,3.8c1.6,2.3,1.4,5.4,2,8.1c1.3,6.8,7,12.3,7.2,19.2 c0.1,4.9-2.6,9.3-4.2,13.9c-3.1,8.9-2.1,18.8,2.7,26.9c1.2,2,2.7,4,3.5,6.2c1.5,4,1,8.5,2.5,12.5c1.9,5.3,7,9.7,6.5,15.3 c2.3,4.8,7.5,7.2,12.7,8.7l9.3,2.6c1.8,0.5,3.6,1,5.5,0.6c1.8-0.4,3.5-1.9,3.5-3.7c-4.5-1-9.2-2.1-13-4.9s-6.3-7.7-4.9-12.2 c0.7-2.1,2.1-4.4,0.7-6.2c-0.8-1-2.2-1.2-3-2.1c-1.3-1.4-0.9-3.7,0.1-5.4c1-1.7,2.4-3.2,2.8-5.1c0.4-2.2-0.6-4.4-2.5-5.5 c1.7-0.6,3.3-1.6,4.6-2.9c1.2-1.4,1.8-3.5,0.8-5.1c2.8,0.4,6.2,0.5,8-1.6c1.5-1.7,1.4-4.3,0.8-6.5c-0.6-2.2-1.6-4.3-1.6-6.6 c6.5,0.3,13,0.1,19.5-0.7c-0.9-3.2-3.1-5.8-5.9-7.4c2.9-0.5,5.6-4,6.5-6.8s0.7-5.9,0.1-8.8c-0.2-0.8-0.3-1.5-0.1-2.3 c0.3-1.1,1.4-1.7,2.3-2.2l14.6-8.3c0.9-0.4,1.6-1,2.3-1.7c1.5-1.8,1.3-4.5,0.5-6.7s-2-4.3-2.3-6.6c-0.9-7,6.6-12,9.1-18.6 c1-2.6,1.2-5.4,1.4-8.1c0.2-3,0.2-6.4-2.1-8.3c-2.3-1.9-5.6-1.4-7.9-3.1c-2.1-1.5-2.8-4.6-5.1-5.8c-2.1-1.1-4.7-0.4-7-1 c-4.1-0.9-6.6-5.6-10.8-6.1c-2.3-0.2-5,0.9-6.9-0.5c-1.7-1.2-1.8-3.6-2.1-5.7c-1.2-6.5-6.2-11.6-12.8-12.8c-2.4-0.4-5-0.2-7.1-1.5 s-3-3.8-4.7-5.7c-2.6-3-6.8-4.1-10.7-5l-15.8-3.7c-2.8-0.7-6.4-1-7.9,1.4c-0.4,0.9-0.8,1.9-0.9,2.9c-1.2,3.8-4.6,6.4-8.6,6.5 c-1.3-2.3-3.5-3.9-6-4.6c-1.6-0.4-3.3-0.5-4.8-1.1c-3.4-1.7-4.8-5.7-3.1-9.1c0.1-0.1,0.1-0.2,0.2-0.3c1.9-3.3,1.3-7.5-1.4-10.2 c-2.7-2.4-6.6-3-10.2-2.8c-0.9-2.1,0.6-4.4,2.3-5.9c1.7-1.5,3.8-3,4.1-5.2c0.6-3.5-3.9-6.2-7.3-5.1c-3.4,1-5.6,4.3-7,7.6 c-0.8,1.9-1.5,3.8-2.8,5.4c-1.3,1.5-3.4,2.7-5.4,2.2c-2.8-0.7-3.8-4-4.5-6.9c-0.8-3.8-1.7-7.6-1.5-11.5s1.5-7.9,4.3-10.5 c4.7-4.3,11.8-3.8,18.1-3.2c-1.5-1.7-1.1-4.5,0.5-6.1c1.7-1.5,4-2.1,6.3-1.5c1.9,0.4,3.6,1.4,4.8,2.9c1.8,2.2,2.3,5.1,3.6,7.6 s4.4,4.6,6.9,3.3c2.1-1.1,2.5-4.1,1.9-6.5c-0.5-2.4-1.7-4.7-1.5-7.1c0.4-4.6,5.2-7.4,9.4-9.3c4.2-1.9,9.1-4.5,9.7-9.1 c0-0.9,0.2-1.8,0.5-2.6c0.5-0.7,1.1-1.4,1.9-1.8c12.3-8.2,24.9-16.4,39-20.9c0.7-0.2,0.8,0,1.5-0.2c1-0.6,0.4-2.3-0.7-2.9 c-1-0.6-2.3-1.2-2.6-2.4c-0.2-0.9,0.3-1.7,0.5-2.6c0.3-2.2-2.3-4.2-4.3-3.3c-1.1-1.5,1.1-3.2,2.9-3.7c5.4-1.5,11-2.4,16.7-2.7 c0.6-0.1,1.3,0,1.9,0.3c0.9,0.7,0.8,2.2,0.2,3.1c-0.7,0.9-1.7,1.5-2.5,2.3c-1.9,1.8-2.6,4.5-1.8,7c2.9,1.5,6.2,3.1,9.4,2.5 s6.2-4.2,4.6-7.1c-1.4-2.7-5.7-3.3-6.5-6.3c-0.9-3.5,4.1-6.6,3-10c-0.5-1.5-2-2.4-3.1-3.5c-2.8-2.7-3.5-6.9-2-10.4 c-3.8,0.7-7.7-0.5-10.4-3.3c-2.5-2.5-4.5-6.5-8-6.4c-3.2,0.1-6,3.8-9.1,2.7c-0.8-0.3-1.5-0.9-2.3-0.5c-0.5,0.3-0.8,0.8-0.8,1.4 c-0.8,3.7,0.6,7.9-1.5,11.1c-2.2,3.5-7.2,3.9-9.9,7.1c-1.4,1.7-2,4-3.3,5.8s-4.1,2.9-5.7,1.4c1.6-3.3,0.7-7.3-2.1-9.6 c-1.5-1-3.1-1.7-4.7-2.3c-1.9-0.8-3.6-1.8-5.3-2.9c-0.8-0.5-1.5-1.2-1.9-2.1c-0.3-1.1-0.3-2.2,0.1-3.3c1.6-4.7,5.7-8.1,10.7-8.8 c2.1-0.3,4.6-0.2,6-1.8c0.8-0.8,1.1-2.1,2.2-2.5c0.7-0.1,1.4,0,2,0.3l7.9,2.8c0.9,0.4,1.8,0.6,2.8,0.5s1.7-1,1.6-2 c-0.3-1.3-2.3-1.9-2.1-3.3c0.1-0.4,0.3-0.8,0.7-1.1c5.8-6.1,14-9.4,22.3-8.8c1,1.6-0.6,3.6-1.9,5c-1.3,1.4-2.4,3.8-0.8,5 c0.6,0.3,1.4,0.5,2.1,0.5c1.9,0.3,3.8,0.8,5.6,1.7c2.7,1.2,5.4,2.5,8,3.9c-0.2-1.7-0.5-3.5,0.2-5.2c0.7-1.6,2.5-2.9,4.1-2.3 s2.4,2.7,4,2.9c2.2,0.3,3.1-3,2.2-5.1c-0.9-2-2.8-3.7-2.9-6c-0.1-1.5,0.5-3.4-0.8-4.3c-0.4-0.3-0.9-0.4-1.4-0.5l-30-5.5 c-1.8-0.3-4.4-0.1-4.4,1.7c0,1,0.9,2,0.5,2.9s-1.8,0.9-2.9,1.3c-1.6,0.5-2.4,2.4-2.2,4.1c0.3,1.7,0.9,3.2,1.9,4.6 C190.9,99.2,188,99,186,98.2L186,98.2z"></path><path class="st0" d="M162,72.6c-3.9-1.3-8.2,0-10.7,3.2c-0.5,0.7-0.9,1.5-0.5,2.3c0.6,1,2.1,0.6,3.2,0.2c1.6-0.6,3.4-0.6,5.1-0.1 c1,0.4,2,1,3,1.3c1,0.4,2.2,0.3,3.1-0.5c0.7-0.7,0.8-1.9,0.8-2.9c0.1-0.7-0.1-1.4-0.6-1.9c-0.4-0.2-0.9-0.4-1.4-0.4 c-1.1-0.2-2.1-0.8-2.8-1.6"></path><path class="st0" d="M172.9,69.6c-1.4-0.1-2.5,1-2.6,2.3c0,0.4,0.1,0.8,0.2,1.1c1.3,0.4,2.7,0.4,4,0.3c1.4-0.2,2.5-1.2,2.8-2.6 c-1.6,0.3-3.2,0-4.6-0.9"></path><path class="st0" d="M209.2,64.6c-3.5,0.8-7,1.9-10.3,3.5c3.2,1.2,5.2,4.4,4.9,7.8c-0.1,0.6-0.1,1.3,0,1.9c0.4,0.9,1.5,1.3,2.4,1.5 c1.7,0.5,3.5,0.8,5.3,0.7c1.8-0.1,3.5-1.1,4.4-2.7c0.3-0.7,0.6-1.5,0.9-2.2c2.3-3.5,9.1,0.7,11.6-2.7c0.9-1.2,0.8-3,1.9-3.9 c0.6-0.4,1.3-0.7,2-0.8c5-1,10-1.7,15-2.1c2.4-0.2,5.5-1.1,5.5-3.5c-9-1.8-18.4-0.5-26.6,3.6c-3,1.5-6.9,4.6-9.7,2.6 c-1.1-0.7-1-2.7-2.5-3.5C212.9,64,210.8,64.3,209.2,64.6L209.2,64.6z"></path><path class="st0" d="M238.7,70.1l4.2,0.8c-3-0.1-5.6,2.2-5.7,5.2l0,0c0,0.2,0,0.5,0,0.7c4,1.3,8.3,0,12.5,0.2s9,3.2,8.3,7.3 c-0.2,1.2-0.9,2.5-0.6,3.7c0.3,0.8,1,1.4,1.4,2.2c0.9,1.6,0.2,3.7-0.9,5.1s-2.6,2.7-3.6,4.2c-2.4,3.9-1,8.9,0.4,13.3 c0.4,1.6,1.2,3.2,2.3,4.5c2.1,2.3,5.6,2.5,8.7,2.5c2.3,0,4.9-0.1,6.3-1.8c1.9-2.3,0.6-5.9,1.8-8.6c1.1-2.4,4-3.5,6.6-4.2 c4.7-1.4,9.6-2.5,14-4.6c5.6-2.6,10.8-6.5,16.9-6.9c1.7-0.1,3.5,0.1,5.1-0.4s3.2-1.9,3.1-3.6c-0.1-1.5-1.3-2.5-2.3-3.6 s-1.7-2.8-0.8-4l16-3c-1.1-3.1-2-7.2,0.6-9.2c0.9-0.7,2.2-1,3-1.9c1.4-1.5,0.7-4.1-0.9-5.3s-3.7-1.5-5.7-1.7 c-7-0.6-14.1-0.2-21.1,0.2L267,63.6c-2.8,0.2-6-0.1-8.5,0.9c-2.2,0.8-3.7,2.3-6.2,2.8C247.9,68.2,242.9,67.6,238.7,70.1L238.7,70.1z "></path><path class="st0" d="M314.5,103.6c-0.4-0.1-0.9,0-1.2,0.3c-0.2,0.3-0.4,0.6-0.4,1c-0.3,1.6,0.1,3.2,0.9,4.5c0.9,1.3,2.4,2.1,4,1.9 c1.9-0.2,3.3-1.9,5.1-2.7c2.7-1.2,14.2-3.1,6.2-7.4c-2.7-1.5-4.5-0.2-6.7,0.8C320,103.2,317.3,103.7,314.5,103.6L314.5,103.6z"></path><path class="st0" d="M384.1,67.7c-0.9,0.4-1.7,1.1-2.2,1.9c-0.5,0.9-0.2,2,0.7,2.6c0.3,0.1,0.7,0.2,1.1,0.2l3.8,0.1 c1.6,0.1,3.6,0.4,4,1.9c0.3,1.1-0.4,2.6,0.5,3.4c0.4,0.3,0.8,0.5,1.3,0.5c1.2,0.3,2.5,0.4,3.8,0.1c2.7-0.8,1.3-2.4,2.2-3.9 c1.3-2.3,1.1-0.9,3.4-2.2c1.7-1,3.9-2.7,2.5-5.2C402.6,62.9,387.7,65.8,384.1,67.7L384.1,67.7z"></path><path class="st0" d="M458.3,65.5l-2.2,0.3c-4.9,0.7-9.9,1.3-14.6,2.8c2.1,0.8,4.2,1.3,6.4,1.5c1.2,0.1,2.4,0.2,3.6,0.5 c2.1,0.6,4.2,2.2,6.2,1.4c1.3-0.5,1.7-1.8,2.7-2.5c0.7-0.5,3.4-1.3,3.7-1.7C466.7,63.9,460.3,65.3,458.3,65.5L458.3,65.5z"></path><path class="st0" d="M468,75.5c-2.9,1.6-5.6,3.6-8.1,5.9c-1,1-2.1,2.2-2,3.6c0.1,1.9,2.1,3,3.8,3.7l7,3c0.8-1.2,0.1-2.8-0.8-4 c-0.8-1.2-1.9-2.5-1.5-3.9c0.4-1.6,2.4-2.2,4.1-2.4c2.7-0.5,9.9-0.4,9.1-4.7C478.5,71.4,470.7,74,468,75.5L468,75.5z"></path><path class="st0" d="M466.5,364.3c-0.7,1.9-0.7,4.2,0.4,5.9c1.3,1.9,3.8,2.6,6.1,2.1c2.2-0.6,4.2-1.9,5.7-3.6c1.3-1.5,2.4-3.2,3.3-5 c1.1-2.8,2-5.8,2.4-8.9l2.2-11.4c0.5-2.5,0.5-10.4-4.2-7.8c-1.3,0.7-4.2,6.2-5.6,7.7c-2.4,2.8-2.7,5.5-4,8.9 C471.2,356.4,468,360,466.5,364.3z"></path><path class="st0" d="M713.8,422.6c-1.5-0.6-3-1.3-4.4-2.1c-1.4,4-2.2,8.1-2.2,12.3l10.5-5.9c1.5-0.9,3.4-2.1,3.3-3.9 c0-0.5-0.2-0.9-0.6-1.1c-0.2-0.1-0.5-0.1-0.7-0.1c-1.5,0.1-3,0.9-4.4,1.4c-1.5,0.5-3.2,0.8-4.5,0"></path><path class="st0" d="M769.1,426.1c-1.1,0.3-2.3,0.7-3.4,1.2c-2.4,1.2-4,3.5-6.2,5.2c-2.2,1.6-4.6,2.4-7,3.2 c-0.7,0.6-0.4,1.9,0.4,2.5c0.8,0.5,1.8,0.7,2.8,0.6c2.5,0.1,5.2,0.1,7.5-1.1c1.3-0.8,2.4-1.7,3.5-2.8c2.6-2.2,5.7-3.6,8.8-5 c1.1-0.4,2.2-1,3.1-1.8c1.9-1.9,2.1-4.9-0.7-5.5C775.5,422,771.3,425.4,769.1,426.1L769.1,426.1z"></path><path class="st0" d="M793.5,410.1c0.3-2.7-0.7-5.3-2.7-7.2c0,2.6-0.1,5.5-1.6,7.6c-1.1,1.5-2.7,2.6-3.8,4.1s-1.7,3.8-0.3,5.1 c0.9,0.7,1.9,1,3,1c2.7,0.3,5.8,0.5,7.7-1.5c1-1.1,1.5-2.6,2.8-3.4c0.5-0.2,0.9-0.5,1.2-0.9c0.5-0.8-0.3-1.9-1.2-2.2 c-0.9-0.3-2-0.2-2.9-0.4c-0.9-0.3-1.8-1.3-1.3-2.2"></path><path class="st0" d="M750.1,313.4c-1.4,0.3-2.9,0.4-4.3,0.3c-2.4-0.4-4.3-2.3-6.2-3.7c-4.6-3.5-10.2-5.5-16.1-5.6 c-5.3-0.1-10.6,1.3-15.8,0.3c0.3,1.9,2,3.3,3.7,4.1c1.7,0.8,3.6,1.3,5.4,2.1c2.8,1.3,4.9,3.6,6.2,6.4c0.4,1.3,1,2.6,1.7,3.8 c1.7,2.3,5,2.8,7.9,2.6c3.8-0.2,7.7-1.3,11.2,0.1c2.7,1.1,4.6,3.4,6.8,5.2c2.2,1.8,5.4,3.2,7.9,1.9c-5.5-1.8-9.2-6.9-9.1-12.6 c2.5,0.2,9.8,0.1,9.4-4.1C758.5,310.5,752.3,313,750.1,313.4L750.1,313.4z"></path><path class="st0" d="M717.1,342.9c0.4-2.5,2.9-4.6,2.1-7c-0.5-1.6-2.4-2.4-4.1-2.5c-1.7,0-3.4,0.5-5.1,0.5c-1.1-0.1-2.2,0-3.4,0 c-3.4,0.6-5.5,4.1-8.8,5.4c-2,0.8-4.2,0.6-6.2,1.2c-4.6,1.2-7.6,5.6-10.8,9.1c-5.2,5.7-12,9.6-19.5,11.4c-2.6,0.6-5.5,1-7.5,2.7 c-2.8,2.3-3.5,6.2-4.1,9.7c-1.7,9.7-4.3,19.3-7.8,28.6l11,1.4c2.1,0.3,4.3,0.5,6.3-0.1c1.5-0.6,2.8-1.3,4.1-2.2 c4.9-3,10.4-5,16.1-5.8c2.9-0.4,5.9-0.5,8.6,0.6c2.7,1.1,5,3.5,5.2,6.4c2.4-0.7,5-0.1,6.8,1.6c1.7,1.8,2.8,4,3.2,6.4 c0.3,1.5,0.6,3.3,2,3.9c1.1,0.5,2.4,0,3.7-0.1c4.2-0.3,7.7,4.6,11.9,3.7c4.5-0.9,5.6-7.6,9.9-8.9c2.5-0.8,6,0.2,7.2-2.2 c1.1-2-1-4.4-0.8-6.7c0.3-2.8,3.6-4,6.2-5.2c8.8-4.1,13-16.1,8.8-24.8c-2.5-5.2-7.5-9.3-8.5-15c-0.7-4.4,1-9.5-1.8-13 c-1.4-1.8-3.8-2.7-4.7-4.8c-0.5-1.3-0.3-2.8-0.6-4.2c-0.3-1.4-1.5-2.9-2.9-2.5c-4,1-5.3,13.4-7.4,16.4 C722.8,351.5,716.1,348.5,717.1,342.9L717.1,342.9z"></path><path class="st0" d="M643.2,318.1c-1.4-0.4-2.9-0.8-4.2-0.2s-2.1,2.5-1,3.4c8.2-0.3,16.5-0.6,24.6,0.5c9.4,1.3,18.7,4.5,28.1,3.5 c-5.4-1.6-10.9-2.9-16.4-3.8l-9.2-1.8c-2.5-0.5-5-0.9-7.5-1.2C652.3,318.1,648.4,319.5,643.2,318.1L643.2,318.1z"></path><path class="st0" d="M651.4,289.4c-0.7-0.1-1.5-0.1-1.9,0.5c-0.3,0.6,0,1.3-0.1,1.9c-0.3,0.9-1.4,1.1-2.3,1c-0.9-0.1-1.8-0.4-2.6,0 c-0.8,0.6-1.2,1.6-0.9,2.5s0.9,1.7,1.5,2.4c1.2,1.5,2.5,2.8,3.9,4c2.8,2.1,6.7,3.1,8.5,6.1c0.2,0.6,0.6,1.1,1.1,1.5 c0.9,0.5,2,0.1,2.9-0.3l3.2-1.5c0.6-0.2,1.1-0.6,1.5-1c0.8-1,0.3-2.4-0.3-3.5s-1.4-2.2-1.3-3.4c0.2-2.2,3.1-3.1,4.2-4.9 s0.4-4.3,0.5-6.6c0.2-2.6,1.8-6-0.8-8c-2.2-1.7-4.4-0.1-6,1.7C659.3,285.7,657.7,289.9,651.4,289.4L651.4,289.4z"></path><path class="st0" d="M671,250.5c1.1,2.1,3.4,3.4,4.6,5.4c1.3,2.2,1.2,5.1,2.6,7.3c1.4,2.2,4.4,3.4,5.2,5.9c0.9,2.7-1.1,6.1,0.5,8.5 c1.2,1.6,3.4,1.9,5,0.7l0,0l0.2-0.2c1.4-1.5,1.3-3.9-0.2-5.4c-0.9-0.9-2.3-1.2-3.1-2.3c-0.4-0.6-0.7-1.3-0.8-2 c-0.4-2-0.4-4.2,0.2-6.2c0.2-0.5,0.3-1.1,0.2-1.6c-0.4-1-1.8-1.1-2.7-1.6c-2.2-1.1-2.2-4.3-1.8-6.7c-0.3,1.6-6.1-1.2-6.7-2.1 c-1.2-1.8-0.6-5.4-0.8-7.4C670.8,244.1,669.8,247.8,671,250.5L671,250.5z"></path><path class="st0" d="M612.2,282.9c-1.1-1.2-2.7-2.5-4.1-1.7c-1.1,0.6-1.4,2.1-1,3.2c0.5,1.1,1.3,2.1,2.4,2.8c3,2.5,6.3,4.7,8.9,7.6 c4.7,5.2,7.2,12.1,12.3,16.9c1,1.1,2.4,1.8,3.8,2.1c1.5,0.1,3.2-0.8,3.3-2.3c0.1-1.2-0.7-2.3-1.5-3.2c-2-2.2-4.2-4.1-6-6.4 c-0.9-0.9-1.4-2-1.5-3.2c0-1.2,1.1-2.5,2.3-2.2c-1.4-0.4-2.5-2.8-4.6-3.2c-1.8-0.4-2.2,0.7-4.3-0.2 C618.1,291.4,615,286.1,612.2,282.9L612.2,282.9z"></path><path class="st0" d="M705.9,165.4c-1.1-0.3-2.3-0.7-3.4-1.2c-3-0.9-6.9,1.3-6.5,4.3c0.3,2,2.2,3.4,3.2,5.2c1.5,2.6,1.1,5.9,0.3,8.9 c-0.2,0.9-0.6,1.8-1.1,2.5c-0.8,0.8-1.7,1.4-2.7,1.9c-4,2.2-7.5,5.2-10.4,8.8c-0.3,0.3-0.5,0.7-0.6,1.2c-0.1,1,0.9,1.8,1.5,2.7 c1.3,1.9,0.4,4.5,0.5,6.8c0,0.7,0.3,1.3,0.8,1.7c0.8,0.4,1.7-0.3,2.1-1.1c1.4-2.6,0.3-6.7,3-7.9c0.5-0.2,1.1-0.3,1.4-0.8 c0.5-0.7,0-1.7,0.3-2.6c0.4-1.3,2.1-1.3,3.4-1.3c2.3,0.1,4.5-0.2,6.7-0.9c0.9-0.2,1.6-0.7,2.2-1.3c0.8-1,0.7-2.4,0.6-3.7 c-0.8-6.3-2.8-12.4-5.9-17.9c2.3,0.3,4.9,0.6,6.9-0.7c1.1-0.7,2.5-2.7,1.9-4.1C709.5,163.9,707.9,165.8,705.9,165.4L705.9,165.4z"></path><path class="st0" d="M406.5,200c0.4,1.5,0.4,3,0.1,4.5c-0.5,1.4-2,2.6-3.5,2.2c-1.1-0.3-1.8-1.5-2.6-2.3c-4.5-4.8-14.6-2-17.3-8 c-1.1-2.4-0.4-5.4-1.1-7.9c-1-3.1-3.9-5.1-7.1-4.9c-1.4,0.2-2.8,0.6-4.1,1.2c-8.7,3.5-17.9,5.8-27.3,6.8c-1.8,0.1-3.5,0.4-5.2,1 c-3.8,1.4-6.5,4.9-8.3,8.6c-1.9,3.6-3.2,7.6-5.8,10.8c-2.6,3.4-6.3,5.8-9.8,8.3c-1.3,0.9-2.4,2-3.2,3.4c-0.8,1.5-0.7,3.3-0.6,5 l0.7,20.7c0.1,2.7,0.2,5.4,1.4,7.8c1.5,3,4.4,4.9,6.5,7.5c2.1,2.7,3.2,6,3.1,9.4c0,1.4-0.2,3,0.9,3.8c0.6,0.4,1.4,0.6,2.2,0.6 l28,2.3c4.9,0.4,10.4,1.1,13.6,4.8c1.5,1.8,2.7,4.3,5,4.5c1,0.1,2-0.3,3-0.4c2.5-0.2,4.7,1.7,6.1,3.8c2.1,3.2,3.1,7,2.7,10.8 c-0.2,2.4-1,4.7-1.1,7.1c-0.6,9.1,7.1,17.1,7.3,26.2c0.1,5.4-2.5,10.4-5,15.2c4,6.1,0.8,14.2,2.3,21.3c1.5,6.8,7.2,12,8.6,18.8 c0.6,3.1,0.7,6.9,3.4,8.5c1.2,0.6,2.5,0.8,3.8,0.8c8.1,0.1,16-1.7,23.2-5.3c3.4-1.7,6.9-4.2,7.5-7.9c0.5-3-1-6.4,0.5-9 c1.8-3.1,6.5-2.8,9.2-5.2c4.4-3.8,1-11.2,2.7-16.8c1.6-5,7.1-7.6,9.8-12.1c1.1-1.9,1.8-4,2.3-6.2c1.2-5.2,2-10.4,2.3-15.7 c0.1-3.2,0.3-6.4,0.7-9.6c2.9-18.2,20.9-30.4,26.8-47.9c0.6-1.7,0.8-3.9-0.7-4.8c-0.9-0.4-1.9-0.5-2.8-0.3l-12.9,1.6 c-1.6,0.2-3.3,0.4-4.8-0.3c-1.5-0.7-2.5-2.5-1.7-3.9c2.2-4-2.3-9-4.3-13c-5.4-10.9-11.8-21.3-19.2-31.1c-0.5-0.5-0.8-1.1-0.8-1.8 l3.7,0.1c-1.2-4.4-3.3-9.3-7.6-10.9c-2.4-0.9-5.1-0.6-7.7-0.5C421.8,202.3,413.8,201.1,406.5,200L406.5,200z"></path><path class="st0" d="M429.2,100.1c1.9,2.1,4.1,4.2,6.9,4.6c5,0.6,8.5-4.5,10.8-8.9c0.2,2.4,2.2,4.2,4.6,4c1.2-0.2,2.4-0.7,3.4-1.3 c9.8-5.4,20.8-8.2,32-8.3c-0.2-1.8,0.9-3.4,2.6-3.8c2.3-0.5,4.3,1.5,5.4,3.6c1.1,2,1.8,4.4,3.5,5.9s5.1,1.5,5.8-0.8 c0.7-2.2-1.5-3.9-3.4-5.2c-1.9-1.3-3.8-3.6-2.5-5.4c9.4-2.1,18.9-4.2,28.5-4.6c1.6,0.1,3.3-0.2,4.8-0.8c1.5-0.7,2.6-2.4,2.2-3.9 c-4.3,1-8.7-0.7-11.3-4.3c13.3-1.1,27.5-2,39.4,4.2c1.4,3.1-5.8,5.6-3.8,8.3c0.6,0.9,1.9,1,2.9,1c8.2,0.2,16.5,0.3,24.6-0.9 c3-0.5,6-1.1,9-0.7c5,0.6,9.2,3.9,14.1,5c2,0.4,4.2,0.5,5.9-0.7s2.4-3.8,1-5.3c4.6-4.5,12.2-3.4,18.3-1.2c6.1,2.2,11.8,5.6,18.2,6.2 c4.6,0.3,9.3-0.9,13.9-0.1c2.9,0.5,5.5,1.8,8.3,2.5c5.3,1.5,10.9,1.2,16.4,1.2c14,0.2,27.9,2.9,40.9,8.1c1.7,0.5,3.2,1.5,4.5,2.7 c1.2,1.3,1.8,3.3,1,4.9l-13.5-2c1.3,2.5,4.5,2.9,7.2,3.8s5.4,3.8,3.8,6.1c-2.9-0.9-5.5,2-6.9,4.6c-1.4,2.7-3.2,5.8-6.3,6 c-2.7,0.1-6-2.2-7.8-0.1c2.4,3.1,4.5,6.4,6.2,10c1.7,3.6,3,8.2,0.6,11.5c-0.4,0.6-0.9,1-1.6,1.2c-1.9,0.5-3.2-1.9-4.6-3.3 c-1.7-1.8-4.4-2.3-6.7-3.2s-4.8-2.5-5-5c-0.1-1.5,0.7-3,1.3-4.4c1-2.4,1.5-5,1.3-7.7c-0.1-2.1-0.7-4.3-2.2-5.8s-4.1-1.9-5.8-0.6 c-0.8,0.6-1.4,1.6-2.3,1.7c-1.7,0.1-3.1-3-4.5-1.9c0.2,1.1-0.1,2.2-0.6,3.2c-4.2,3.6-10.6,2.1-16,3.4c-2.6,0.7-5,1.8-7.3,3.2 c-0.9,0.4-1.6,1-2.1,1.7c-0.7,1.3,0.1,3,1.2,3.8c1.3,0.8,2.7,1.3,4.1,1.4c6.6,1.2,13.2,3.2,18.4,7.4s8.6,11.2,6.9,17.6L682,146.3 c0.5,5.2,0.8,10.4,0.8,15.6c0.1,1-0.1,2-0.4,3c-0.9,2-3.4,2.7-5.6,3.2c-2.4,0.5-3.9,2.8-3.5,5.1l0,0c0,0.2,0.1,0.3,0.1,0.5 c0.8,2.5,2.7,4.5,4.5,6.5s3.5,4.2,3.8,6.9s-1.8,5.6-4.4,5.4c-2-0.1-3.5-1.9-4.3-3.8c-0.9-1.8-1.4-3.8-2.6-5.4 c-3.9-4.7-12.6-2.7-16.1-7.7c-1.8,2.1-2.4,4.9-1.6,7.5c1.6-1,3.8-0.1,5.1,1.4s1.8,3.4,2.8,5c1.3,2.2,3.3,4.2,3.5,6.8c0,1,0,2,0,2.9 c0.3,1.5,1.6,2.7,2.6,4c2.1,3,2,7.2,0.7,10.7s-3.8,6.3-6.3,9.1c-4.3,4.9-8.6,9.7-13.7,13.8c-1.4,1.2-3,2.3-3.8,3.9 c-0.9,1.6-0.9,3.8,0.4,5.1c-1,0.1-2.8,0.5-3.7,0.6c-0.3-4-0.4-7.9-0.2-11.9c-3.9-1.9-8.1,3.1-7.6,7.4c0.5,4.3,3.6,7.7,5.8,11.5 c1.6,2.7,2.8,5.9,2.3,9c-0.5,3.1-3.3,6-6.5,5.7c-5-0.4-7.1-7.6-12.1-8.5c-0.4-0.1-0.9-0.1-1.3,0.1c-0.8,0.4-0.9,1.4-0.9,2.2 c-0.2,4.1-0.4,8.4,1.2,12.2c2.4,5.6,8.5,10.2,7.2,16.1c-6.9-3.2-10.4-10.9-12.1-18.3s-1.9-15.2-4.8-22.1c-2.2,2.8-6.8,0.5-8.9-2.5 c-1.9-2.8-3.1-6.1-4.9-8.9c-1.9-2.8-4.7-5.4-8.1-5.6c-3.6-0.2-6.7,2.3-9.4,4.6c-2.2,1.9-4.5,3.8-5.8,6.5c-1.9,3.8-1.4,8.3-1.5,12.6 c-0.1,4.6-1.1,9.5-4.2,12.8s-8.9,4.5-12.4,1.5c-1.8-1.6-2.7-4-3.5-6.2c-3.8-11-6.9-22.2-9.4-33.5c-0.6,2.6-2.9,5.9-5,4.4 c-0.5-0.4-0.9-0.9-1.2-1.5c-4-6.9-11.5-11-19.1-13.4c-7.6-2.5-15.6-3.6-23-6.3c-4.2-1.5-8.2-3.5-12-6c-1.9,2.9-2.2,6.5-0.6,9.6 c1.7,2.9,5.4,4.6,8.6,3.6c1.7-0.5,3.1-1.7,4.7-2.3s3.8-0.3,4.6,1.3s-0.4,3.4,0.2,4.9c0.8,2.4,4.4,2.6,5.7,4.8 c0.9,1.6,0.2,3.8-1.2,5.1c-1.4,1.3-3.2,2-4.8,3c-5.4,3-9.2,8.1-13.9,12.1c-4.7,4-11.3,6.9-16.9,4.3c1.3-6.8-6.7-11.7-8.2-18.4 c-0.5-2.2-0.2-4.6-0.9-6.7c-1-3.1-3.8-5.3-6.1-7.6c-5.6-5.9-8.5-13.7-8.2-21.8c0.1-2.8,0.6-5.6,0-8.3s-2.9-5.3-5.7-5.2 c-6.3,0.3-14.3,0.8-17.7-4.6c-1.2-1.9-1.7-4.8,0-6.2c1.2-1,3-0.9,4.6-0.8l14.3,1.4c3.3,0.3,6.9,0.6,9.8-1.1c2.9-1.7,4.1-6.4,1.5-8.5 c-1.9-1.5-5.4-1.4-6-3.8c-0.5-2,1.7-4.2,0.5-5.9c-0.9-1.2-2.8-0.9-3.9,0s-2,2.2-3.3,2.9c-2.3,1.2-5,0.1-7.5-0.7 c-2.4-0.8-5.8-0.8-6.9,1.4c-1.3,2.5,1.2,5.9-0.1,8.5c-1.7,3.4-7.7,1.5-10.1,4.4c-2.8,3.3,1.9,8.3,1,12.6c-2.5,1.2-5.4,1.1-7.7-0.4 c-2.3-1.5-3.5-4.2-3.2-6.9c0.2-1.9,1.2-3.8,0.6-5.7c-0.5-1.5-2-2.3-3.4-3.1l-13.9-7.7c-1.3,2.4,0.3,5.4,2.4,7.2s4.6,3.2,5.9,5.5 c1.8,3.4,0.6,7.6-2.7,9.5c-0.4,0.3-0.9,0.4-1.4,0.2c-0.4-0.3-0.8-0.7-0.9-1.2c-2.4-6.3-6.2-12.5-12-15.7c-5.9-3.3-14.3-2.6-18.2,2.9 c-0.9,1.3-1.5,2.8-2.3,4.2c-4.2,7.4-13.3,10.9-21.8,10.6c-0.8,0-1.7-0.1-2.4-0.6c-1.4-0.9-1.3-3-1.1-4.6l0.9-7 c0.2-1.4,0.4-3,1.5-3.8c1.6-1.2,3.8-0.5,5.9-0.5c3.1-0.1,5.8-2.2,6.7-5.2c0.8-3-0.1-6.2-2.3-8.3c-0.9-0.9-2.2-1.9-1.7-3.1 c0.4-0.6,1.1-1.1,1.8-1.2c3.6-1,7.4-1.3,10.9-2.6c3.5-1.2,7-3.8,7.8-7.4c0.3-1.1,0.4-2.5,1.4-3c0.5-0.2,1-0.3,1.6-0.3 c4-0.6,6.9-4.1,6.7-8.1c1.7-1.2,4.1-0.3,5.7,0.9c1.6,1.3,3.1,2.9,5.1,3.5c3.7,1,7.3-2.3,11.2-2.3c1.6,0,3.3,0.6,4.8,0 s2.5-2.1,3.7-3.2c1.2-1.1,3.3-1.8,4.4-0.6l-0.9-6.9c3.8,1,7.8,0.2,11.1-2l-12.1-4.1c-0.4-0.1-0.8-0.3-1.1-0.6 c-0.9-0.9,0-2.4,0.7-3.5c1.7-2.6,2-6.8-0.8-8.1c-1.9-0.9-4.1,0.2-6,1.2l-8.8,4.9c-0.3,1.7,1.8,2.6,3,3.8c2.1,1.9,2.3,5.1,0.4,7.2 c-1,1.1-2.3,1.7-3.7,1.7c1.2,1.5,1.6,3.5,1.1,5.4l-5.9,0.4c-0.7,0.1-1.4,0-1.9-0.4c-0.6-0.6-0.5-1.5-0.7-2.4c-0.4-2-2.3-3.4-4.3-3.8 s-4.1,0.1-6.1,0.6c-0.8,0.3-1.8,0.3-2.6-0.1c-0.5-0.3-0.8-0.8-1-1.3c-0.9-2.1-0.1-4.6,1.3-6.4s3.3-3.1,5-4.6 c4.1-3.6,7.2-8.3,8.8-13.6c3.3-1.4,6.6-3.2,9.9-4.6c5-2.5,10.7-3.6,16.3-3.2l11,0.2c3.3,0.1,6.6,0.1,9.7,1.4c3,1.2,5.7,3.9,5.9,7.2 c0.1,0.8-0.1,1.5-0.7,2c-0.4,0.2-0.9,0.3-1.4,0.3c-3.1,0.1-4.4,0.9-7.4,1L429.2,100.1z"></path><path class="st0" d="M341.2,134.8c0.9-0.8,1.2-2.1,0.9-3.2c-2.1-0.8-4.6-0.4-6.3,1.2c-0.7,0.7-1.2,1.4-1.7,2.2 c-1.5,2.4-2.7,5.2-1.9,7.8c0.1,0.6,0.5,1.1,1,1.4c0.4,0.2,0.8,0.2,1.2,0.2c1.6,0,3.2-0.1,4.8-0.3c1-0.1,2.1-0.4,2.5-1.3 c0.5-1.2-0.7-2.5-0.4-3.8c0.2-0.6,0.6-1.1,1-1.5s0.7-1,0.6-1.6s-1-0.9-1.4-0.4"></path><path class="st0" d="M349.5,124c-1.4-0.3-2.9-0.4-4.3-0.3c-0.3,0-0.6,0.1-0.9,0.2c-0.3,0.2-0.5,0.5-0.6,0.8c-0.6,2,0.4,4.2,2.4,5 c0.5,0.1,1,0.3,1.5,0.6c1.2,0.9,0.4,2.9,0.7,4.4c0.3,1.7,1.9,3.2,1.6,4.9c-0.2,1.3-1.7,2.4-1.5,3.8c0.2,1.4,2,1.8,3.5,2 c0.8,0.1,1.7,0,2.5-0.3c0.8-0.5,1.3-1.3,1.5-2.3c0.6-1.7,0.8-3.6,0.7-5.4c0-0.8-0.2-1.7-0.6-2.4c-0.4-0.6-0.9-1.1-1.4-1.6 C351.8,130.3,354.7,125.5,349.5,124L349.5,124z"></path><path class="st1" d="M710.6,374.2c0,0-210.3-120.7-300.9-97.8c0,0-191.9,20.6-214.1,66.1c0,0-61-190.6-83.2-197"></path><path class="st1" d="M195.6,342.5c35.3-94,363-139.9,363-139.9c-45.1,11.4-148.9,73.8-148.9,73.8S211.5,132.1,112.4,145.5 c0,0,436.5,14.3,598.2,228.7"></path><circle class="st2" cx="112.4" cy="145.5" r="9.2"></circle><circle class="st2" cx="195.6" cy="342.5" r="9.2"></circle><circle class="st2" cx="561.7" cy="202.6" r="9.2"></circle><circle class="st2" cx="697.8" cy="189.4" r="9.2"></circle><circle class="st2" cx="381.6" cy="148.6" r="9.2"></circle><circle class="st2" cx="561.7" cy="238.3" r="9.2"></circle><circle class="st2" cx="710.6" cy="374.2" r="9.2"></circle><circle class="st2" cx="409.7" cy="276.4" r="9.2"></circle><path class="st3" d="M701.4,188.6c0,0-100.8-4.9-139.6,49.8c0,0-47.8-86.9-177.2-89.8"></path></svg>