<?xml version="1.0" encoding="UTF-8" standalone="no"?><!DOCTYPE svg PUBLIC "-//W3C//DTD SVG 1.1//EN" "http://www.w3.org/Graphics/SVG/1.1/DTD/svg11.dtd"><svg width="100%" height="100%" viewBox="0 0 324 108" version="1.1" xmlns="http://www.w3.org/2000/svg" xmlns:xlink="http://www.w3.org/1999/xlink" xml:space="preserve" xmlns:serif="http://www.serif.com/" style="fill-rule:evenodd;clip-rule:evenodd;stroke-linejoin:round;stroke-miterlimit:2;"><rect id="Page-1" serif:id="Page 1" x="0" y="0" width="324" height="108" style="fill:none;"/><g id="Layer-1" serif:id="Layer 1"><path d="M28.835,37.035l21.961,22.271l22.272,-21.961l-21.961,-22.271l-22.272,21.961Z" style="fill:#fff200;"/><path d="M7.976,51.207l21.96,22.272l22.273,-21.96l-21.96,-22.272l-22.273,21.96Z" style="fill:#ed1c24;"/><path d="M41.218,55.674l21.96,22.272l22.273,-21.96l-21.96,-22.272l-22.273,21.96Z" style="fill:#1375bc;"/><path d="M19.178,67.918l21.96,22.272l22.272,-21.96l-21.96,-22.272l-22.272,21.96Z" style="fill:#39b54a;"/><path d="M68.611,68.216c1.257,-0.803 1.076,-0.979 0.901,-2.328c-0.176,-0.985 -0.355,-2.062 -0.262,-3.138c0.186,-1.794 2.7,-5.105 1.72,-6.72c0.807,-0.715 0.359,-1.17 0.182,-1.971c-0.087,-1.08 0.272,-1.258 0.362,-2.156c0.096,-1.523 -1.158,-3.048 -1.694,-4.395c-0.714,-1.527 -0.624,-3.41 -1.422,-4.932c-0.54,-0.901 -3.224,-2.52 -3.855,-1.176c-0.713,-0.449 -1.073,-1.258 -1.7,-1.706c-0.808,-0.631 -1.341,-0.635 -1.79,-1.708c-0.094,0.178 -0.538,0.446 -0.72,0.716c-2.238,-1.53 -3.677,0.17 -5.737,0.342c-0.719,0 -6.092,-2.071 -5.915,-0.099c-1.167,-0.094 -5.116,0.259 -5.027,2.228c0.175,1.259 2.056,0.545 1.787,1.98c-0.092,0.717 -1.976,1.429 -0.275,1.976c-0.449,0.353 -1.076,0.261 -1.614,0.621c-0.089,-0.091 -0.089,-0.18 -0.178,-0.36c-1.078,0.806 -2.152,-0.185 -3.319,-0.276c-1.519,-0.001 -2.513,0.709 -3.858,1.157c-1.163,0.357 -2.242,0.624 -3.499,0.983c-0.355,0.086 -1.075,0.533 -1.523,0.443c-0.536,-0.093 -0.983,-0.811 -1.615,-0.992c-1.61,-0.453 -1.345,1.254 -2.96,1.162c-0.447,-0.002 -0.897,-0.81 -1.432,-0.813c-0.986,0 -0.625,0.362 -1.167,0.987c-0.539,0.536 -0.539,0.536 -1.167,0.893c-0.629,0.356 -1.166,0.265 -1.438,1.072c-0.271,0.897 1.163,2.784 -0.096,3.585l-0.181,0.27c-0.625,-0.806 -1.073,-1.253 -1.073,-0.087c-0.002,0.355 0.446,0.627 0.535,0.981c-0.003,0.363 -0.364,0.987 -0.364,1.438c1.078,-0.087 2.062,1.437 3.044,2.156c1.342,1.082 2.065,0.633 3.495,1.443c1.255,0.629 2.059,1.889 3.223,2.699c0.269,0.181 0.359,-0.272 0.716,0c0.357,0.268 0.45,0.628 0.716,0.898c0.537,0.453 0.804,0.897 1.792,0.811c-0.092,1.254 0.627,0.27 1.165,0.539c0.449,0.269 0.624,0.541 0.984,0.72c0.537,0.18 1.076,0.09 1.345,0.18c0.63,0.094 1.252,0.542 1.971,0.632c0.628,0.093 1.255,-0.269 1.88,-0.085c0.811,0.183 -0.269,0.987 0.987,0.54c0.27,-0.084 0.721,-0.805 1.17,-1.073c0.448,-0.179 1.523,-0.088 1.971,-0.088c1.078,0.187 2.329,0.815 3.406,0.367c0.808,-0.268 1.971,-1.339 2.694,-1.874c1.079,-0.717 1.888,-1.162 2.963,-1.432c0.18,-0.088 0.627,0.09 0.894,0.093c0.092,0 0.361,-0.535 0.542,-0.451c0.624,0.002 0.894,0.278 1.434,0.726c0,0 -0.273,0.084 -0.273,0.179c0.632,0.27 0.54,0.807 0.091,1.253c1.165,0.006 2.149,-0.444 2.956,0.006c0.715,0.362 1.251,1.438 1.79,2.066c1.076,-0.178 0.176,1.438 0.709,2.064c0.628,0.716 1.62,0.271 2.424,0.271c1.168,0.005 3.404,0.191 4.397,-0.704" style="fill:#fff;fill-rule:nonzero;"/><g transform="matrix(0.24,0,0,0.24,65.541488,25.61326)"><text x="91.077px" y="102.344px" style="font-family:'TimesNewRomanPS-BoldMT', 'Times New Roman', serif;font-weight:700;font-size:103.672px;fill:#808285;">T<tspan x="158.353px 187.156px " y="102.344px 102.344px ">ib</tspan>et <tspan x="345.549px 420.418px " y="102.344px 102.344px ">Ac</tspan>tion Institute</text><g transform="matrix(68.765833,0,0,68.765833,417.255392,178.443083)"><path d="M0.604,0.379c-0.008,0.088 -0.053,0.138 -0.135,0.148c-0.007,0.003 -0.015,0.005 -0.023,0.005c-0.027,0 -0.059,-0.018 -0.095,-0.055c-0.036,-0.037 -0.075,-0.089 -0.118,-0.157c-0.031,-0.046 -0.061,-0.089 -0.091,-0.128c-0.03,-0.039 -0.06,-0.074 -0.092,-0.105c-0.005,-0.004 -0.007,-0.01 -0.007,-0.018c-0,-0.004 0.001,-0.007 0.004,-0.009c0.008,-0.007 0.018,-0.006 0.029,0.003c0.012,0.014 0.026,0.03 0.043,0.048c0.017,0.018 0.035,0.04 0.055,0.064c0.01,0.014 0.023,0.03 0.038,0.05c0.015,0.02 0.033,0.043 0.054,0.071c0.073,0.104 0.138,0.155 0.195,0.153c0.06,-0.003 0.095,-0.026 0.106,-0.069c0,-0.016 -0.005,-0.028 -0.014,-0.038c-0.009,-0.009 -0.024,-0.014 -0.043,-0.014c-0.031,0 -0.054,0.009 -0.071,0.028c-0.002,-0.069 0.022,-0.106 0.071,-0.11l0.007,0c0,-0.105 -0.001,-0.195 -0.002,-0.271c-0.001,-0.081 -0.005,-0.146 -0.01,-0.195c-0.006,-0.057 -0.014,-0.1 -0.023,-0.129c-0.009,-0.029 -0.021,-0.044 -0.036,-0.044l-0.101,0c0.002,0.037 0.003,0.067 0.004,0.089c0.001,0.022 0.001,0.037 0.001,0.045l-0.001,0.264c-0.031,-0.028 -0.061,-0.051 -0.091,-0.07c-0.03,-0.018 -0.06,-0.032 -0.089,-0.042c-0.014,-0.004 -0.03,-0.007 -0.046,-0.01c-0.016,-0.003 -0.03,-0.004 -0.042,-0.004c-0.022,0 -0.042,0.004 -0.061,0.012c0.014,-0.075 0.027,-0.135 0.039,-0.182c0.012,-0.047 0.022,-0.081 0.031,-0.101l-0.064,0l0.042,-0.081l0.525,0l-0.038,0.081l0,0.656c0.028,0.02 0.043,0.058 0.045,0.116Zm-0.434,-0.772c-0.02,0.014 -0.037,0.038 -0.052,0.07c-0.015,0.032 -0.026,0.073 -0.034,0.122c0.049,0.002 0.092,0.013 0.13,0.033c0.038,0.02 0.072,0.049 0.103,0.085c-0.004,-0.178 -0.02,-0.282 -0.048,-0.31l-0.099,0Z" style="fill:#1375bc;fill-rule:nonzero;"/></g><g transform="matrix(68.765833,0,0,68.765833,554.36907,178.443083)"><path d="M0.386,-0.474l-0.025,0.081l-0.079,0c0.033,0.022 0.065,0.053 0.098,0.094c0.033,0.041 0.075,0.092 0.125,0.154c-0.003,-0.147 -0.025,-0.231 -0.067,-0.251l0.025,-0.078l0.104,0l-0.029,0.077l0,0.278c0,0.01 -0.002,0.018 -0.006,0.024l0.007,0l-0.029,0.078l-0.271,0c0.004,0.024 0.008,0.046 0.013,0.068c0.005,0.022 0.008,0.044 0.012,0.069c0.031,-0.049 0.071,-0.074 0.12,-0.074c0.076,0 0.117,0.039 0.123,0.118c0,0.014 -0.003,0.033 -0.01,0.058c-0.007,0.026 -0.017,0.057 -0.032,0.092c-0.012,0.029 -0.024,0.055 -0.036,0.08c-0.012,0.025 -0.025,0.046 -0.038,0.063l0,-0.001c-0.004,0.01 -0.01,0.016 -0.02,0.016c-0.003,-0 -0.006,-0.001 -0.008,-0.003c-0.005,-0.005 -0.004,-0.016 0.003,-0.034c0.029,-0.06 0.051,-0.109 0.065,-0.147c0.014,-0.038 0.021,-0.064 0.021,-0.08c0,-0.062 -0.026,-0.093 -0.079,-0.093c-0.044,-0 -0.076,0.015 -0.097,0.046c0.002,0.016 0.005,0.033 0.008,0.049c0.003,0.016 0.006,0.033 0.007,0.05l0,0.008c0,0.009 -0.001,0.015 -0.002,0.017c-0.012,0.001 -0.02,-0.004 -0.024,-0.015c-0.015,-0.047 -0.03,-0.094 -0.046,-0.141c-0.015,-0.047 -0.031,-0.093 -0.047,-0.139l0.015,-0.084l0.313,0l-0.01,-0.008c-0.054,-0.059 -0.104,-0.111 -0.152,-0.156c-0.048,-0.044 -0.099,-0.081 -0.155,-0.11c-0.036,0.025 -0.062,0.053 -0.079,0.082c0.069,0.016 0.132,0.054 0.19,0.113c0.012,0.012 0.015,0.024 0.009,0.035l-0.006,0.004l-0.002,0c-0.001,0.001 -0.003,0.002 -0.006,0.002c-0.01,-0.001 -0.016,-0.002 -0.018,-0.003c-0.002,-0.001 -0.002,-0.002 0.001,-0.002c-0.066,-0.046 -0.139,-0.069 -0.218,-0.069l-0.014,0c-0.005,-0 -0.01,0.001 -0.014,0.002c0.029,-0.082 0.062,-0.144 0.097,-0.188l-0.092,0l0.022,-0.081l0.333,0Z" style="fill:#1375bc;fill-rule:nonzero;"/></g><g transform="matrix(68.765833,0,0,68.765833,848.174464,178.443083)"></g><text x="100.258px" y="178.443px" style="font-family:'MonlamUniOuChan1', 'Monlam Uni OuChan1';font-size:68.766px;fill:#1375bc;">བ<tspan x="140.014px 140.014px 179.299px 192.02px 231.304px 231.304px 271.6px 284.322px 326.707px 367.07px 379.791px 459.506px 501.891px 514.613px 594.26px 595.521px 608.242px 650.763px 691.058px 731.421px 744.143px 784.842px 823.048px 835.77px " y="178.443px 178.443px 178.443px 178.443px 178.443px 178.443px 178.443px 178.443px 178.443px 178.443px 178.443px 178.443px 178.443px 178.443px 178.443px 178.443px 178.443px 178.443px 178.443px 178.443px 178.443px 178.443px 178.443px 178.443px ">ོད་དོན་ལས་འལ་བི་གནས་ཁང་།</tspan></text></g></g></svg>